<?xml version="1.0" standalone="no"?>
<!DOCTYPE svg PUBLIC "-//W3C//DTD SVG 20010904//EN"
 "http://www.w3.org/TR/2001/REC-SVG-20010904/DTD/svg10.dtd">
<svg version="1.0" xmlns="http://www.w3.org/2000/svg"
 width="263.000000pt" height="263.000000pt" viewBox="0 0 263.000000 263.000000"
 preserveAspectRatio="xMidYMid meet">
<metadata>
Created by potrace 1.11, written by Peter Selinger 2001-2013
</metadata>
<g transform="translate(0.000000,263.000000) scale(0.100000,-0.100000)"
fill="#000000" stroke="none">
<path d="M1559 2590 c-21 -21 -28 -36 -25 -54 11 -58 22 -66 161 -111 259 -84
529 -328 650 -588 35 -75 74 -184 81 -227 3 -14 7 -31 9 -38 20 -56 27 -303
11 -402 -4 -30 -8 -61 -9 -69 0 -8 -13 -19 -29 -25 -28 -10 -28 -11 -26 -86 2
-71 -1 -80 -41 -160 -135 -265 -344 -460 -603 -563 -233 -92 -480 -107 -724
-42 -79 21 -255 92 -199 81 91 -19 92 -19 32 13 -69 37 -71 37 -64 11 5 -20 3
-19 -41 6 -134 77 -284 216 -373 346 -90 132 -163 319 -189 483 -13 80 -16
236 -5 316 8 66 43 210 60 253 24 60 -9 112 -75 121 -44 5 -74 -35 -105 -140
-41 -141 -55 -253 -51 -410 9 -341 129 -632 362 -874 105 -110 211 -190 345
-261 89 -46 244 -104 313 -115 17 -3 38 -8 46 -10 84 -24 337 -29 447 -9 286
51 523 173 718 368 199 200 311 412 370 702 24 114 24 319 1 454 -79 457 -396
846 -821 1007 -168 64 -184 65 -226 23z"/>
<path d="M200 2573 c-55 -7 -72 -15 -112 -51 -49 -44 -68 -85 -68 -145 0 -80
46 -154 115 -183 40 -16 385 -21 385 -4 0 5 -33 78 -74 163 -55 117 -81 160
-107 180 -36 27 -97 45 -139 40z m75 -143 c45 -45 10 -134 -54 -132 -66 2
-100 51 -75 110 22 54 85 64 129 22z"/>
<path d="M1075 2399 c-22 -5 -74 -21 -116 -35 -42 -13 -80 -24 -85 -22 -7 2
-97 -12 -114 -17 -55 -18 -76 -41 -79 -91 -1 -6 -11 -24 -23 -40 -12 -15 -23
-34 -24 -41 -3 -16 5 -11 58 39 35 32 130 70 172 68 17 -1 52 -2 77 -1 l46 1
-2 45 -2 45 74 0 c70 0 74 1 83 26 6 14 10 27 10 30 0 6 -29 3 -75 -7z"/>
<path d="M1646 2368 c-32 -18 -8 -36 52 -42 13 -1 27 -8 32 -16 13 -21 12 -33
-2 -24 -8 5 -9 2 -5 -9 3 -10 2 -17 -3 -17 -9 0 -14 13 -12 31 1 3 -4 6 -11 6
-22 1 -42 8 -49 18 -5 6 -8 5 -8 -4 0 -9 -8 -11 -24 -7 -14 3 -28 1 -31 -5 -4
-6 -13 -8 -20 -5 -7 2 -22 -2 -34 -11 -18 -12 -24 -13 -38 -1 -15 11 -16 10
-11 -10 4 -12 3 -20 -1 -18 -4 3 -15 -4 -25 -15 -18 -21 -47 -22 -53 -2 -3 8
4 10 21 7 13 -2 27 0 30 4 9 15 -18 43 -44 47 -14 2 -43 10 -66 19 -40 15 -84
12 -84 -5 0 -5 -8 -9 -17 -9 -26 0 -68 -23 -69 -38 -1 -7 -2 -16 -3 -20 -2
-15 -56 -39 -92 -41 -12 0 -19 -6 -16 -13 2 -7 0 -25 -4 -40 -6 -23 -4 -28 10
-28 9 0 22 5 29 12 16 16 21 8 24 -35 2 -20 5 -37 8 -37 14 0 50 33 50 46 0 8
7 14 15 14 13 0 15 7 10 33 -6 30 -3 36 32 60 49 34 75 36 45 4 -40 -42 -24
-70 32 -60 22 4 27 2 24 -8 -2 -8 -16 -15 -30 -17 -20 -2 -25 -7 -21 -23 4
-15 1 -19 -18 -17 -18 2 -25 -2 -27 -19 -2 -13 -6 -23 -10 -24 -36 -4 -62 -8
-92 -12 -42 -7 -66 8 -48 31 11 13 10 14 -2 10 -8 -3 -15 -16 -15 -29 0 -19
-5 -24 -25 -24 -14 0 -38 -10 -54 -22 -36 -29 -40 -29 -43 0 -4 36 -9 56 -16
63 -4 4 1 13 11 20 16 12 16 13 -3 14 -17 0 -17 2 -5 10 8 5 11 10 5 10 -23
-1 -40 -27 -38 -60 1 -20 -5 -42 -14 -52 -9 -10 -13 -18 -8 -18 4 0 2 -6 -4
-14 -10 -12 -5 -13 31 -9 34 3 39 2 25 -7 -9 -6 -22 -8 -27 -5 -6 3 -10 2 -10
-4 0 -5 -9 -13 -20 -16 -23 -7 -27 -25 -6 -25 7 0 16 -11 18 -25 3 -14 2 -25
-2 -25 -4 0 -10 -8 -13 -19 -3 -14 -11 -17 -31 -14 -63 12 -79 -6 -90 -97 -3
-29 31 -51 66 -43 29 7 69 43 62 55 -7 11 63 78 82 78 7 0 25 5 39 12 24 11
29 9 56 -18 17 -16 41 -39 53 -51 28 -27 38 -29 29 -6 -5 12 -2 15 10 10 9 -3
17 -2 17 3 0 6 -7 10 -15 10 -8 0 -15 5 -15 10 0 6 -7 10 -15 10 -8 0 -15 7
-15 15 0 8 -4 15 -10 15 -5 0 -10 7 -10 15 0 8 9 15 20 15 11 0 20 -6 20 -12
0 -7 16 -23 36 -36 19 -12 32 -27 28 -33 -3 -6 2 -19 12 -30 10 -11 19 -27 20
-35 4 -26 13 -29 32 -11 14 14 14 19 4 26 -19 12 -15 24 14 39 24 13 38 10 40
-6 2 -21 29 -62 41 -62 7 0 13 -4 13 -8 0 -11 81 -9 99 2 12 8 13 0 7 -44 -4
-30 -10 -58 -12 -62 -6 -9 -169 -3 -196 7 -10 4 -18 11 -18 15 0 4 -11 5 -25
2 -16 -3 -25 -11 -25 -23 0 -21 -16 -34 -25 -19 -3 5 -16 10 -27 10 -11 0 -26
7 -32 16 -11 14 -31 21 -64 23 -9 1 -11 11 -6 37 l6 35 -58 -6 c-33 -3 -80
-12 -107 -21 -33 -11 -55 -13 -75 -6 -24 8 -31 5 -59 -25 -18 -19 -33 -37 -34
-41 -4 -34 -12 -50 -42 -76 -49 -45 -76 -109 -77 -181 0 -134 0 -135 11 -135
5 0 9 -6 9 -13 0 -7 8 -20 19 -29 10 -8 20 -20 22 -24 2 -5 20 -21 39 -35 34
-25 37 -25 129 -16 83 8 96 7 106 -7 7 -9 23 -16 36 -16 42 0 52 -14 50 -68
-1 -36 3 -51 13 -55 8 -3 25 -25 38 -49 18 -35 22 -57 20 -121 -1 -69 2 -83
22 -110 13 -18 26 -46 29 -64 4 -18 18 -50 32 -73 14 -22 25 -44 25 -50 0 -7
19 -9 53 -6 28 3 57 5 63 5 16 1 74 62 85 89 5 12 15 22 24 22 9 0 15 9 16 23
1 12 2 30 3 41 0 10 17 27 36 37 53 29 59 42 56 128 -5 103 1 113 117 202 16
12 44 53 63 92 37 77 41 92 20 84 -7 -3 -33 -8 -58 -12 -41 -6 -45 -5 -56 19
-11 24 -10 26 31 36 83 21 116 33 121 46 3 8 13 14 22 14 30 0 91 88 80 116
-3 8 -12 14 -21 14 -8 0 -15 9 -15 20 0 21 -15 27 -25 10 -10 -16 -45 -12 -45
5 0 8 -5 15 -10 15 -15 0 -61 51 -57 64 6 19 28 18 34 -2 6 -25 45 -46 72 -39
14 3 21 0 21 -9 0 -16 3 -17 87 -18 54 -1 64 -5 82 -28 12 -14 21 -31 21 -36
0 -5 6 -15 14 -21 11 -10 17 -8 25 6 8 14 11 4 13 -47 1 -36 3 -74 4 -85 1
-11 3 -45 3 -75 2 -49 3 -53 16 -37 7 11 14 42 14 72 0 34 7 68 21 94 21 43
24 45 73 55 15 4 27 13 27 21 0 8 9 15 20 15 13 0 19 -6 18 -17 -4 -50 3 -83
17 -83 15 0 19 -34 15 -124 -1 -21 2 -36 7 -33 10 7 14 41 16 167 l2 95 30 1
c50 2 55 4 50 17 -2 6 -6 35 -9 62 -35 329 -269 662 -576 821 -100 51 -157 72
-174 62z m-140 -480 c-1 -7 -5 -19 -9 -25 -5 -8 -3 -13 5 -13 19 0 70 -49 63
-61 -8 -11 -66 -12 -97 0 -15 5 -40 3 -74 -8 l-51 -17 2 37 c1 21 10 45 19 54
9 9 16 21 16 26 0 16 29 10 41 -10 8 -11 19 -16 31 -13 15 4 16 7 7 13 -10 6
-7 11 11 18 34 13 39 13 36 -1z m324 -32 c0 -3 -4 -8 -10 -11 -5 -3 -10 -1
-10 4 0 6 5 11 10 11 6 0 10 -2 10 -4z m-125 -97 c-4 -5 3 -9 14 -9 34 0 51
-11 51 -34 0 -19 -6 -23 -34 -24 -31 -1 -35 2 -41 28 -4 17 -10 28 -15 25 -4
-3 -13 1 -19 9 -9 10 -5 13 19 14 17 0 28 -4 25 -9z m-195 -296 c5 -13 14 -23
20 -23 5 0 10 -13 10 -29 0 -16 6 -36 13 -43 34 -33 57 -118 33 -118 -17 0
-36 21 -36 41 0 9 -6 22 -14 28 -8 7 -18 26 -21 42 -4 16 -20 55 -36 88 -17
34 -27 66 -23 75 6 15 10 13 26 -11 11 -15 23 -38 28 -50z m-63 -710 c-3 -10
-5 -4 -5 12 0 17 2 24 5 18 2 -7 2 -21 0 -30z"/>
<path d="M1525 2340 c3 -5 8 -10 11 -10 2 0 4 5 4 10 0 6 -5 10 -11 10 -5 0
-7 -4 -4 -10z"/>
<path d="M1600 2341 c0 -5 7 -11 14 -14 10 -4 13 -1 9 9 -6 15 -23 19 -23 5z"/>
<path d="M853 2235 c0 -17 52 -22 61 -6 4 5 -2 7 -13 4 -10 -3 -22 0 -25 6
-10 16 -23 13 -23 -4z"/>
<path d="M854 2042 c-6 -4 -16 -17 -23 -29 -9 -18 -9 -23 1 -23 18 0 31 11 46
38 10 18 10 22 0 22 -7 0 -18 -4 -24 -8z"/>
<path d="M431 1994 c-11 -15 -20 -34 -20 -43 1 -13 2 -13 6 2 2 9 8 17 13 17
11 0 34 40 27 46 -3 3 -14 -7 -26 -22z"/>
<path d="M396 1913 c-6 -14 -5 -15 5 -6 7 7 10 15 7 18 -3 3 -9 -2 -12 -12z"/>
<path d="M322 1855 c-6 -14 -7 -25 -2 -25 9 0 25 39 18 46 -3 2 -10 -7 -16
-21z"/>
<path d="M1020 1798 c0 -7 -3 -23 -6 -35 -4 -13 -2 -23 4 -23 5 0 12 16 14 35
2 19 0 35 -4 35 -4 0 -8 -6 -8 -12z"/>
<path d="M1100 1721 c-25 -7 -25 -7 -4 -19 19 -10 23 -9 27 8 3 11 4 20 4 19
-1 -1 -13 -4 -27 -8z"/>
<path d="M1430 1660 c0 -5 5 -10 10 -10 6 0 10 5 10 10 0 6 -4 10 -10 10 -5 0
-10 -4 -10 -10z"/>
<path d="M2151 1134 c0 -11 3 -14 6 -6 3 7 2 16 -1 19 -3 4 -6 -2 -5 -13z"/>
<path d="M270 1111 c0 -11 4 -22 9 -25 4 -3 6 6 3 19 -5 30 -12 33 -12 6z"/>
<path d="M298 1055 c-8 -8 3 -55 13 -55 4 0 5 12 3 27 -6 31 -8 35 -16 28z"/>
<path d="M321 963 c-1 -17 57 -148 86 -195 27 -44 29 -58 8 -58 -8 0 -15 -3
-15 -7 0 -30 217 -253 248 -253 12 0 12 3 -4 18 -48 43 -96 114 -91 133 3 11
-10 50 -30 91 -22 47 -35 88 -37 121 -2 43 -6 52 -41 82 -22 19 -44 34 -48 35
-5 0 -15 7 -24 16 -9 8 -21 13 -29 10 -7 -3 -15 0 -18 7 -3 9 -5 9 -5 0z"/>
<path d="M1636 735 c-28 -25 -45 -51 -57 -90 -17 -57 -16 -65 11 -65 20 0 90
134 87 168 0 12 -1 22 -2 22 0 0 -18 -16 -39 -35z"/>
<path d="M660 436 c0 -2 8 -10 18 -17 15 -13 16 -12 3 4 -13 16 -21 21 -21 13z"/>
<path d="M747 369 c7 -7 15 -10 18 -7 3 3 -2 9 -12 12 -14 6 -15 5 -6 -5z"/>
</g>
</svg>
