<svg xmlns="http://www.w3.org/2000/svg" width="27.349" height="27.098" viewBox="0 0 27.349 27.098">
    <defs>
        <style>
            .cls-1{fill:#da291c}
        </style>
    </defs>
    <g id="ajustes" transform="translate(0 -2.249)">
        <path id="Unión_14" d="M12.866 26.989a1.429 1.429 0 0 1-.776-.776l-.352-.848a8.8 8.8 0 0 1-2.539 0l-.352.848a1.431 1.431 0 0 1-1.87.776L5.61 26.42a1.431 1.431 0 0 1-.776-1.87l.351-.848a8.706 8.706 0 0 1-1.8-1.8l-.848.352a1.431 1.431 0 0 1-1.87-.776l-.558-1.365a1.431 1.431 0 0 1 .776-1.87l.848-.352a8.8 8.8 0 0 1 0-2.539L.884 15a1.431 1.431 0 0 1-.776-1.87l.575-1.367a1.431 1.431 0 0 1 1.87-.776l.848.352a8.7 8.7 0 0 1 1.8-1.8l-.352-.848a1.431 1.431 0 0 1 .776-1.87l1.365-.559a1.431 1.431 0 0 1 .547-.112 1.452 1.452 0 0 1 .547.112 1.428 1.428 0 0 1 .776.776l.519 1.256a.552.552 0 1 1-1.021.418l-.52-1.256a.329.329 0 0 0-.43-.179l-1.367.564a.329.329 0 0 0-.179.43l.519 1.256a.555.555 0 0 1-.206.67 7.569 7.569 0 0 0-2.126 2.126.551.551 0 0 1-.67.2L2.123 12a.331.331 0 0 0-.43.179l-.568 1.371a.331.331 0 0 0 .179.43l1.256.519a.56.56 0 0 1 .329.62 7.657 7.657 0 0 0 0 3 .55.55 0 0 1-.329.62l-1.26.52a.329.329 0 0 0-.179.43l.564 1.367a.329.329 0 0 0 .43.179l1.256-.519a.555.555 0 0 1 .67.207 7.563 7.563 0 0 0 2.129 2.126.551.551 0 0 1 .2.67l-.519 1.256a.329.329 0 0 0 .179.43l1.367.569a.331.331 0 0 0 .43-.178l.519-1.256a.559.559 0 0 1 .619-.329 7.66 7.66 0 0 0 3 0 .544.544 0 0 1 .619.329l.519 1.256a.329.329 0 0 0 .43.178l1.367-.564a.333.333 0 0 0 .179-.43l-.519-1.256a.555.555 0 0 1 .207-.67 7.566 7.566 0 0 0 2.133-2.126.551.551 0 0 1 .67-.2l1.256.519a.326.326 0 0 0 .251 0 .329.329 0 0 0 .179-.179l.564-1.368a.331.331 0 0 0-.179-.43l-1.256-.519a.552.552 0 1 1 .415-1.021l1.256.519a1.431 1.431 0 0 1 .776 1.87l-.569 1.367a1.431 1.431 0 0 1-1.87.776l-.848-.352a8.711 8.711 0 0 1-1.8 1.8l.352.848a1.433 1.433 0 0 1-.776 1.87l-1.367.564a1.429 1.429 0 0 1-1.094 0zm-2.394-5.871a4.493 4.493 0 0 1-.028-8.985h.006a.553.553 0 0 1 .553.547.547.547 0 0 1-.547.558 3.39 3.39 0 0 0 .023 6.781h.021a3.392 3.392 0 0 0 3.366-3.419.547.547 0 0 1 .547-.558h.006a.553.553 0 0 1 .552.547 4.5 4.5 0 0 1-4.465 4.526zm8.248-4.939a1.2 1.2 0 0 1-1.194-1.194v-.553A6.328 6.328 0 0 1 16 13.8l-.391.391a1.168 1.168 0 0 1-.843.352 1.191 1.191 0 0 1-.843-.352l-.759-.759a1.168 1.168 0 0 1-.352-.843 1.191 1.191 0 0 1 .352-.843l.39-.391a6.334 6.334 0 0 1-.636-1.529h-.553a1.2 1.2 0 0 1-1.195-1.198V7.551a1.2 1.2 0 0 1 1.194-1.194h.553a6.334 6.334 0 0 1 .636-1.529l-.39-.391a1.168 1.168 0 0 1-.352-.843 1.191 1.191 0 0 1 .352-.843l.759-.759a1.168 1.168 0 0 1 .843-.352 1.191 1.191 0 0 1 .843.352l.392.391a6.329 6.329 0 0 1 1.529-.636v-.553A1.2 1.2 0 0 1 18.721 0H19.8a1.2 1.2 0 0 1 1.194 1.194v.552a6.33 6.33 0 0 1 1.529.636l.391-.391a1.169 1.169 0 0 1 .843-.352 1.191 1.191 0 0 1 .843.352l.759.759a1.2 1.2 0 0 1 0 1.685l-.391.391a6.329 6.329 0 0 1 .632 1.531h.553a1.2 1.2 0 0 1 1.194 1.194v1.077a1.2 1.2 0 0 1-1.194 1.194H25.6a6.329 6.329 0 0 1-.636 1.529l.391.391a1.2 1.2 0 0 1 0 1.685l-.759.759a1.168 1.168 0 0 1-.843.352 1.191 1.191 0 0 1-.843-.352l-.391-.391a6.33 6.33 0 0 1-1.529.636v.553a1.2 1.2 0 0 1-1.19 1.195zm-2.506-3.549a5.384 5.384 0 0 0 1.964.815.55.55 0 0 1 .446.541v.988a.088.088 0 0 0 .089.089h1.077a.088.088 0 0 0 .089-.089v-.988a.555.555 0 0 1 .446-.541 5.384 5.384 0 0 0 1.964-.815.549.549 0 0 1 .7.067l.7.709a.081.081 0 0 0 .123 0l.759-.759a.088.088 0 0 0 0-.123l-.7-.7a.556.556 0 0 1-.067-.7 5.385 5.385 0 0 0 .815-1.964.55.55 0 0 1 .541-.446h.988a.088.088 0 0 0 .089-.089V7.551a.088.088 0 0 0-.089-.089h-.988a.555.555 0 0 1-.541-.446 5.383 5.383 0 0 0-.819-1.965.549.549 0 0 1 .067-.7l.7-.7a.088.088 0 0 0 0-.123l-.759-.759a.082.082 0 0 0-.123 0l-.7.7a.549.549 0 0 1-.391.162.568.568 0 0 1-.307-.095 5.381 5.381 0 0 0-1.964-.815.55.55 0 0 1-.446-.541v-.986a.088.088 0 0 0-.089-.089h-1.073a.088.088 0 0 0-.089.089v.977a.555.555 0 0 1-.446.541 5.38 5.38 0 0 0-1.964.815.55.55 0 0 1-.7-.067l-.7-.7a.082.082 0 0 0-.123 0l-.759.759a.082.082 0 0 0 0 .123l.7.7a.556.556 0 0 1 .067.7A5.381 5.381 0 0 0 13.888 7a.55.55 0 0 1-.541.446h-.988a.088.088 0 0 0-.089.089v1.082a.088.088 0 0 0 .089.089h.988a.555.555 0 0 1 .541.446 5.382 5.382 0 0 0 .815 1.964.549.549 0 0 1-.067.7l-.7.7a.082.082 0 0 0 0 .123l.759.759a.081.081 0 0 0 .123 0l.7-.7a.557.557 0 0 1 .7-.067zm-.234-4.548a3.282 3.282 0 1 1 3.281 3.282 3.287 3.287 0 0 1-3.28-3.283zm1.1 0A2.176 2.176 0 1 0 19.257 5.9a2.179 2.179 0 0 0-2.177 2.181z" class="cls-1" data-name="Unión 14" transform="translate(0 2.249)"/>
    </g>
</svg>
