<svg xmlns="http://www.w3.org/2000/svg" width="24.556" height="22.453" viewBox="0 0 24.556 22.453">
    <defs>
        <style>
            .cls-1{fill:#fdfdfd}
        </style>
    </defs>
    <g id="carro-de-la-compra_1_" data-name="carro-de-la-compra (1)">
        <path id="Unión_1" d="M16.371 19.9a2.558 2.558 0 1 1 2.558 2.55 2.53 2.53 0 0 1-2.558-2.55zm1.023 0a1.536 1.536 0 1 0 1.536-1.533 1.572 1.572 0 0 0-1.537 1.533zm-11.254 0a2.557 2.557 0 1 1 2.56 2.553A2.529 2.529 0 0 1 6.14 19.9zm1.023 0A1.534 1.534 0 1 0 8.7 18.37a1.572 1.572 0 0 0-1.538 1.53zm1.944-3.57a3.6 3.6 0 0 1-3.48-2.86L3.173 1.02H.513A.483.483 0 0 1 0 .51.483.483 0 0 1 .513 0h3.068c.206 0 .513.2.513.409L4.6 3.063h19.446a.533.533 0 0 1 .409.2.507.507 0 0 1 .1.307l-2.045 8.168a.442.442 0 0 1-.409.409L7.162 14.186a2.359 2.359 0 0 0 2.046 1.124h11.665a.51.51 0 0 1 0 1.02zM6.65 13.166l14.939-1.938 1.738-7.247H4.81z" class="cls-1" data-name="Unión 1"/>
    </g>
</svg>
