<svg xmlns="http://www.w3.org/2000/svg" width="18.666" height="21.381" viewBox="0 0 18.666 21.381"><defs><style>.cls-1{fill:#da291c}</style></defs><g id="controles" transform="rotate(90 9.332 9.332)"><path id="Unión_10" d="M9.1 17.032V8.565a3.213 3.213 0 0 1 0-5.589V1.633a1.633 1.633 0 0 1 3.266 0v1.395a3.214 3.214 0 0 1 0 5.483v2.925a.423.423 0 0 1-.845 0v-2.56a3.222 3.222 0 0 1-1.574.024v8.134a.788.788 0 1 0 1.576 0V14.8a.423.423 0 0 1 .845 0v2.237a1.633 1.633 0 1 1-3.266 0zM8.32 5.77a2.371 2.371 0 1 0 2.37-2.37 2.373 2.373 0 0 0-2.37 2.37zm3.2-3.106V1.633a.788.788 0 1 0-1.576 0v1.009a3.223 3.223 0 0 1 1.576.022zm5.06 14.368v-1.117a3.213 3.213 0 0 1 0-5.593V1.633a1.633 1.633 0 1 1 3.266 0v8.746a3.213 3.213 0 0 1 0 5.48v1.173a1.633 1.633 0 1 1-3.266 0zm.845 0a.788.788 0 1 0 1.576 0v-.808a3.225 3.225 0 0 1-1.576.024zm-1.631-3.913a2.371 2.371 0 1 0 2.371-2.371 2.374 2.374 0 0 0-2.371 2.371zM19 10.014V1.633a.788.788 0 1 0-1.576 0V9.99a3.22 3.22 0 0 1 1.576.024zM1.631 17.032v-4.9a3.213 3.213 0 0 1 0-5.593v-4.9a1.633 1.633 0 0 1 3.266 0v4.953a3.214 3.214 0 0 1 0 5.48v4.959a1.633 1.633 0 1 1-3.266 0zm.845 0a.788.788 0 1 0 1.576 0v-4.594a3.225 3.225 0 0 1-1.576.024zM.845 9.333a2.371 2.371 0 1 0 2.371-2.371A2.373 2.373 0 0 0 .845 9.333zm3.207-3.105V1.633a.788.788 0 1 0-1.576 0V6.2a3.22 3.22 0 0 1 1.576.024zm7.9 7.312a.422.422 0 1 1 .421-.431.425.425 0 0 1-.421.431z" class="cls-1" data-name="Unión 10" transform="translate(0 -.002)"/></g></svg>
