<svg xmlns="http://www.w3.org/2000/svg" width="41.623" height="24.449" viewBox="0 0 41.623 24.449">
    <defs>
        <style>
            .cls-1{fill:#737373}
        </style>
    </defs>
    <g id="cupon">
        <path id="Unión_12" d="M14.78 24.449a.816.816 0 0 1 0-1.633h14.894v-1.633a.817.817 0 0 1 1.635 0v1.633h8.682v-3.954a6.688 6.688 0 0 1 0-13.275V1.633h-8.682v1.633a.817.817 0 0 1-1.635 0V1.633H1.633v3.954a6.687 6.687 0 0 1 0 13.275v3.954h6.443a.816.816 0 1 1 0 1.633H.818A.817.817 0 0 1 0 23.632v-5.537a.817.817 0 0 1 .818-.816 5.054 5.054 0 0 0 0-10.108A.817.817 0 0 1 0 6.354V.816A.817.817 0 0 1 .818 0h39.989a.816.816 0 0 1 .816.816v5.538a.815.815 0 0 1-.816.816 5.054 5.054 0 0 0 0 10.108.816.816 0 0 1 .816.816v5.537a.816.816 0 0 1-.816.816zm-3.887-.2a.817.817 0 1 1 .935.073.811.811 0 0 1-.413.112.824.824 0 0 1-.522-.181zm9.288-5.947a3.207 3.207 0 1 1 2.266.937 3.206 3.206 0 0 1-2.267-.933zm1.155-3.378a1.571 1.571 0 1 0 1.111-.46 1.572 1.572 0 0 0-1.111.464zm-7.441 2.3a.822.822 0 0 1 .049-1.1l8.5-8.5A.817.817 0 0 1 23.6 8.779l-8.5 8.5a.825.825 0 0 1-1.2-.053zm15.779-2.019V9.238a.817.817 0 0 1 1.635 0v5.973a.817.817 0 0 1-1.635 0zm-16.821-4.138a3.21 3.21 0 1 1 2.266.933 3.188 3.188 0 0 1-2.266-.933zm1.155-3.378a1.573 1.573 0 1 0 1.111-.46 1.564 1.564 0 0 0-1.111.46z" class="cls-1" data-name="Unión 12"/>
    </g>
</svg>
