<svg xmlns="http://www.w3.org/2000/svg" width="21.89" height="22.813" viewBox="0 0 21.89 22.813">
    <defs>
        <style>
            .cls-1{fill:#da291c}
        </style>
    </defs>
    <g id="descuento">
        <path id="Unión_7" d="M9.562 22.251L8.17 20.9a.669.669 0 0 0-.562-.183l-1.918.272a2.1 2.1 0 0 1-.285.02 1.979 1.979 0 0 1-1.952-1.645l-.335-1.909a.668.668 0 0 0-.347-.478l-1.712-.908A1.981 1.981 0 0 1 .2 13.443l.855-1.743a.669.669 0 0 0 0-.591L.2 9.371a1.98 1.98 0 0 1 .854-2.63l1.716-.908a.669.669 0 0 0 .347-.478l.335-1.908A1.98 1.98 0 0 1 5.69 1.821l1.918.271a.668.668 0 0 0 .562-.182L9.562.562a1.981 1.981 0 0 1 2.766 0l1.392 1.347a.667.667 0 0 0 .562.183l1.918-.271a1.979 1.979 0 0 1 2.237 1.625l.335 1.908a.666.666 0 0 0 .347.478l1.712.909a1.98 1.98 0 0 1 .854 2.63l-.851 1.741a.669.669 0 0 0 0 .591l.851 1.741a1.981 1.981 0 0 1-.854 2.63l-1.712.908a.668.668 0 0 0-.347.478l-.335 1.908a1.98 1.98 0 0 1-2.237 1.625l-1.918-.272a.669.669 0 0 0-.562.183l-1.392 1.347a1.981 1.981 0 0 1-2.766 0zm-.478-2.293l1.392 1.347a.671.671 0 0 0 .936 0l1.392-1.347a1.974 1.974 0 0 1 1.661-.54l1.918.272a.67.67 0 0 0 .757-.55l.335-1.908a1.977 1.977 0 0 1 1.025-1.413l1.712-.909a.67.67 0 0 0 .289-.89l-.851-1.741a1.973 1.973 0 0 1 0-1.746l.85-1.74a.67.67 0 0 0-.289-.89L18.5 7a1.975 1.975 0 0 1-1.026-1.413l-.335-1.909a.67.67 0 0 0-.757-.549l-1.918.271a1.976 1.976 0 0 1-1.661-.54l-1.391-1.352a.67.67 0 0 0-.935 0L9.085 2.855a1.975 1.975 0 0 1-1.661.54l-1.919-.271a.67.67 0 0 0-.757.549l-.334 1.909A1.978 1.978 0 0 1 3.387 7l-1.711.9a.67.67 0 0 0-.29.89l.851 1.741a1.979 1.979 0 0 1 0 1.747l-.851 1.741a.67.67 0 0 0 .29.889l1.712.909a1.977 1.977 0 0 1 1.026 1.413l.335 1.908a.67.67 0 0 0 .757.55l1.918-.272a2.058 2.058 0 0 1 .283-.02 1.972 1.972 0 0 1 1.378.562zm2.08-5.042a2.412 2.412 0 1 1 2.412 2.412 2.415 2.415 0 0 1-2.412-2.412zm1.316 0a1.1 1.1 0 1 0 1.1-1.1 1.1 1.1 0 0 0-1.1 1.1zm-6.343 1.3a.658.658 0 0 1 0-.93L14.822 6.6a.658.658 0 1 1 .93.931l-8.684 8.683a.657.657 0 0 1-.931 0zM5.9 7.9a2.412 2.412 0 1 1 2.413 2.41A2.415 2.415 0 0 1 5.9 7.9zm1.316 0a1.1 1.1 0 1 0 1.1-1.1 1.1 1.1 0 0 0-1.099 1.1z" class="cls-1" data-name="Unión 7"/>
    </g>
</svg>
