<svg xmlns="http://www.w3.org/2000/svg" width="21.563" height="21.543" viewBox="0 0 21.563 21.543">
    <defs>
        <style>
            .cls-1{fill:#da291c}
        </style>
    </defs>
    <g id="ubicacion">
        <path id="Unión_4" d="M5.861 20.348A10.793 10.793 0 0 1 1.079 6.05c0-.009.008-.018.013-.027a10.815 10.815 0 0 1 .966-1.592 3.418 3.418 0 0 1-.282-1.193A3.234 3.234 0 0 1 7 .684a10.542 10.542 0 0 1 3.514-.676C10.584 0 10.677 0 10.77 0a10.813 10.813 0 0 1 6.28 2.025c.008 0 .015 0 .024.011s.013.016.022.023c.165.119.331.236.489.365A10.76 10.76 0 0 1 21.5 9.668l.028.079a.36.36 0 0 1 .018.112.347.347 0 0 1-.021.105c.022.275.036.552.036.83 0 .177 0 .354-.015.528a10.625 10.625 0 0 1-1.276 4.594 10.787 10.787 0 0 1-14.41 4.433zm3.113-6.316a2.471 2.471 0 0 1 1.7.839 2.853 2.853 0 0 1 .385 3.326 1.793 1.793 0 0 1-.858.63.992.992 0 0 0-.565.425 1.531 1.531 0 0 0 .011 1.448 1.274 1.274 0 0 0 .082.118 10.15 10.15 0 0 0 1.041.054 10.057 10.057 0 0 0 8.7-5.011 4.727 4.727 0 0 0-1.249-.57 29.908 29.908 0 0 1-2.129 3.279.36.36 0 0 1-.576 0c-.035-.047-.787-1.046-1.528-2.242-.158.187-.29.374-.41.547-.271.391-.529.763-.951.763a.745.745 0 0 1-.117-.009c-.6-.086-.843-.829-1.007-1.321a4.359 4.359 0 0 1-.187-1.865 1.293 1.293 0 0 0-.125-.919c-.279-.391-.869-.474-1.552-.571a4.425 4.425 0 0 0-1.588.076 1.817 1.817 0 0 1-1.43-.129 2.051 2.051 0 0 1-.871-2.22c.216-.643.779-.827 1.433-1.041a6.2 6.2 0 0 0 1.932-.933c.446-.328 1.624-1.2 1.655-2.24a1.765 1.765 0 0 0-.57-1.215 3.751 3.751 0 0 1-.864-1.574A4.149 4.149 0 0 1 9.874.763a9.824 9.824 0 0 0-2.312.479c.013.015.024.032.036.048.023.031.046.063.068.1q.056.082.108.168c.019.032.039.063.057.1.041.072.077.146.113.221l.026.052c.041.093.078.188.11.285l.026.086q.033.108.058.216l.022.1c.015.072.027.144.036.216 0 .032.009.064.012.1.01.1.017.208.017.313C8.251 4.9 5.6 8.452 5.3 8.853a.359.359 0 0 1-.575 0l-.063-.085-.026-.036-.044-.06-.047-.063-.057-.079-.059-.081-.072-.1-.066-.093-.081-.114-.079-.113-.086-.124-.092-.135-.085-.125-.118-.175-.072-.108q-.1-.146-.2-.3L3.441 7l-.159-.252-.072-.12c-.043-.069-.086-.137-.128-.209L3 6.286l-.121-.2-.079-.14-.115-.2-.073-.146-.112-.2a4.51 4.51 0 0 1-.072-.137l-.036-.072a10.092 10.092 0 0 0-.652 1.13 10.345 10.345 0 0 0 .027 3.7A6.856 6.856 0 0 0 3.128 13.8a3.178 3.178 0 0 0 1.925 1.315 5.654 5.654 0 0 0 2.679-.684l.154-.078a2.18 2.18 0 0 1 1.072-.319zM.7 10.793a10.089 10.089 0 0 0 8.17 9.889 2.222 2.222 0 0 1 .155-1.8 1.681 1.681 0 0 1 .9-.72 1.1 1.1 0 0 0 .553-.384 2.128 2.128 0 0 0-.333-2.428 1.774 1.774 0 0 0-1.177-.6 1.582 1.582 0 0 0-.752.241l-.163.082a6.476 6.476 0 0 1-3.077.756 3.82 3.82 0 0 1-2.393-1.564 7.511 7.511 0 0 1-1.523-4.137C1 9.742.937 9.3.9 8.8a10.185 10.185 0 0 0-.2 1.993zm12.592 2.159a3 3 0 0 0 .3 1.1 13.3 13.3 0 0 0 .777 1.5c.521.88 1.1 1.717 1.442 2.189a26.815 26.815 0 0 0 1.91-3.041 4.289 4.289 0 0 0 .6-1.746 2.523 2.523 0 0 0-2.287-2.508q-.115-.011-.232-.011a2.521 2.521 0 0 0-2.514 2.517zm-3.55-.716a2.78 2.78 0 0 1 2.042.866 1.924 1.924 0 0 1 .257 1.388 3.691 3.691 0 0 0 .151 1.585c.226.673.36.827.432.838a1.873 1.873 0 0 0 .37-.453 6.628 6.628 0 0 1 .616-.786 13.273 13.273 0 0 1-.681-1.34 3.7 3.7 0 0 1-.356-1.383 3.215 3.215 0 0 1 3.656-3.209c.058.008.117.013.174.024.095.018.189.039.282.066l.1.036c.059.019.118.036.175.058.083.033.165.069.246.108l.023.01a3.251 3.251 0 0 1 1.812 2.908 4.262 4.262 0 0 1-.49 1.681 5.472 5.472 0 0 1 1.263.589 9.911 9.911 0 0 0 1.013-3.938 7.42 7.42 0 0 0 .014-.49c0-.324-.018-.642-.048-.96a2.946 2.946 0 0 0-.893-1.276 4.009 4.009 0 0 0-1.3-.658 2.714 2.714 0 0 0-1.277 0 3.767 3.767 0 0 1-1.589.007 3.315 3.315 0 0 1-2.387-1.24 2.665 2.665 0 0 1 .448-3.356 1.509 1.509 0 0 1 1.069-.275 1.611 1.611 0 0 0 .8-.125 2.161 2.161 0 0 0 .679-.508A10.1 10.1 0 0 0 10.77.72h-.041a3.782 3.782 0 0 0-.688 2.8 3.112 3.112 0 0 0 .722 1.28 2.419 2.419 0 0 1 .726 1.686c-.042 1.392-1.424 2.413-1.948 2.8A6.906 6.906 0 0 1 7.4 10.323c-.587.193-.875.3-.971.585A1.363 1.363 0 0 0 7 12.286c.244.152.458.119.918.031a5.069 5.069 0 0 1 1.82-.082zm9.036-5.029a4.741 4.741 0 0 1 1.571.785c.048.037.09.084.136.125a10.06 10.06 0 0 0-3.349-5.136c-.067-.054-.138-.1-.206-.154a2.891 2.891 0 0 1-.971.74 2.3 2.3 0 0 1-1.115.188.821.821 0 0 0-.616.131 1.96 1.96 0 0 0-.271 2.4c.36.576 1.04.724 1.9.912a3.11 3.11 0 0 0 1.343-.007 3.381 3.381 0 0 1 1.577.016zM2.5 3.238a3 3 0 0 0 .3 1.1 22.608 22.608 0 0 0 2.214 3.689c.9-1.249 2.518-3.713 2.518-4.789a2.518 2.518 0 1 0-5.037 0zm11.872 9.354a1.439 1.439 0 1 1 1.439 1.439 1.439 1.439 0 0 1-1.444-1.439zm.72 0a.72.72 0 1 0 .72-.72.72.72 0 0 0-.725.72zM3.574 2.879a1.439 1.439 0 1 1 1.44 1.439 1.439 1.439 0 0 1-1.44-1.439zm.72 0a.72.72 0 1 0 .72-.72.72.72 0 0 0-.72.72z" class="cls-1" data-name="Unión 4"/>
    </g>
</svg>
