<svg xmlns="http://www.w3.org/2000/svg" id="facebook-logo_1_" width="12.437" height="23.743" data-name="facebook-logo (1)" viewBox="0 0 12.437 23.743">
    <defs>
        <style>
            .cls-1{fill:#fff}
        </style>
    </defs>
    <g id="Grupo_31" data-name="Grupo 31">
        <path id="Trazado_85" d="M34.046 0h-2.983c-3.351 0-5.517 2.293-5.517 5.843v2.694h-3a.477.477 0 0 0-.469.484v3.9a.477.477 0 0 0 .469.484h3v9.85a.477.477 0 0 0 .469.484h3.913a.477.477 0 0 0 .469-.484v-9.85H33.9a.477.477 0 0 0 .469-.484v-3.9a.493.493 0 0 0-.137-.342.462.462 0 0 0-.332-.142h-3.5V6.254c0-1.1.253-1.655 1.639-1.655h2.01a.477.477 0 0 0 .469-.484V.489A.477.477 0 0 0 34.046 0z" class="cls-1" data-name="Trazado 85" transform="translate(-22.077)"/>
    </g>
</svg>
