<svg xmlns="http://www.w3.org/2000/svg" width="11.973" height="22.145" viewBox="0 0 11.973 22.145"><defs><style>.cls-1{fill:#000000}</style></defs><g id="facebook-logo"><g id="Grupo_1" data-name="Grupo 1"><path id="Trazado_4" d="M259.57 0h-2.87c-3.226 0-5.311 2.139-5.311 5.45v2.513H248.5a.452.452 0 0 0-.452.452v3.641a.452.452 0 0 0 .452.452h2.887v9.187a.451.451 0 0 0 .452.452h3.767a.452.452 0 0 0 .452-.452v-9.189h3.376a.451.451 0 0 0 .452-.452v-3.64a.452.452 0 0 0-.452-.452h-3.377v-2.13c0-1.024.244-1.544 1.578-1.544h1.934a.451.451 0 0 0 .451-.452V.456a.452.452 0 0 0-.45-.456z" class="cls-1" data-name="Trazado 4" transform="translate(-248.048)"/></g></g></svg>
