<svg xmlns="http://www.w3.org/2000/svg" width="20.408" height="27.209" viewBox="0 0 20.408 27.209">
    <defs>
        <style>
            .cls-1{fill:#da291c}
        </style>
    </defs>
    <g id="factura" transform="translate(-63.998)">
        <path id="Unión_24" d="M2.268 27.209A2.27 2.27 0 0 1 0 24.942V2.268A2.27 2.27 0 0 1 2.268 0h11.9a.567.567 0 0 1 .4.166l5.669 5.669a.568.568 0 0 1 .166.4v18.707a2.27 2.27 0 0 1-2.267 2.267zM1.134 2.268v22.674a1.135 1.135 0 0 0 1.134 1.134H18.14a1.135 1.135 0 0 0 1.134-1.134V6.8h-3.4A2.27 2.27 0 0 1 13.6 4.535v-3.4H2.268a1.135 1.135 0 0 0-1.134 1.133zm13.6 2.267a1.135 1.135 0 0 0 1.134 1.134h2.6l-3.729-3.734zM3.968 23.808a.567.567 0 1 1 0-1.134h6.8a.567.567 0 1 1 0 1.134zm0-3.4a.567.567 0 1 1 0-1.134h12.471a.567.567 0 1 1 0 1.134zm0-3.4a.567.567 0 1 1 0-1.134h12.471a.567.567 0 1 1 0 1.134zm0-3.4a.567.567 0 1 1 0-1.134h12.471a.567.567 0 1 1 0 1.134zm.567-3.4h-.567a.567.567 0 1 1 0-1.134H5.1a.567.567 0 1 0 0-1.134 1.7 1.7 0 0 1-.567-3.3v-.1a.567.567 0 0 1 1.134 0h.567a.567.567 0 0 1 0 1.134H5.1a.567.567 0 0 0 0 1.126 1.7 1.7 0 0 1 .567 3.3v.1a.567.567 0 1 1-1.134 0zm5.1 0a.567.567 0 0 1 0-1.134h6.8a.567.567 0 1 1 0 1.134z" class="cls-1" data-name="Unión 24" transform="translate(63.998)"/>
    </g>
</svg>
