<svg xmlns="http://www.w3.org/2000/svg" id="instagram" width="23.004" height="23.743" viewBox="0 0 23.004 23.743">
    <defs>
        <style>
            .cls-1{fill:#fff}
        </style>
    </defs>
    <g id="Grupo_32" data-name="Grupo 32">
        <path id="Trazado_86" d="M11.5 7.049a4.8 4.8 0 0 0-4.718 4.869 4.8 4.8 0 0 0 4.718 4.869 4.8 4.8 0 0 0 4.718-4.869A4.8 4.8 0 0 0 11.5 7.049zm0 0a4.8 4.8 0 0 0-4.718 4.869 4.8 4.8 0 0 0 4.718 4.869 4.8 4.8 0 0 0 4.718-4.869A4.8 4.8 0 0 0 11.5 7.049zM19.634 0H3.37A3.426 3.426 0 0 0 0 3.478v16.787a3.426 3.426 0 0 0 3.37 3.478h16.264A3.426 3.426 0 0 0 23 20.265V3.478A3.426 3.426 0 0 0 19.634 0zM11.5 18.179a6.175 6.175 0 0 1-6.065-6.26A6.175 6.175 0 0 1 11.5 5.658a6.175 6.175 0 0 1 6.065 6.26 6.175 6.175 0 0 1-6.065 6.261zm7.415-12.521a1.392 1.392 0 1 1 1.348-1.391 1.374 1.374 0 0 1-1.348 1.391zM11.5 7.049a4.8 4.8 0 0 0-4.718 4.869 4.8 4.8 0 0 0 4.718 4.869 4.8 4.8 0 0 0 4.718-4.869A4.8 4.8 0 0 0 11.5 7.049zm0 0a4.8 4.8 0 0 0-4.718 4.869 4.8 4.8 0 0 0 4.718 4.869 4.8 4.8 0 0 0 4.718-4.869A4.8 4.8 0 0 0 11.5 7.049zm0 0a4.8 4.8 0 0 0-4.718 4.869 4.8 4.8 0 0 0 4.718 4.869 4.8 4.8 0 0 0 4.718-4.869A4.8 4.8 0 0 0 11.5 7.049z" class="cls-1" data-name="Trazado 86"/>
    </g>
</svg>
