<svg xmlns="http://www.w3.org/2000/svg" width="22.37" height="21.942" viewBox="0 0 22.37 21.942">
    <defs>
        <style>
            .cls-1{fill:#da291c}
        </style>
    </defs>
    <g id="Origen">
        <path id="Unión_3" d="M0 21.942l4.005-8.411h2.748l-1.122-1.62a7.988 7.988 0 0 1 .66-9.857 7.013 7.013 0 0 1 9.918 0 7.99 7.99 0 0 1 .651 9.868l-1.114 1.609h2.619l4.005 8.411zm1.159-.731h20.052L17.9 14.262h-2.661l-3.99 5.762-3.99-5.762H4.467zm5.65-18.64a7.217 7.217 0 0 0-.584 8.912l1.418 2.048 3.607 5.209 5.018-7.246a7.22 7.22 0 0 0-.575-8.923 6.282 6.282 0 0 0-8.884 0zm1.945 4.377a2.56 2.56 0 1 1 2.56 2.56 2.563 2.563 0 0 1-2.56-2.56zm.731 0a1.829 1.829 0 1 0 1.829-1.828 1.831 1.831 0 0 0-1.828 1.828z" class="cls-1" data-name="Unión 3"/>
    </g>
</svg>
