<svg xmlns="http://www.w3.org/2000/svg" id="pasajero" width="19.963" height="22.388" viewBox="0 0 19.963 22.388"><path id="Unión_6" d="M7.175 22.388a.437.437 0 0 1-.4-.605l1.5-3.59H6.138a2.058 2.058 0 0 1-1.46-.615l-.062-.066L3.6 21.4a1.315 1.315 0 0 1-1.272.983H1.315a1.315 1.315 0 0 1-1.272-1.642l.73-2.8a.437.437 0 1 1 .846.22l-.73 2.8a.44.44 0 0 0 .426.551h1.016a.44.44 0 0 0 .426-.329l1.343-5.14a.44.44 0 0 1 .022-.062 2.013 2.013 0 0 1 1.99-1.792h6.216a1.317 1.317 0 0 0 1.284-1.046l1.1-5.29v-.01a1.909 1.909 0 1 0-3.738-.775l-.1.479.437-.44a.437.437 0 1 1 .62.617l-2.5 2.517a.437.437 0 0 1-.31.129h-3.6a.54.54 0 0 0 0 1.081h4.561l2.085-2.107a.437.437 0 1 1 .621.615L10.575 12.2a.437.437 0 0 1-.311.13H3.859a.931.931 0 0 0-.9.7L2.442 15a.437.437 0 0 1-.846-.22l.516-1.98a1.806 1.806 0 0 1 1.747-1.351h.354A1.414 1.414 0 0 1 5.521 9.5h3.413l.82-.825.357-1.777a2.767 2.767 0 0 1 1.2-1.764 2.8 2.8 0 0 1 .524-.27 2.522 2.522 0 0 1-.8-1.846v-.38a2.529 2.529 0 0 1 4.925-.813L16 1.6a2 2 0 1 1 3.919.812l-1.3 6.269a.437.437 0 0 1-.856-.177l1.3-6.269a1.127 1.127 0 1 0-2.207-.457l-2.392 11.543a2.195 2.195 0 0 1-2.141 1.743H6.107a1.132 1.132 0 0 0-1.127 1.1 1.1 1.1 0 0 0 .322.8 1.178 1.178 0 0 0 .835.353h8.882a1.131 1.131 0 0 0 1.1-.9l.957-4.619a.437.437 0 0 1 .856.177L16.98 16.6a2.009 2.009 0 0 1-1.96 1.6h-2.191l1.5 3.59a.437.437 0 0 1-.4.605zm.656-.875h5.434l-1.383-3.321H9.214zm6.783-16.2a2.782 2.782 0 0 1 .5.549l.217-1.047a2.539 2.539 0 0 1-.718.498zM11.9 2.634v.381a1.655 1.655 0 0 0 3.31 0v-.381a1.655 1.655 0 0 0-3.31 0zM1.315 16.715a.437.437 0 1 1 .309.128.44.44 0 0 1-.309-.128zm16.241-6.236a.437.437 0 1 1 .309.128.439.439 0 0 1-.308-.128z" class="cls-1" data-name="Unión 6"/></svg>
