<svg xmlns="http://www.w3.org/2000/svg" width="20" height="20" viewBox="0 0 20 20"><g class="nc-icon-wrapper" fill="#da291c"><g id="Page-1" stroke="none" stroke-width="1" fill="none" fill-rule="evenodd"><g id="Dribbble-Light-Preview" transform="translate(-340 -1279)" fill="#da291c"><g id="icons" transform="translate(56 160)"><path d="M303.714 1125.149l-5.455-5.785c-.189-.199-.456-.363-.73-.363h-11.55c-1.105 0-1.979 1-1.979 2.104v7c0 .552.437.896.99.896h.004c.553 0 1.006-.344 1.006-.896v-6c0-.552.427-1.104.98-1.104H296v4.104c0 1.105.874 1.896 1.98 1.896H302v1.104c0 .552.437.896.99.896h.004c.553 0 1.006-.344 1.006-.896v-2.267c0-.257-.109-.503-.286-.689zm-15.735 8.956a1 1 0 0 0-1-1h-1v2h1a1 1 0 0 0 1-1zm1.996-.266a3.002 3.002 0 0 1-2.996 3.162H286v1.104c0 .552-.453.896-1.006.896h-.005c-.552 0-.989-.344-.989-.896v-6c0-.552.427-1.104.98-1.104h1.83c1.624 0 3.08 1.216 3.165 2.838zm5.025.266c0-.552-.469-1.104-1.02-1.104H293v4h.98c.551 0 1.02-.344 1.02-.896v-2zm2-.104v2c0 1.65-1.35 3-3 3h-2.105a.895.895 0 0 1-.895-.896v-6.125c0-.541.438-.979.98-.979H294c1.65 0 3 1.35 3 3zm7-1.974v.026c0 .552-.469.948-1.02.948H300v2h2.98a1.04 1.04 0 0 1 1.02 1.026v.026c0 .552-.469.948-1.02.948H300v1.104c0 .552-.453.896-1.006.896h-.005c-.552 0-.989-.344-.989-.896v-6c0-.552.427-1.104.98-1.104h4a1.04 1.04 0 0 1 1.02 1.026z" id="file_pdf-[#1754]"/></g></g></g></g></svg>