<svg xmlns="http://www.w3.org/2000/svg" width="28.299" height="29.713" viewBox="0 0 28.299 29.713">
    <defs>
        <style>
            .cls-1{fill:#fff}
        </style>
    </defs>
    <g id="editar" transform="translate(2446 374.455)">
        <path id="Trazado_179" d="M26.466 1.951a6.033 6.033 0 0 0-8.833 0l-16.2 17a.868.868 0 0 0-.229.488l-1.2 9.333a.874.874 0 0 0 .229.715.8.8 0 0 0 .573.253.625.625 0 0 0 .109-.006l5.354-.76a.849.849 0 0 0 .7-.962.823.823 0 0 0-.916-.734l-4.293.608.84-6.509 6.524 6.851a.8.8 0 0 0 .573.253.78.78 0 0 0 .573-.253l16.2-17a6.687 6.687 0 0 0 1.83-4.642 6.661 6.661 0 0 0-1.834-4.635zm-8.52 2.089l2.719 2.86L5.887 22.415 3.168 19.56zM9.7 26.417l-2.655-2.792L21.823 8.106l2.659 2.794zM25.616 9.676L19.11 2.844a4.468 4.468 0 0 1 6.21.31 4.926 4.926 0 0 1 1.351 3.432 4.973 4.973 0 0 1-1.055 3.09z" class="cls-1" data-name="Trazado 179" transform="translate(-2446 -374.483)"/>
    </g>
</svg>
