<svg xmlns="http://www.w3.org/2000/svg" width="40" height="33.214" viewBox="0 0 40 33.214">
    <defs>
        <style>
            .cls-1{fill:#da291c}
        </style>
    </defs>
    <g id="impresora" transform="translate(-57.002 -333.431)">
        <path id="Unión_25" d="M17557.135-5969.355a.848.848 0 0 1-.848-.848v-8.166h-7.469a2.82 2.82 0 0 1-2.816-2.817v-13.5a2.82 2.82 0 0 1 2.816-2.817h7.469v-4.214a.847.847 0 0 1 .848-.848h17.732a.849.849 0 0 1 .85.848v4.214h7.467a2.821 2.821 0 0 1 2.818 2.817v13.5a2.821 2.821 0 0 1-2.818 2.817h-7.467v8.166a.849.849 0 0 1-.85.848zm.848-1.7h16.037v-11.17h-16.037zm17.734-9.014h7.467a1.122 1.122 0 0 0 1.121-1.121v-13.5a1.122 1.122 0 0 0-1.121-1.121h-3.748v3.222a.848.848 0 0 1-.848.848h-25.172a.849.849 0 0 1-.85-.848v-3.222h-3.748a1.123 1.123 0 0 0-1.121 1.121v13.5a1.123 1.123 0 0 0 1.121 1.121h7.469v-2.157h-1.549a.849.849 0 0 1-.848-.848.849.849 0 0 1 .848-.848h22.525a.848.848 0 0 1 .848.848.847.847 0 0 1-.848.848h-1.547zm0-13.372h2.023v-2.374h-2.023zm-17.734 0h16.037v-7.437h-16.037zm-3.719 0h2.023v-2.374h-2.023zm7.531 19.363a.849.849 0 0 1-.848-.848.849.849 0 0 1 .848-.849h3.961a.848.848 0 0 1 .848.849.848.848 0 0 1-.848.848zm0-4.295a.849.849 0 0 1-.848-.848.849.849 0 0 1 .848-.848h8.412a.848.848 0 0 1 .848.848.848.848 0 0 1-.848.848zm-11.48-10.464a1.062 1.062 0 0 1 1.063-1.062 1.063 1.063 0 0 1 1.063 1.063 1.063 1.063 0 0 1-1.062 1.063 1.062 1.062 0 0 1-1.065-1.06z" class="cls-1" data-name="Unión 25" transform="translate(-17489.002 6336)"/>
    </g>
</svg>
