<svg xmlns="http://www.w3.org/2000/svg" width="32.064" height="32.042" viewBox="0 0 32.064 32.042">
    <defs>
        <style>
            .cls-1{fill:#737373}
        </style>
    </defs>
    <path id="caja-de-regalo" d="M31.57 6.907h-2.611a2.7 2.7 0 0 0 .333-2.516L28.5 2.266a2.71 2.71 0 0 0-3.7-1.5l-6.264 2.969a1.88 1.88 0 0 0-1.1-.352h-2.811a1.881 1.881 0 0 0-1.1.352L7.267.762a2.711 2.711 0 0 0-3.7 1.5l-.794 2.13a2.717 2.717 0 0 0 .127 2.18 2.669 2.669 0 0 0 .2.335H.5A.5.5 0 0 0 0 7.4v3.563a.495.495 0 1 0 .99 0V7.9h3.437c.055.019.111.037.167.053l4.155 1.14a33.057 33.057 0 0 0-2.435 4.445H.99v-.594a.495.495 0 0 0-.99 0v1.089a.5.5 0 0 0 .495.495H2.26v17.52a.5.5 0 0 0 .495.495H29.31a.5.5 0 0 0 .495-.495v-2.874a.495.495 0 1 0-.99 0v2.379H19V14.832a26.5 26.5 0 0 1 2.787 8.525.5.5 0 0 0 .367.408.488.488 0 0 0 .123.015.5.5 0 0 0 .4-.2 27.592 27.592 0 0 0 1.97-3.009 28.2 28.2 0 0 1 2.892 2.262.495.495 0 0 0 .819-.441 33.191 33.191 0 0 0-2.176-7.867h2.636v12.67a.495.495 0 0 0 .99 0V14.528h1.762a.5.5 0 0 0 .495-.495V7.4a.494.494 0 0 0-.495-.495zm-6.348-5.251a1.721 1.721 0 0 1 2.351.955l.791 2.126A1.721 1.721 0 0 1 27.208 7L19.33 9.164V6.786c1.771-1.084 6.185-3.32 7.283-1.77a.495.495 0 1 0 .808-.572c-.848-1.2-2.635-1.255-5.311-.173a23.571 23.571 0 0 0-2.78 1.367v-.365a1.881 1.881 0 0 0-.154-.747zm-10.6 2.717h2.818a.9.9 0 0 1 .9.9v4.09a.9.9 0 0 1-.9.9h-2.815a.9.9 0 0 1-.9-.9v-4.09a.9.9 0 0 1 .9-.9zm-.832 9.165a26.394 26.394 0 0 1 1.543-2.284h1.392a26.283 26.283 0 0 1 1.543 2.284zM3.782 6.121A1.7 1.7 0 0 1 3.7 4.737l.792-2.127a1.72 1.72 0 0 1 2.351-.955l6.046 2.872a1.879 1.879 0 0 0-.154.746v.393a23.653 23.653 0 0 0-2.829-1.4c-2.676-1.077-4.463-1.019-5.311.178a.495.495 0 1 0 .808.572c1.109-1.565 5.6.728 7.332 1.8v2.348L4.857 7a1.7 1.7 0 0 1-1.075-.875zm9.174 4.131a1.9 1.9 0 0 0 1.195.942A27.532 27.532 0 0 0 9.5 22.033a27.079 27.079 0 0 1-1.467-2.4.495.495 0 0 0-.706-.179 28.668 28.668 0 0 0-2.411 1.76A32.331 32.331 0 0 1 9.752 9.37zM3.25 14.528h2.636A33.2 33.2 0 0 0 3.71 22.4a.495.495 0 0 0 .819.441 28.18 28.18 0 0 1 2.893-2.262 27.581 27.581 0 0 0 1.97 3.009.5.5 0 0 0 .4.2.488.488 0 0 0 .123-.016.494.494 0 0 0 .367-.408 26.513 26.513 0 0 1 2.787-8.525v16.714H3.25zm10.8 17.025V14.528h3.959v17.025zm10.688-12.1a.495.495 0 0 0-.706.179 27.045 27.045 0 0 1-1.467 2.4 27.525 27.525 0 0 0-4.655-10.839 1.9 1.9 0 0 0 1.2-.943l3.205-.882a32.349 32.349 0 0 1 4.839 11.84 28.714 28.714 0 0 0-2.411-1.76zm6.334-5.911h-5.321a33.084 33.084 0 0 0-2.435-4.445L27.47 7.95c.057-.016.112-.034.167-.053h3.437zm0 0" class="cls-1" transform="translate(0 -.5)"/>
</svg>
