<svg xmlns="http://www.w3.org/2000/svg" width="14.262" height="15.298" viewBox="0 0 14.262 15.298">
    <defs>
        <style>
            .cls-1{fill:#da291c}
        </style>
    </defs>
    <g id="participacion_1_" data-name="participacion (1)" transform="translate(-71.043 -98.664)">
        <path id="Trazado_216" d="M11.833 10.873a2.629 2.629 0 0 0-.354.443L7 8.6a2.564 2.564 0 0 0 0-1.919l4.482-2.7a2.607 2.607 0 1 0-.234-.465L6.758 6.22a2.593 2.593 0 1 0 0 2.837l4.487 2.724a2.591 2.591 0 1 0 .588-.908zM13.666.519a2.074 2.074 0 1 1-2.074 2.074A2.077 2.077 0 0 1 13.666.519zM4.59 9.713a2.074 2.074 0 1 1 2.075-2.075A2.077 2.077 0 0 1 4.59 9.713zm10.542 4.46a2.074 2.074 0 1 1 .608-1.467 2.077 2.077 0 0 1-.607 1.467z" class="cls-1" data-name="Trazado 216" transform="translate(69.046 98.664)"/>
    </g>
</svg>
