<svg xmlns="http://www.w3.org/2000/svg" width="88" height="88" viewBox="0 0 88 88">
    <defs>
        <style>
            .cls-1,.cls-4{fill:#fff}.cls-1,.cls-2{opacity:.34}.cls-2,.cls-6{fill:none}.cls-2{stroke:#fff;stroke-width:2px}.cls-3{fill:#4caf50}.cls-5{stroke:none}
        </style>
    </defs>
    <g id="Grupo_260" data-name="Grupo 260" transform="translate(-136 -258)">
        <rect id="Rectángulo_227" width="76" height="76" class="cls-1" data-name="Rectángulo 227" rx="38" transform="translate(142 264)"/>
        <g id="Rectángulo_228" class="cls-2" data-name="Rectángulo 228" transform="translate(136 258)">
            <rect width="88" height="88" class="cls-5" rx="44"/>
            <rect width="86" height="86" x="1" y="1" class="cls-6" rx="43"/>
        </g>
        <g id="Grupo_258" data-name="Grupo 258" transform="translate(3871 -1141)">
            <rect id="Rectángulo_54" width="66" height="66" class="cls-3" data-name="Rectángulo 54" rx="33" transform="translate(-3724.001 1410)"/>
            <path id="Trazado_8" d="M30.882 5.113A17.338 17.338 0 0 0 18.539 0 17.461 17.461 0 0 0 3.026 25.464L.092 33.848A1.619 1.619 0 0 0 1.613 36a1.63 1.63 0 0 0 .539-.092l8.382-2.934A17.458 17.458 0 0 0 30.882 5.113zm-1.493 23.2a15.348 15.348 0 0 1-18.053 2.7 1.626 1.626 0 0 0-1.3-.1l-7.612 2.662 2.666-7.616a1.627 1.627 0 0 0-.1-1.3A15.348 15.348 0 0 1 18.538 2.111a15.347 15.347 0 0 1 10.85 26.2zm0 0" class="cls-4" data-name="Trazado 8" transform="translate(-3708.672 1426.001)"/>
            <path id="Trazado_9" d="M284.7 251.033a2.062 2.062 0 0 0-2.913 0l-.878.878a12.785 12.785 0 0 1-5.134-5.134l.878-.878a2.062 2.062 0 0 0 0-2.913l-2.367-2.367a2.062 2.062 0 0 0-2.913 0l-1.893 1.893c-1.084 1.085-1.139 2.949-.152 5.251a23.045 23.045 0 0 0 10.6 10.6 7.641 7.641 0 0 0 2.947.7 3.138 3.138 0 0 0 2.3-.855l1.893-1.894a2.06 2.06 0 0 0 0-2.913zm-1.019 5.681c-.31.31-1.261.418-2.925-.295a20.989 20.989 0 0 1-9.486-9.488c-.713-1.664-.6-2.616-.3-2.926l1.857-1.857 2.294 2.294-1.1 1.1a1.611 1.611 0 0 0-.3 1.876 14.894 14.894 0 0 0 6.541 6.542 1.611 1.611 0 0 0 1.876-.3l1.1-1.1 2.294 2.294zm0 0" class="cls-4" data-name="Trazado 9" transform="translate(-3968.342 1193.985)"/>
        </g>
    </g>
</svg>
