<svg xmlns="http://www.w3.org/2000/svg" width="88" height="88" viewBox="0 0 88 88">
    <defs>
        <style>
            .cls-1,.cls-4{fill:#fff}.cls-1,.cls-2{opacity:.34}.cls-2,.cls-6{fill:none}.cls-2{stroke:#fff;stroke-width:2px}.cls-3{fill:#2196f3}.cls-5{stroke:none}
        </style>
    </defs>
    <g id="Grupo_261" data-name="Grupo 261" transform="translate(-136 -380)">
        <rect id="Rectángulo_227" width="76" height="76" class="cls-1" data-name="Rectángulo 227" rx="38" transform="translate(142 386)"/>
        <g id="Rectángulo_228" class="cls-2" data-name="Rectángulo 228" transform="translate(136 380)">
            <rect width="88" height="88" class="cls-5" rx="44"/>
            <rect width="86" height="86" x="1" y="1" class="cls-6" rx="43"/>
        </g>
        <g id="Grupo_259" data-name="Grupo 259" transform="translate(3871 -1111)">
            <rect id="Rectángulo_56" width="66" height="66" class="cls-3" data-name="Rectángulo 56" rx="33" transform="translate(-3724.001 1502)"/>
            <path id="Trazado_157" d="M35.954 17.253A17.654 17.654 0 0 0 17.977.005 17.654 17.654 0 0 0 0 17.253v.03a16.97 16.97 0 0 0 5.64 12.546v4.346A1.761 1.761 0 0 0 7.4 35.96a1.75 1.75 0 0 0 .93-.268l3.493-2.182a18.455 18.455 0 0 0 6.116 1.039h.371A17.655 17.655 0 0 0 35.954 17.3v-.048zM29.06 28.122a15.441 15.441 0 0 1-10.748 4.322h-.337a16.367 16.367 0 0 1-5.683-1 1.534 1.534 0 0 0-1.35.139L7.749 33.57v-4a1.544 1.544 0 0 0-.532-1.164 14.858 14.858 0 0 1-5.108-11.119A15.545 15.545 0 0 1 17.956 2.114H18a15.545 15.545 0 0 1 15.845 15.163 15.444 15.444 0 0 1-4.785 10.845zm0 0" class="cls-4" data-name="Trazado 157" transform="translate(-3709 1517.998)"/>
            <path id="Trazado_158" d="M102.4 160.912l-6.694 3.65-4.01-3.439a1.767 1.767 0 0 0-2.389.092l-8.464 8.464a1.762 1.762 0 0 0 1.244 3 1.768 1.768 0 0 0 .845-.216l6.694-3.65 4.014 3.44a1.767 1.767 0 0 0 2.389-.092l8.471-8.461a1.762 1.762 0 0 0-2.095-2.786zm-7.633 9.531l-4.067-3.484a1.549 1.549 0 0 0-1.74-.183l-4.909 2.676 6.517-6.517 4.061 3.483a1.55 1.55 0 0 0 1.741.183l4.921-2.683zm0 0" class="cls-4" data-name="Trazado 158" transform="translate(-3783.693 1368.586)"/>
        </g>
    </g>
</svg>
