<svg xmlns="http://www.w3.org/2000/svg" width="88" height="88" viewBox="0 0 88 88">
    <defs>
        <style>
            .cls-1,.cls-4{fill:#fff}.cls-1,.cls-2{opacity:.34}.cls-2,.cls-6{fill:none}.cls-2{stroke:#fff;stroke-width:2px}.cls-3{fill:#21c8f3}.cls-5{stroke:none}
        </style>
    </defs>
    <g id="Grupo_262" data-name="Grupo 262" transform="translate(-136 -502)">
        <rect id="Rectángulo_227" width="76" height="76" class="cls-1" data-name="Rectángulo 227" rx="38" transform="translate(142 508)"/>
        <g id="Rectángulo_228" class="cls-2" data-name="Rectángulo 228" transform="translate(136 502)">
            <rect width="88" height="88" class="cls-5" rx="44"/>
            <rect width="86" height="86" x="1" y="1" class="cls-6" rx="43"/>
        </g>
        <g id="Grupo_253" data-name="Grupo 253" transform="translate(3871 -1081)">
            <rect id="Rectángulo_75" width="66" height="66" class="cls-3" data-name="Rectángulo 75" rx="33" transform="translate(-3724 1594)"/>
            <g id="Grupo_53" data-name="Grupo 53" transform="translate(-3703 1608)">
                <g id="Grupo_52" data-name="Grupo 52">
                    <g id="Grupo_51" data-name="Grupo 51">
                        <path id="Trazado_159" d="M227.868 42.667h-3.095a.774.774 0 1 0 0 1.547h3.095a.774.774 0 0 0 0-1.547z" class="cls-4" data-name="Trazado 159" transform="translate(-214.715 -39.572)"/>
                        <path id="Trazado_160" d="M331.768 42.667h-.015a.767.767 0 0 0-.766.774.778.778 0 1 0 .781-.774z" class="cls-4" data-name="Trazado 160" transform="translate(-313.943 -39.572)"/>
                        <path id="Trazado_161" d="M236.214 429.762a1.547 1.547 0 1 0-1.547-1.547 1.548 1.548 0 0 0 1.547 1.547z" class="cls-4" data-name="Trazado 161" transform="translate(-224.609 -395.719)"/>
                        <path id="Trazado_162" d="M113.795 0h-12.379A5.422 5.422 0 0 0 96 5.416v26.305a5.422 5.422 0 0 0 5.416 5.416h12.379a5.422 5.422 0 0 0 5.416-5.416V5.416A5.422 5.422 0 0 0 113.795 0zm3.868 31.721a3.874 3.874 0 0 1-3.868 3.868h-12.379a3.874 3.874 0 0 1-3.868-3.868V29.4h20.116v2.321zM105.7 21.632a4.347 4.347 0 0 1-1.328-2.757.775.775 0 0 0-.772-.712l-.164-.029-.085-1.653a.773.773 0 0 0 .767-.87c-.071-.566-.184-1.588-.184-1.922 0-.995 0-2.024 2.867-2.052a.77.77 0 0 0 .443-.144 4.122 4.122 0 0 1 2.482-.664 2.275 2.275 0 0 1 2.074.862c.444.681.227.911.1 1.048l-.4.4a.772.772 0 0 0-.226.509l-.1 2.021a.833.833 0 0 0 .8.848l-.274 1.645a.774.774 0 0 0-.772.712 4.385 4.385 0 0 1-1.391 2.812.771.771 0 0 0-.234.763l.379 1.516a.774.774 0 0 0 .563.563l3.327.832a3.358 3.358 0 0 1 2.456 2.488H99.186a3.363 3.363 0 0 1 2.454-2.488l3.327-.832a.774.774 0 0 0 .563-.563l.4-1.583a.775.775 0 0 0-.23-.75zm11.96 6.22h-.06a4.9 4.9 0 0 0-3.652-3.988l-2.877-.72-.159-.639a5.966 5.966 0 0 0 1.482-2.937 1.583 1.583 0 0 0 .913-1.243l.2-1.614a1.582 1.582 0 0 0-.376-1.233 1.633 1.633 0 0 0-.382-.319l.056-1.134.209-.209a2.222 2.222 0 0 0 .084-2.972 3.727 3.727 0 0 0-3.367-1.561 5.7 5.7 0 0 0-3.175.812c-3.683.113-4.162 1.973-4.162 3.595 0 .32.062.95.118 1.442a1.58 1.58 0 0 0-.8 1.58l.2 1.614a1.549 1.549 0 0 0 1.009 1.261 6.017 6.017 0 0 0 1.407 2.841l-.178.715-2.877.72a4.9 4.9 0 0 0-3.652 3.989h-.065V7.737h20.116v20.116zm0-21.663H97.547v-.773a3.874 3.874 0 0 1 3.868-3.868h12.379a3.874 3.874 0 0 1 3.868 3.868v.774z" class="cls-4" data-name="Trazado 162" transform="translate(-96)"/>
                    </g>
                </g>
            </g>
        </g>
    </g>
</svg>
