<svg xmlns="http://www.w3.org/2000/svg" width="88" height="88" viewBox="0 0 88 88">
    <defs>
        <style>
            .cls-1,.cls-3{fill:#fff}.cls-1,.cls-4{opacity:.34}.cls-2{fill:#da291c}.cls-4,.cls-6{fill:none}.cls-4{stroke:#fff;stroke-width:2px}.cls-5{stroke:none}
        </style>
    </defs>
    <g id="Grupo_250" data-name="Grupo 250" transform="translate(-136 -137)">
        <g id="Grupo_249" data-name="Grupo 249" transform="translate(88 1)">
            <rect id="Rectángulo_225" width="76" height="76" class="cls-1" data-name="Rectángulo 225" rx="38" transform="translate(54 142)"/>
            <rect id="Rectángulo_52" width="66" height="66" class="cls-2" data-name="Rectángulo 52" rx="33" transform="translate(59 147)"/>
            <g id="Grupo_2" data-name="Grupo 2" transform="translate(75 163)">
                <path id="Trazado_5" d="M34.61 27.661a1.674 1.674 0 0 1-.513 1.466l-4.875 4.839a2.744 2.744 0 0 1-.861.623 3.56 3.56 0 0 1-1.045.33q-.037 0-.22.019t-.476.018a16.9 16.9 0 0 1-2.255-.238 17.121 17.121 0 0 1-3.812-1.173 32 32 0 0 1-5.114-2.8 38.126 38.126 0 0 1-6.085-5.132A40.169 40.169 0 0 1 5.1 20.77a34.476 34.476 0 0 1-2.711-4.27 23 23 0 0 1-1.54-3.556 18.865 18.865 0 0 1-.7-2.749 9.079 9.079 0 0 1-.143-1.816q.037-.66.037-.733A3.563 3.563 0 0 1 .373 6.6 2.747 2.747 0 0 1 1 5.74L5.871.865A1.615 1.615 0 0 1 7.044.351a1.368 1.368 0 0 1 .843.275 2.548 2.548 0 0 1 .623.678l3.922 7.441a1.784 1.784 0 0 1 .183 1.283 2.285 2.285 0 0 1-.623 1.173L10.2 13a.611.611 0 0 0-.128.238.9.9 0 0 0-.055.275 6.619 6.619 0 0 0 .66 1.76 16.152 16.152 0 0 0 1.356 2.144 23.81 23.81 0 0 0 2.6 2.914 24.281 24.281 0 0 0 2.933 2.621 16.935 16.935 0 0 0 2.145 1.375 5.7 5.7 0 0 0 1.32.531l.458.092a.874.874 0 0 0 .238-.055.612.612 0 0 0 .238-.128l2.089-2.126a2.246 2.246 0 0 1 1.54-.586 1.915 1.915 0 0 1 .99.22h.037l7.075 4.179a1.844 1.844 0 0 1 .914 1.207z" class="cls-3" data-name="Trazado 5" transform="translate(0 -.351)"/>
            </g>
        </g>
        <g id="Rectángulo_226" class="cls-4" data-name="Rectángulo 226" transform="translate(136 137)">
            <rect width="88" height="88" class="cls-5" rx="44"/>
            <rect width="86" height="86" x="1" y="1" class="cls-6" rx="43"/>
        </g>
    </g>
</svg>
