<svg xmlns="http://www.w3.org/2000/svg" width="22.601" height="22.586" viewBox="0 0 22.601 22.586">
    <defs>
        <style>
            .cls-1{fill:#fff}
        </style>
    </defs>
    <g id="receptor-de-telefono">
        <g id="Grupo_3" data-name="Grupo 3">
            <g id="Grupo_2" data-name="Grupo 2">
                <path id="Trazado_5" d="M22.59 18.176a1.092 1.092 0 0 1-.335.957l-3.182 3.158a1.791 1.791 0 0 1-.562.407 2.323 2.323 0 0 1-.682.215q-.024 0-.144.012t-.311.012a11.029 11.029 0 0 1-1.472-.156 11.175 11.175 0 0 1-2.488-.766 20.886 20.886 0 0 1-3.338-1.83 24.885 24.885 0 0 1-3.972-3.35 26.218 26.218 0 0 1-2.774-3.157 22.5 22.5 0 0 1-1.771-2.787 15.013 15.013 0 0 1-1-2.321A12.313 12.313 0 0 1 .1 6.776 5.926 5.926 0 0 1 0 5.591q.024-.431.024-.479a2.326 2.326 0 0 1 .215-.682 1.793 1.793 0 0 1 .411-.561L3.832.686A1.054 1.054 0 0 1 4.6.351a.893.893 0 0 1 .55.179 1.663 1.663 0 0 1 .407.443l2.56 4.857a1.164 1.164 0 0 1 .12.837 1.491 1.491 0 0 1-.407.766L6.655 8.606a.4.4 0 0 0-.084.156.59.59 0 0 0-.036.179 4.32 4.32 0 0 0 .431 1.148 10.543 10.543 0 0 0 .885 1.4 15.541 15.541 0 0 0 1.7 1.9 15.848 15.848 0 0 0 1.914 1.711 11.054 11.054 0 0 0 1.4.9 3.72 3.72 0 0 0 .861.347l.3.06a.57.57 0 0 0 .156-.036.4.4 0 0 0 .156-.084L15.7 14.9a1.466 1.466 0 0 1 1-.383 1.25 1.25 0 0 1 .646.144h.024l4.618 2.728a1.2 1.2 0 0 1 .602.787z" class="cls-1" data-name="Trazado 5" transform="translate(0 -.351)"/>
            </g>
        </g>
    </g>
</svg>
