<svg xmlns="http://www.w3.org/2000/svg" id="traducir" width="25.304" height="23.744" viewBox="0 0 25.304 23.744">
    <defs>
        <style>
            .cls-1{fill:#fff}
        </style>
    </defs>
    <g id="Grupo_37" data-name="Grupo 37">
        <g id="Grupo_36" data-name="Grupo 36">
            <g id="Grupo_35" data-name="Grupo 35">
                <path id="Trazado_88" d="M13.653 36.941l-2.921-3 .035-.036a21.131 21.131 0 0 0 4.267-7.795H18.4v-2.39h-8.048v-2.387h-2.3v2.387H0v2.38h12.847a19.019 19.019 0 0 1-3.646 6.4 18.863 18.863 0 0 1-2.657-4h-2.3a21.059 21.059 0 0 0 3.428 5.443l-5.849 6 1.628 1.689L9.2 35.657l3.577 3.712z" class="cls-1" data-name="Trazado 88" transform="translate(0 -21.333)"/>
                <path id="Trazado_89" d="M242.142 192h-2.3l-5.176 13.8h2.3l1.294-3.45h5.463l1.294 3.45h2.3zm-3.019 8.051l1.869-4.986 1.869 4.986z" class="cls-1" data-name="Trazado 89" transform="translate(-222.014 -182.058)"/>
            </g>
        </g>
    </g>
</svg>
