<svg xmlns="http://www.w3.org/2000/svg" width="71.638" height="50.592" viewBox="0 0 71.638 50.592"><defs><style>.cls-1{fill:#da291c}</style></defs><g id="simbolo-de-twitter"><path id="Trazado_87" d="M71.639 63.427a32.851 32.851 0 0 1-8.439 2.012 13.325 13.325 0 0 0 6.46-7.064 32.449 32.449 0 0 1-9.338 3.1A15.755 15.755 0 0 0 49.6 57.441c-8.116 0-14.7 5.721-14.7 12.774a11.22 11.22 0 0 0 .381 2.911c-12.212-.533-23.041-5.62-30.288-13.35A11.443 11.443 0 0 0 3 66.2a12.431 12.431 0 0 0 6.54 10.631 16.41 16.41 0 0 1-6.657-1.6v.16c0 6.188 5.067 11.353 11.787 12.528a16.994 16.994 0 0 1-3.872.448 16.153 16.153 0 0 1-2.766-.237C9.9 93.2 15.329 96.9 21.757 97a32.4 32.4 0 0 1-18.251 5.46c-1.186 0-2.355-.062-3.505-.175a46.177 46.177 0 0 0 22.526 5.749c27.034 0 41.811-19.468 41.811-36.351l-.049-1.654a27.573 27.573 0 0 0 7.35-6.602z" class="cls-1" data-name="Trazado 87" transform="translate(-.001 -57.441)"/></g></svg>
