<svg xmlns="http://www.w3.org/2000/svg" width="28.32" height="23.743" viewBox="0 0 28.32 23.743">
    <defs>
        <style>
            .cls-1{fill:#fff}
        </style>
    </defs>
    <g id="simbolo-de-twitter" transform="translate(-44 -60)">
        <g id="Grupo_34" data-name="Grupo 34">
            <g id="Grupo_33" data-name="Grupo 33">
                <path id="Trazado_87" d="M28.321 60.25a11.321 11.321 0 0 1-3.336.944 5.991 5.991 0 0 0 2.554-3.315 11.493 11.493 0 0 1-3.691 1.456 5.711 5.711 0 0 0-4.24-1.894 5.905 5.905 0 0 0-5.81 5.995 6.2 6.2 0 0 0 .15 1.366 16.329 16.329 0 0 1-11.974-6.265 6.132 6.132 0 0 0 1.8 8 5.673 5.673 0 0 1-2.631-.753v.075A5.958 5.958 0 0 0 5.8 71.743a5.712 5.712 0 0 1-1.531.21 5.408 5.408 0 0 1-1.094-.111A5.839 5.839 0 0 0 8.6 76.006a11.427 11.427 0 0 1-7.215 2.563A11.964 11.964 0 0 1 0 78.487a16.053 16.053 0 0 0 8.9 2.7c10.687 0 16.528-9.136 16.528-17.06l-.019-.776a11.813 11.813 0 0 0 2.912-3.101z" class="cls-1" data-name="Trazado 87" transform="translate(43.999 2.559)"/>
            </g>
        </g>
    </g>
</svg>
