<svg xmlns="http://www.w3.org/2000/svg" width="22.583" height="22.586" viewBox="0 0 22.583 22.586"><defs><style>.cls-1{fill:#fff}</style></defs><g id="whatsapp"><path id="Unión_2" d="M.3 22.288a1.007 1.007 0 0 1-.241-1.052L1.9 15.977A10.952 10.952 0 0 1 11.631 0a10.953 10.953 0 0 1 7.743 18.7 10.956 10.956 0 0 1-12.766 1.99L1.35 22.528a1.02 1.02 0 0 1-.338.058 1.006 1.006 0 0 1-.712-.298zM4.825 4.145a9.632 9.632 0 0 0-1.694 11.328 1.022 1.022 0 0 1 .063.814l-1.673 4.778L6.3 19.393a1.021 1.021 0 0 1 .813.063 9.628 9.628 0 1 0 4.52-18.131 9.561 9.561 0 0 0-6.808 2.82zM12.7 16.528a13.1 13.1 0 0 1-3.879-2.769 13.079 13.079 0 0 1-2.768-3.88c-.619-1.443-.585-2.614.1-3.294L7.341 5.4a1.294 1.294 0 0 1 1.828 0l1.485 1.485a1.294 1.294 0 0 1 0 1.828l-.551.551a8.016 8.016 0 0 0 3.221 3.221l.551-.551a1.293 1.293 0 0 1 1.827 0l1.485 1.485a1.292 1.292 0 0 1 0 1.828L16 16.432a1.972 1.972 0 0 1-1.445.536 4.794 4.794 0 0 1-1.855-.44zM7.089 7.522c-.194.194-.262.792.185 1.835a11.735 11.735 0 0 0 2.488 3.465 11.743 11.743 0 0 0 3.464 2.488c1.044.447 1.641.379 1.835.185l1.165-1.165-1.439-1.439-.689.689a1.01 1.01 0 0 1-1.177.187 9.341 9.341 0 0 1-4.1-4.1A1.011 1.011 0 0 1 9 8.486l.694-.686-1.439-1.443z" class="cls-1" data-name="Unión 2"/></g></svg>
