<svg xmlns="http://www.w3.org/2000/svg" width="195.785" height="48.864" viewBox="0 0 195.785 48.864">
    <defs>
        <style>
            .cls-1,.cls-2{fill:#fff}.cls-2{fill-rule:evenodd}
        </style>
    </defs>
    <g id="logo_Segurviaje_color" data-name="logo Segurviaje color" transform="translate(-20.001 111.002)">
        <g id="Capa_1" data-name="Capa 1" transform="translate(20.001 -111.002)">
            <path id="Unión_19" d="M191.852 48.126l.014-.025.506-.772a2.731 2.731 0 0 0 1.621.61c.505 0 .77-.2.77-.5 0-.387-.509-.51-1.1-.7-.736-.2-1.549-.506-1.549-1.452a1.583 1.583 0 0 1 1.761-1.518 3.466 3.466 0 0 1 1.817.563l-.444.808a2.866 2.866 0 0 0-1.4-.47c-.442 0-.7.208-.7.506 0 .354.537.5 1.118.695.721.223 1.52.55 1.52 1.441 0 1.012-.807 1.553-1.84 1.553a3.466 3.466 0 0 1-2.094-.739zm-11.033.007a2.559 2.559 0 0 1-.771-1.832h-.014a2.635 2.635 0 1 1 5.271 0 2.586 2.586 0 0 1-2.635 2.559h-.055a2.575 2.575 0 0 1-1.796-.727zm2.944-.738a1.578 1.578 0 0 0-1.093-2.689 1.485 1.485 0 0 0-1.52 1.559 1.528 1.528 0 0 0 .419 1.124 1.526 1.526 0 0 0 2.194.007zm-24.1.736a2.578 2.578 0 0 1 .008-3.683 2.611 2.611 0 0 1 1.868-.736 2.567 2.567 0 0 1 2.632 2.568 2.588 2.588 0 0 1-2.592 2.574h-.131a2.564 2.564 0 0 1-1.788-.724zm.771-2.963a1.721 1.721 0 0 0 .014 2.234 1.519 1.519 0 0 0 2.618-1.109h-.033a1.515 1.515 0 0 0-1.517-1.591h-.016a1.468 1.468 0 0 0-1.069.465zm9.248 3.682a1.7 1.7 0 0 1-1.76-1.9V43.8h1.133v2.81c0 .767.388 1.207 1.058 1.207a1.1 1.1 0 0 0 1.116-1.225V43.8h1.133v4.945h-1.133v-.764a1.779 1.779 0 0 1-1.535.871zm5.773-.021a1.264 1.264 0 0 1-1.42-1.452h-.011v-2.6h-.632V43.8h.632v-1.357h1.129V43.8h1.33v.979h-1.33V47.2a.54.54 0 0 0 .613.617 1.454 1.454 0 0 0 .7-.168v.93a2.011 2.011 0 0 1-.973.25zm-21.389-.742l.5-.757a2.75 2.75 0 0 0 1.621.61c.505 0 .767-.2.767-.509 0-.383-.505-.506-1.108-.692-.727-.208-1.542-.506-1.542-1.452a1.581 1.581 0 0 1 1.761-1.518 3.45 3.45 0 0 1 1.814.506l-.448.811a2.831 2.831 0 0 0-1.4-.473c-.442 0-.693.208-.693.51 0 .35.534.5 1.119.69.716.223 1.516.552 1.516 1.441 0 1.014-.8 1.557-1.836 1.557a3.46 3.46 0 0 1-2.074-.725zm35.688.663v-2.814c0-.768-.384-1.209-1.062-1.209a1.1 1.1 0 0 0-1.112 1.229v2.793h-1.115V43.8h1.129v.772a1.78 1.78 0 0 1 1.549-.872 1.7 1.7 0 0 1 1.76 1.9v3.151zm-12.063 0V43.8h1.133v4.952zm-12.323-.007v-6.835h1.132v6.835zm-25.164 0v-8.1h7.95v1.329h-4.96v2.062h4.96v1.326h-4.96v2.048h4.96v1.33zm-18.065 0v-8.1h7.943v1.329h-4.952v2.062h4.952v1.326h-4.952v3.378zm-12.93 0l-.379-1.326h-3.188l-.39 1.326h-2.98l2.323-8.1h5.282l2.324 8.1zm-3.188-2.656h2.424l-1.212-4.225zm-7.7 2.656v-4.049l-1.972 4.048-1.979-4.048v4.048h-2.991v-8.1h2.987l1.979 4.047 1.972-4.047h2.991v8.1zm55.725-.674a.072.072 0 0 0 .021.018l-.008.015zm30.144-1.79a.074.074 0 0 1 0 .012.045.045 0 0 1 0 .01zm-6.54-3.238v-1.078h1.219v1.079zM8.044 36.8c-.333-.265-.652-.51-.95-.8a20.906 20.906 0 0 1-1.664-1.621h-.018a20.967 20.967 0 0 1-4.077-21.42 1.306 1.306 0 0 1 .689-.737 1.292 1.292 0 0 1 1.011-.022 1.294 1.294 0 0 1 .76 1.675 18.372 18.372 0 0 0-1.011 8.672 18.15 18.15 0 0 0 4.608 10.079 19.383 19.383 0 0 0 2.223 2.126A18.306 18.306 0 1 0 25.406 2.565a1.3 1.3 0 1 1 .638-2.524 20.915 20.915 0 1 1-18 36.762zm8.871-.792h.022zm-.029 0h-.455l-.108-.029h.629l-.037.029zm.029 0h-.025zm.291-.008h.051zm-.254-.014h.028zm-.657 0h.028zm.58-.059h.055zm-.085 0h.028zm-.032 0h.036zm-.338-.111h.029zm-.315-.075h.033zm.086 0h.046zm-.2-.015l-.1-.031-.086-.029h.068l.15.049.018.011zm-.2-.1h.026zm-.01 0h-.051l-.046-.051.107.051zm.272-.011h.047zm-.121 0h.031zm0 0h.036zm.068-.024h.061zm-.158 0h.033zm0 0h.029zm-.222-.026h.06zm-.068-.029h.04zm-.062-.075h-.1l-.011-.06.172.06zm-.147-.042h.029zm-.071 0h-.002a.043.043 0 0 1 .032 0zm-.008 0h.036zm-.018 0h.018zm.014 0zm-.086 0l-.126-.055h.018l.146.055zm-.151-.055h-.172l-.075-.036h-.154l-.09-.046h-.169l-.079-.04h-.178l-.09-.045-.09-.048h-.351l-.09-.049h-.183l-.147-.678c.129.071.262.144.391.208a15.4 15.4 0 0 0 1.5.734zm-1.892-.957h.021v.015a.119.119 0 0 1-.015-.015zm.021 0h.008zm-.036 0h.015zm.021 0zm-.015 0h-.158l-.05-.029-.136-.082-.094-.051h.025l-.05-.038v-.072c.158.093.319.182.481.272zm.015 0zm-.456-.161zm-.036 0l-.042-.027h.022l.057.027zM12.6 34.1h.057v.04a.51.51 0 0 1-.057-.04zm-.037 0h-.042l-.1-.068-.068-.079c.079.051.161.1.244.148zm-.322-.223h.029l.046.029.04.046c-.044-.029-.084-.052-.119-.079zm-.008 0l-.051-.031c.021.011.039.025.061.036zm-2.686-2.162c-.333-.338-.66-.692-.968-1.058l-.068-.086-.1-.115-.032-.04-.032-.036-.082-.111-.037-.036a.373.373 0 0 0-.064-.086l-.061-.082-.093-.134-.057-.068a9.715 9.715 0 0 1-.362-.515l.58-.122-.032-.051-.029-.04v-.06c-.251-.427-.524-.857-.756-1.3a17.594 17.594 0 0 1-.818-1.869 1.742 1.742 0 0 1-.033-.082l.037.011v-.089l-.026-.04a.074.074 0 0 1-.025-.064v-.216l.086.036v.033l.032.042v.263l.129-.029.033.042v-.031l.036.15v-.183H6.8v-.175l.032.046v-.05l.025.04.061.064h.032l.029.046.077.037v.049l.064.051v-.051l.237.057V26l.007.025h.025v-.033l.054.033.06.053.037.033.049.036V26.1h.147l.122.1.111.108h.026l.021.067.04.051.04.04.054.082.029.044.06.064h.04l.037.033h.161l.033.046.029.051.068.124.265.112v.04l.036.06v.38a.031.031 0 0 1 0 .025v.51h-.031l.029.053.036.04v.1l.025.1v.172l.015.018v.134l.036.04v.046l.044.046v.042l.049.1.191.272.033.044.049.12.086.174.079.126v.124l.046.082.085.13v.086l.025.053.036.062.037.04v.12l.075.029.071.1.025.044v.122l.036.036v.04h-.108l-.029-.046v.062H9.74v.036l.04.038v.051l.111.044h-.028v.126l.028.071v.1l.036.04H9.9v.042l.025.04.029.04v.036l.058.051.038.046.072.075.2.161.036.044.029.027.032.044v.022l.04.1.064.093.062.079.1.1.032.042.079.1.033.029.042.062.026.057-.037-.044-.037-.04.026.029.061.068.046.029.09.1.038.036.047.042v.029l.111.1.022.018.029.036.044.036.029.033.031.044h-.1l-.079-.044h-.029l-.086-.062-.042-.031h-.029l-.068-.066-.064-.057-.125-.1.086.071.029.029.036.029.036.036.039.033.066.053h.029l.039.036.086.159h.079l.057.036.042.029.047.033.071.06h.029l.04.029.054.033h.029l.068.04.079.1.036.029.075.057.072.062.04.036h.068l.036.036.031.051v.029h-.031l.029.042a16.056 16.056 0 0 1-2.625-2.133zm1.276.745l-.029-.031-.014-.015zm-.161-.179l.014.018v-.011l-.047-.042zm-3.309-6.256h.007L7.353 26zm-.517-.219v-.057h-.029zm-.258 0l-.004-.006zm165.6 7.58a9.22 9.22 0 0 1-1.775-.172v-3.4a4.869 4.869 0 0 0 .911.086c.918 0 1.545-.506 1.545-1.771V13.453h4.335v15.02c0 3.37-1.714 4.912-4.908 4.912zm-83.309-.033A11.516 11.516 0 0 1 82.3 31.3h-.025l1.011-1.71a9.447 9.447 0 0 0 5.677 1.883c3.259 0 5.371-1.8 5.371-5.251V24.48a7 7 0 0 1-5.794 3.108 6.825 6.825 0 0 1-6.938-6.9v-.06a6.851 6.851 0 0 1 6.949-6.963 6.93 6.93 0 0 1 5.766 2.965v-2.649h2.194v12.181a7.085 7.085 0 0 1-1.882 5.227 7.749 7.749 0 0 1-5.623 1.965zm-5-12.764v.057a5 5 0 0 0 5.107 5.025 5.206 5.206 0 0 0 5.425-5v-.053a5.163 5.163 0 0 0-5.425-4.994 4.874 4.874 0 0 0-5.106 4.965zM19.841 32.942h-.064V32.9h-.044v-.031h-.343v-.055l-.04-.06-.036-.029V32.7h-.029v-.037h.036v-.146l-.029-.037-.057-.068-.068-.082-.068-.1-.054-.1v-.037l-.06-.108-.055-.071v-.036l-.143-.1-.025-.04-.09-.108v-.08l-.029-.036v-.075h-.033V31.4l-.04-.082v-.036l-.025-.036v-.115l-.036-.036v-.04l-.042-.075v-.268l-.025-.051v-.121l-.055-.086-.057-.051-.072-.1-.049-.051-.051-.078-.062-.123-.03-.051-.144-.2-.051-.064-.085-.086-.025-.042-.036-.04v-.3l-.039-.172.042-.086v-.072l.025-.111v-.217a.229.229 0 0 0 0-.068l.029-.048.032-.036.043-.09.042-.031h.044v-.33l-.036-.1-.046-.046-.1-.171v-.09l-.033-.036v-.029l.061-.072v-.1l-.1-.182-.048-.1v-.06l-.046-.048-.064-.1-.032-.042.076-.026h-.029l-.05-.042v-.186h-.036l-.064-.088v-.046l-.147-.129-.133-.144-.176-.15-.046-.046.051.025-.046-.029h-.044l-.051-.1h-.05l-.029-.051-.064-.092.043.042.068-.014-.072-.055-.036-.075h-.022l.022-.046.036-.1v-.122h.046L16.7 25.3v-.02h.05v-.1h.014l-.05-.033v-.051l.04-.046.036-.09v-.343l-.046-.046v-.051H16.7v-.1h-.1l-.04-.06-.039-.1-.042-.026v.055l-.044-.036V24.2h-.046l-.051-.051.051.1H15.9l.029.053h-.031l-.026-.1v.086h-.036v.042h-.046v-.051l-.033.055v-.036l-.072-.037-.064-.1v-.115h.029V24l-.051.044v-.074l-.053.03v-.051l.04-.029h-.072l-.085-.085-.086-.051h-.191l.044-.042-.075.042h-.444L14.6 23.7l-.037.037-.031.049h-.044l-.014-.029-.01-.021-.025-.029.036.049h-.095l-.04.033-.075.031-.093.068h-.042l-.144.049L13.9 24l-.055-.048-.183-.042h-.232l-.172.022h-.229l-.273.133h-.1l-.3-.165-.09-.075-.04-.046-.1-.1v-.025l-.068-.064h-.057l-.04-.026-.061-.053h-.051l-.031-.051h-.029l-.133-.071-.042-.029v-.036h-.037l-.046-.036-.085-.062v-.09h-.056v-.057l.007.008v-.027h.04l-.025-.025h-.039L11.337 23l-.051-.107h-.029v-.079l-.051-.042v.093h-.05l-.04-.04-.046-.1-.04-.033v-.062h-.06a.156.156 0 0 1 0-.051h-.039l-.025-.053v-.046h-.046l.025-.051.036-.042h-.06v-.051h.082a.077.077 0 0 1 0-.04h-.168a.117.117 0 0 1 0-.053h-.015l-.036.026-.043-.033v-.062l.036-.036h-.051l-.065-.036.026-.055h.031L10.627 22H10.6v-.175l.026-.031v.046h.11v-.01h-.064l-.046-.04v-.082l-.036-.144-.055.057v-.051l-.042-.086-.029-.057-.036-.029v-.025h.046v-.026l.04-.082.057-.15V20.9l.068-.279v-.28l-.042-.19-.037-.042v-.044l.051-.119v-.1l-.057-.159-.036-.108.036-.246v-.051l.033-.053h.04l.085-.055v-.053l.033-.057v-.051l.078-.161V18.8l-.038.046.025-.051.075-.079.075-.1.04-.042.029-.053.029-.182.076-.161v-.062l.28-.133.036-.055v-.107l.04-.079v-.049l.036-.037.037-.051.172-.042.126-.072.036-.051.072-.074.086-.051.042-.046.04-.051.068-.1.05-.066.046-.1v-.1l-.031-.057V16.6l.06-.107.068-.072v-.157l.094-.1.086-.094.265-.133.079-.049.046-.046.144-.227.1-.232.032-.051h.039l.077-.031v.089l.068.086.04.031h.06l.09-.025h.046l.273.212.1-.036.036.046h.212l.05-.04h.046l.03-.036.046-.051.043-.033h.043l.1-.042.042.022.044-.055.05-.046.193-.085.291-.036h.037l.094-.059h.093l.1-.042h.337l.062-.04h.136v-.033h.046l.046.044h.086l.054-.046.1.064h.046l.05-.025h.1l.072-.026.04-.036.147-.051h.079l.046.033v.079h.036l.115-.079h.054v.053l-.083.1h-.053v.115l.031.053h.033l.046.042v.086l-.057.108-.09.108-.1.051-.046.051v.048l.04.057.061.029h.046v.051l.051-.048v.111h.046l.083.04h.043l.118.068h.1l.132-.042.072.031.122.086h.076l.051.048h.161l.051.038v.2l.04.051.1.046h.139l.169.04.215.055.119.1.114.062h.06l.105-.044.1-.118v-.112l-.036-.071v-.123l.025-.053.046-.056.108-.086h.054l.05-.026h.1l.042-.029h.259l.11.126.046.036v.057l.04.042h.147l.057.04h.284l.042.086h.062l.107-.029h.051l.322.066.051.042h.107l.051.04h.107l.126.018.057.033h.061l.1-.046.126-.094h.008l.057-.06h.1l-.057.042h.082l.051-.036h.061l.093.042h.079l.043.051h-.05l-.026.037.068.029v.025h.04V16.7h.039l.057.026.077-.026.161-.036h.158l.079-.029.072-.083.044-.064.042-.139v-.323l.046-.09v-.082h.04v-.134l.054-.031v-.083l-.033-.086v-.14l-.039-.046v-.051l.036-.068-.044-.057V15.1l.046-.044.033-.046v-.051h-.046l-.047.029h-.039v.033h-.215l-.085.055-.044.049v.044h-.046l-.054.025-.165.026h-.092l-.068-.026-.051-.071-.049-.04-.087-.026-.1-.049h-.108l-.036.049v.051l-.043.1-.046-.031-.1.036h-.107l-.064-.029.014-.172v-.057h-.089v-.029h-.056l-.028.036-.046.031v-.018l-.022.018h-.093l.025-.031h.09v.014l.032-.025-.054-.025h-.19v-.051h.051l.04-.046-.037-.036h-.049v-.063l-.043-.025h.036v-.075l-.086-.033-.053-.04-.04.029-.09-.051h.05l-.032-.042v-.033h.025l.042.051v.046l.1-.031H21.2l-.044-.079h.044l.042-.051h-.068v-.046l-.06-.046.053-.036.033-.051h-.05l-.158.037.029-.055v-.093l.029-.051.1-.072h.108l.051-.031h.043v-.046h.048v.049h.255v-.035h.126l-.062-.038v-.036l.044-.04h.284l.114.029h.119l.028-.051.137-.075.068-.051.161-.046.09-.04.308.025h.046l.046-.031.026.051.042.046h.208v.086l.049.046h.051l.033-.025h.046l.05.042h.126l.04-.029v.029l.129.029h.118l.133-.029h.185l.115-.051.042-.025h.043l.061-.04.042-.046.04-.075v-.026l-.04-.1-.031-.053v-.046l-.029-.049h-.047l-.049-.04-.051-.036H24.4l-.05-.04-.061-.033-.062-.137-.04-.046-.1-.075-.1-.071h-.093l-.09-.09h-.093l-.087-.089-.093-.033v-.029h.043l-.054-.026.04-.029.064.029h.107v-.093h.04l.044-.089h.085l-.1-.093h-.046l-.046-.04.082-.04h.046v-.042h.043l.086-.044h.042v-.033h-.027v-.031h-.04l-.04.031h-.075l-.043.026h-.19v.029h-.083l-.046.042h-.086l-.039.026h-.09l-.042.04h-.04l-.061.079h-.04l.061-.059-.068.033v.126l.085.1h.046l.086-.026h-.029l.044-.025h.046l.046.033-.046.031v.063h-.133l-.044-.033H23.1v-.036l-.053-.062-.094-.107-.05.031v-.036l-.046-.036h-.115l.051.036h.025l.051.04h.043v.046l.042-.029.083.068.029.046.028.036h-.028l-.04.046h-.093l-.04.029-.04.048-.04.025h-.1v-.025h-.008V12.6l-.042-.06H22.6l-.054-.029h-.079v-.044l.087-.053.135-.053h.048l-.037-.053h-.28l-.079-.046-.046-.037h.064l-.039-.04v-.04l-.05.055h-.119l-.029-.04v.046h-.039l-.09.026v.046l-.053.071.022.022-.062.067-.046.029v-.029l-.05.036h-.04v.044l.036.033v.19l-.036.025h-.19l-.039.048h.049l-.064.082v.276h-.1v.144l-.04.049v.029l-.054.029h.054v.049l.049.044v.084l.04.066.029.093.147.055.026.049-.051.036h-.05v-.029h-.237l-.1.1h-.1l-.046.046-.05.036-.044.048v-.079l.144-.068v-.025h-.15l-.033-.044-.042-.027-.154-.026h-.066l-.049.029-.1-.025-.05.046h-.123v.085h.051l.051.037h-.1v.049l.036.051h-.036l-.029-.051h-.103l.025.072-.06-.036-.055-.046v-.051l-.05.046v.139l.061.108.09.09v.049h-.04v-.049h-.086l.042.085-.049.033h-.054l.036.029h.047l.053.033h.046v.031h.068v.037h.057v.232l-.05-.049-.05-.037-.05-.025-.112.033.037.04v.036h.054l.029.049h-.1l-.036-.046-.047-.025v.057l.054.089v.1l.029.046v.029l-.051-.036-.025-.051h-.039l-.046.046v.04l-.048-.075-.046-.046V15l-.042.049h-.05l-.044-.082.033-.089-.036-.046-.04-.053v-.051l.042-.055h.051l.036-.057h.047l.053.033.062.025h.046l.05.037h.04l.057-.029v-.026h-.1l-.05-.031-.055-.037h-.1l-.129.033-.031-.046-.051.042-.036-.1-.062-.042v-.051h.008l-.068-.089h-.04l-.04-.09-.031-.029v-.042l-.04-.057-.094-.046-.029-.051h.029v-.055l-.029-.036.036-.06v-.137l.04-.071v-.079h-.04l-.057-.036-.04-.068h-.046l-.051-.044h-.025l-.137-.1h-.1l-.089-.042h.078l.043.025h.046l-.042-.04-.09-.06-.036-.046h-.051l-.072-.03h-.085V13.1l-.062-.04-.107-.1.031-.051-.04-.053h-.025v-.118l-.057-.068-.066-.037-.046.105v.053l-.04-.064v-.191l-.046.029h-.125l-.042.026h-.1l-.025.042v.094l-.051.051v.122l.051.089.039.025.09.066h.042l.036.082.04.208.158.164h.051l.036.033h.233v.072l-.051.029v.025l.151.083.137.049.039.015.135.071.033.036.051.029.036.051v.051l-.031.071h-.044l-.046-.04v-.059l-.046-.033h-.09l-.036-.04h-.2l-.036.029-.036.051-.026.025v.044l-.031.044v.007h.046l.071.04v.126l-.154.078v.093l-.1.086v.033l.014-.007v.049l-.075.068-.051.1v.075l.029.049-.051.04v.046h-.118l-.046-.038v-.029l-.048-.029h-.1l-.043-.04-.158-.082h-.061l-.04-.051v-.054l.043-.046h.1l.051-.04h.018l.094.057h.15l.1-.036h.1l.042-.018h-.06V14.6l.075-.1v-.072h.042l.036-.049-.029-.046v-.1l-.032-.048v-.1l-.029-.04h-.072L18.1 14h-.032v-.09l-.046-.033h-.046v-.046h-.046l-.055-.068-.036-.057h-.176l-.086-.053-.032-.036-.05-.033v-.046l-.047-.037h-.031v-.071l-.079-.029-.025-.046-.065-.053v-.046h-.04v-.1l-.2-.064v-.112h-.068l-.068-.057-.082-.023h-.046l-.062.036-.089.1-.051.025h-.111l-.06.033-.108.064v.042l-.047.029-.093.037-.036-.026h-.094l-.031-.046h-.205l-.025-.025h-.049l-.1.067h-.047l-.064.044v.1l.036.118h-.039v.1l-.047.037-.136.064-.046.033-.208.06-.076.04-.049.046.025.029-.051.036h-.036l-.033.051-.092.1v.029l-.046.051.039.172v.131l.068.083h-.057l-.1.064-.066.086-.025.051-.036.075-.047.036h-.089l-.108.071v.044l-.029.053-.036.044h-.075l-.051.042h-.042l-.057-.025H13.7l-.049.049h-.081l-.044.026-.042.064-.065.046-.079-.049-.031-.068v-.037l-.036-.025.049-.062-.053-.025-.072-.055v-.031l-.086.031v-.025l-.086.051h-.147l-.086.036v-.046l.036-.082v-.144l.029-.079V14.6h-.075v-.049l.051-.037v-.057l-.036.051h-.065v-.093l.025-.046a.042.042 0 0 1 0-.031l.075-.09.075-.148.046-.119.036-.049v-.042l-.025.049.047-.135v-.194l.031-.029v-.046l.057-.046v-.026h-.042l.053-.053h-.04v-.046l.026-.036h-.04v-.051h-.033v-.046l.1-.075h.2v-.036l.037-.051.046-.029h.075l.033.029h.251l.036.025h.445l.05.037h.025v-.026h.048l.06.04h.136l.04-.025.072-.115.029-.122.031-.086v-.04l.072-.2h.036l.026.044v.046l.031.046v-.265l-.031-.036-.033-.029h.036v-.135h-.04l-.031-.026h-.029v-.042l-.036-.04.047-.062h-.035v-.046h.075l-.029-.029H14.7v-.046h-.079l-.033-.031-.031.042v-.042l-.029-.029-.116-.036h-.046V11.8h.034l-.029-.026v-.042h.029v-.033h-.075v-.04l.042-.036h.183l.048-.051h.075l.039-.064h.043l.054-.033.049.036.122-.025v-.294h.12v.1h.251l.1-.04h-.015V11.2l.051-.036.09-.04h.082l.051-.029.04-.048v-.167l.05-.04.144-.026.14-.071.1-.026h.014v-.046h.14v.008h.161v-.026h-.083l-.057-.036v-.036l.094-.088.039-.053.036-.082v-.036h.04l.062-.025.046-.029.05-.044h.23l.029.036.039.022v-.031l.043-.044h.147v.053h.251v-.038h.04v-.072h.079l-.032-.029v-.083h-.036l.036-.036.04-.029-.043-.085H17.5v-.04l.032.031v-.057a.052.052 0 0 0 0-.036l-.032-.024v-.029h-.042v-.061h-.011l.011-.036v-.022h.007l.029-.1.025-.033v.033h.081v-.03l.038-.031v-.011l.03-.042h.154v.074h-.061l.039.026-.043.04.043-.026h.075v.036l-.025.038h-.1v.075h-.043a.089.089 0 0 0 0 .046h-.046v.029h-.04V9.8l-.046.033.036.056h-.021l.06.037v.049l.026.036h.036l.122.068h.087v.044l-.048.042v.035h.108v-.037l.043-.036h.076v-.044l.044-.021.029-.044h.046l.071.015.065.057h.04v.086l.075.036h.025l.036.025V10.2l.025-.04h-.118v-.04l.14-.026.226-.06.166-.034.064-.053h.079l.086-.036.122-.025h.115l.04.1h.178l.055-.042v-.082h.207l.04-.031v-.467L20 9.331l.036-.04v-.07l.025-.04.039-.029h.044l.093-.044h.068l.039.026.064.071v.04l.075.036h.087l.036-.025.036-.036v-.151l.057-.118-.036-.029-.046.029h-.075v-.04l-.029-.025v-.118h.114v-.022h.044l.036-.031h.161v-.04h.459V8.6h.072v-.159h.057V8.4l.189.036V8.41h-.029v-.032h-.154l-.079-.055v-.031h.036v-.068l-.078.046h-.373v.036h-.036l-.029.029v-.029l-.054.029h-.04v.035h-.308v-.024h-.1l.033-.036h-.136v-.029h-.062v-.242h.029l-.029-.067-.031-.036V7.7h.036v-.068h.143v-.073l.029-.029h.036l.048-.06h.028v-.032h.036L20.6 7.4h.029v-.027l.036-.025.062-.064.029-.033h.082v-.028h.028l-.035-.023v-.06l-.05-.046h-.295v.025h-.057v.036h-.06V7.2h-.061v.03H20.1l-.032.031a.041.041 0 0 1 0 .029h-.025l-.029.037v.029h.036v.036l-.072.046-.033.031-.04.064h-.071l-.029.036-.065.026h-.071v.1h-.1l-.029.029h-.032v.033l-.072.036v.066h-.075v.06h.029l-.051.1v.037h-.029V8.2a.126.126 0 0 0 0 .051v.108h.04l.029.025h.042l.062.053h.04v.057l.032.029V8.6h-.032v.025h-.036l-.04.036h-.033V8.7h.075v.031h-.029v.037h-.036l-.062.046-.036.036h-.072l-.029.04H19.1v.036h-.025l-.025.107v.029h-.04v.137l-.033.037v.024l-.031.036-.029.079-.055.056-.039.068-.036.042-.029-.04h-.183v.04h-.035l-.047.033V9.6a.057.057 0 0 1 0 .037v.04l-.04.04h-.086l-.085.029h-.04l-.031-.029v-.226h.036v-.067h.036v-.057h-.029v-.186h-.036v-.073l-.036-.115.036-.049v-.079l-.036.036v-.215h-.062V8.6h-.054l-.086-.029-.031.033-.04.036-.04.026h-.036L17.8 8.7l-.14.1-.036.033-.083.031h-.029l-.078.025h-.173l.032-.036h-.064l-.025-.031h-.031v-.036l.036-.04.025-.036v.026h.036l.036-.037-.046.029V8.7h-.018v-.04l-.036.037V8.6h.051l.061-.444h.04v-.033h.029l.031-.036.048-.026h-.106l.026-.025h.036v-.057h-.036v-.035l-.051.042v-.06l.044-.036v-.035h-.033l-.064.036v-.062h.064v-.036h-.036l.031-.04.029-.007v-.014h.037l.036-.029h.1v.026h.014v.011h.053v.014h.022V7.74h-.022v-.022h-.036l-.018.007v-.007h-.014l.014-.015.021-.022-.018.022h.055l-.033.011h.126l.022-.015.021-.014h-.036v-.004l.008-.01h.029V7.7h.137v-.022l.089-.026h-.1v-.024h.162v.036l.011.008v-.026h.051v-.029l.033-.033h.06l-.031.033h.04l.028-.018-.021-.007h.029l-.008.007.054.011.036-.026.036.051h.029v-.029h.114v-.018H18.417l-.036-.075v-.029l-.04.014.04-.027h-.029l.111-.04.025-.031h.029v-.029h.064v-.033h.065v-.051l.042-.025.037-.029h-.062V7.2h.1l-.068.026h.143l.042-.03h.051l.064-.031.04-.029-.068.04V7.14h-.037v-.029l.036-.025v-.415h-.031v-.033h.031l.029-.06h.04v-.029h-.049l.036-.026h.057v-.031l.036-.022v-.029h.1l-.046-.029h.3v-.028h-.119l.071-.036h.066v-.022h.025v-.01h.043l-.018.01h.068V6.3h.053v.051h.033v-.025h.057v-.01h-.075v-.04h.427v-.025h-.025v-.025h.082l.043-.046-.018-.011H20.211V6.1l.025-.031.255-.186-.015.031h.09v-.007a.052.052 0 0 0 0-.025h.093v-.021h.029v-.026h.351l-.072.051v.025h.083l.05-.031h.025v.042h.079V5.9h.122v.025h.046v-.054h.075v.194a.026.026 0 0 1 0 .025h.184l.029.011h.068v-.029h.025l.061.046h-.054l.1.15h.061V6.3h.033v.022h.48l.1.046h.085l.1.062.129.064h.057l.029.031h.046v.033h.025l.036.022.008.254v.029l.031.033v.053l-.075.1h-.469l-.152-.033-.084-.04h-.007V7h.031v.029h-.034v.089h-.025l.011.1.028.062.036.025h.032v.062h.028l.071.029h.062l.032.031h.071v.033h.219l.029-.025h.036V7.4l-.02-.027v-.028h-.133l-.1-.086-.032-.031.047-.037v-.029l.1.036-.026.066h.04v.031h.104l.072.022h.2l-.025-.029v-.06h-.036l-.085-.079V7.09l.053-.037.036-.053h.054l.043-.04V6.9h.215V7h.073v.029l.029.036v-.273l-.029-.024h-.086v-.256h-.068l-.065-.036h.348v.033l.043.025h.028l.033.029.053.057h-.126v.029l.1.036.025.033v.029l.093-.133h.054v.025l.1-.025h.029V6.47h.122l-.046-.029h.083l.031-.029v-.024l.029-.031h.047l.029-.026h.068v-.043l.049-.044h.062V6.3l.036.025.026.026h-.046v.025h.078l.072.026v-.025l.025-.025h.241v-.026h.029V6.3l.04.025L25 6.3h.068l.036.025v.022h.118v-.03l-.042-.026h.029v-.054h-.026l-.064-.055-.044-.025h-.04v-.05h.265l.173.119.1.036h.24l-.046-.139h.051l.036.029.114.049.068.026h.064l-.032-.033v-.025l-.036-.051-.04-.025h-.033l-.093-.051h-.043l-.023-.025h-.1l.028.026-.046-.026-.028-.025-.054-.049h-.029l-.046-.026-.046-.053h-.029l-.05-.051h-.1l-.04-.04V5.7l-.046-.046-.1-.086-.054-.04h.273l.064.04h.039l.183.32h.025l.032.025v.025h.036l.051.026h.064l.046.025h.079l.057.049.036.03h.037l.031.025h.029l.065.033v.029h.029l.036.025h.033l.036.093V6.3l.075.051h.046l.068.031.076.033.036.025.036.051v.031h.044l.029.033.029.022v.083h.031l-.031.033v.029h-.14l.039.036h.094l.089.029h.172l-.057-.064v-.052l-.053-.057v-.095l-.036-.031-.083-.053-.09-.051v-.028h-.036l-.025-.026.032-.033h.125l.087.119h.036l.051.025.029.029h.031l.055.03.028.025.04.026v.029h.157l-.291-.561h-.051l-.039-.031-.06-.051-.037-.025-.038-.025h-.059v-.026h-.038l-.047-.026H26.4v.036h-.061l-.051-.025h-.025v-.024h-.043l-.043-.022h-.04l-.028-.031-.055-.051-.046-.051h-.036l-.09-.04h-.168L25.65 5.6h-.036v-.034h-.033l-.1-.062h.064l.108.062.054-.4.036.025h.086l.036.026h.255l-.033-.026h.047l-.072-.025h-.032l-.068-.026-.025-.014h-.1l-.029-.026h.079a.014.014 0 0 1-.01 0h.014a.014.014 0 0 1 .008 0h.001H25.879l-.1-.033h.133l.075.033h.207l.072.029h-.126l-.07-.029h-.17l.05.022c.072.022.14.046.212.068a16.078 16.078 0 0 1 10.69 12.732l-.052-.032c.064.394.111.792.14 1.187v.154l-1.183-.037v.141a.154.154 0 0 1 0 .056v3.069l-.029.051v.39l-.043.04v.026h-.051v-.376l-.029-.044v-.44h-.032v.057a.248.248 0 0 1 0 .071v.387a.147.147 0 0 1 0 .055v.09a.154.154 0 0 0 0 .056v.168h-.15v-.48l.025-.055V22.4a.14.14 0 0 1 0-.053v-.122a.162.162 0 0 1 0-.057v-1.195l-.025.051v-.276l-.409-.011v-.57l-.068-.245v-.011l-.025-.056v-.623h-.025l-.452.022v.086a.073.073 0 0 1 0 .038v-.031a.119.119 0 0 0 0 .049v.083h-.034v.254l-1.116.232v.066h-.028v.051l-.032-.037v.072l-.086.051h-.029v-.048l-.033.048v.049l-.025.051-.029.051-.025.056v.1l-.032.066v.029l-.025.029-.029.046-.032.057-.029.033-.036.036v.029l-.036.036v.2l-.036.033h-.09v.148H32.6v1.247l.025.046a1.007 1.007 0 0 1 0 .144v.057l-.033.029h-.036v.051l-.033.051-.028.06v.051l.028.029h.036v.046l-.025-.033h-.074l-.065.033-.025.046v.09l-.04.051-.036.031h-.064l-.032-.036v-.638a.105.105 0 0 1 0-.051V22.2l-.033-.057V21.2l-.021-.055-.033-.057v-.731l-.026-.056v-.13h.029v-.057l-.029-.051v-.3l-.025-.105-.025-.049v-.059l.036-.038h-.083v-.037l.032-.057-.032.026v-.064l-.025-.031-.036.025v.057h-.037v.051h.036v.108l-.033.049-.038.029h-.037l-.036.033h-.112l-.04-.033h-.036l-.036-.038-.036-.051-.029-.057-.04-.044-.036-.057-.042-.049-.04-.051v-.089l-.072-.115h.072l.04-.022.036-.037h.036V19l.022-.037h-.108l-.04.029h-.075l-.036-.029-.046-.036-.04-.036-.033-.049v-.062l.036-.036.033-.033h-.025l-.037.037-.042.042v-.057l-.033-.042h-.036l-.036.029v-.037h-.039l-.029-.1v-.1h-.075v-.1l-.064-.107h-.034l.04.026h-.079l-.077.031h-.537l-.04-.046-.042.033h-.087v.042H29.6l-.04.025h-.042v-.036h-.044l-.043.031h-.126l-.038-.049v.036h-.306l-.043-.046h-.172l-.046-.036-.046-.033-.014.079v.175l.021.051v.057l.043.051.036.053-.011.2h.09l.068.033h.176L29.1 19l.042.057v.055l.044.053.036.057h.085v.133l-.025.06v.055l-.029.051-.043.036-.039.046-.039.112-.037.049v.066h-.046l-.029-.051-.064.107v.355h-.114l-.141.172-.025.053v.119l-.039.04-.173.025-.042.033-.04.057v.111l-.046.029h-.251l-.046.038h-.219l-.093.051-.043.046v.313h-.139l-.048.025h-.172l-.133.086h-.14l-.1.049-.046.055-.04.051-.047.042H26.3l-.051.026H26.2l-.046.057h-.136l-.057.029h-.237l-.049.036-.051.057h-.057l-.029.053h-.1l-.053.036h-.047l.044.046v.053l.072.037.036.057v.139h-.136l-.055.082h.193l.083.064.053.112.1.1.021.025h.194l.05-.036h.051l.054-.029h.251l.05-.037.076-.049h.2l.1-.048h.094l.19-.064h.093l.094-.06.042-.057h.1l.025.036-.043.108v.208l-.04.051h.026l-.026.042a.155.155 0 0 1 0 .062l-.172.1v.078l-.04.051v.036l-.036.04v.1l-.037.062v.057l-.057.04v.074l-.039.066-.075.1-.025.053v.051l-.026.1-.193.358-.036.051-.04.051-.036.051-.04.049-.032.04-.029.057v.049l-.1.1-.029.036-.031.033-.051.051-.036.036-.064.064-.051.049-.049.051-.026.033-.057.042-.161.105h-.086l-.047.031-.049.037-.051.036-.108.1-.136.109-.158.163-.064.068-.09.1-.046.038h-.037l-.029.046-.039.051-.037.049-.046.044h-.09l-.046.079-.036.051h-.082l-.044.046a.1.1 0 0 0 0 .051v.042l-.025.036v.089l-.036.057v.037l-.029.046-.04.042-.051.033v.051l-.036.051v.046l-.05.1-.029.082v.046a.089.089 0 0 0 0 .042l.068.068v.055l.046.036-.046.051v.124h.037v.068l-.037.042v.148l.055.1v.223l.064.036v.051l-.025.137-.037.049v.327l-.046.036.033.04v.179l-.033.044v.208h.036v.046l-.064.09v.079l-.05.042-.108.129h-.053v.042l-.093.055-.079.053h-.17l-.172.075-.075.048-.04.049h-.043v.046l-.089.079h-.04v.036h-.033l-.05.036h-.04l-.078.088-.09.075h-.046v.04l-.029.082.061.086v.555l-.046.15h.04l-.036.083-.075.075-.086.036-.3.1h-.032l-.046.033-.029.053v.046l-.037.179-.064.144v.137l-.1.057h-.075l-.09.089-.05.068v.026l-.051.06-.036.062-.057.075-.072.075-.1.071-.137.133-.075.066h-.075l-.14.1-.115.04h-.136v.029h-.129v.031l-.207-.036h-.212l-.072.055h-.273l-.09.068zm3.124-4.134l.042.057v-.133l-.025-.051v-.316l.036-.046v-.124l-.04-.051v-.309l-.046-.036h-.04v.111l.04.046v.288l-.064.092-.036.062.029.051v.269h.039v.135l.033-.046zm-.921-1.326v.046h.075l-.021-.015v-.046l-.025-.029zm-.022-.123l.032.026v-.008l-.032-.056zm-.295-.807v.176l.033.051v.04l-.033.049v.042l.033.051.1.126.078.1h.044v-.075l-.072-.1h-.057l-.042-.04v-.051l.042-.046v-.046l-.021-.049v-.133l-.043-.04v-.1l-.025-.055zM17.6 26.8h.031l.055-.029h-.056zm4.108-.373v.051l.055-.029-.055-.115zm.455-1.448l-.036.046v.018l.036.046.068-.1h.057l.04-.051v-.1h-.011zM11.472 23.11h-.043zm-.613-1.3h-.029zm13.883-.55v.115h.051l.165.154.042.057h.051l.046.029.04.068v-.055l-.029-.053v-.721l-.04-.057v-.168l-.046-.051-.046-.044-.054-.042v-.144l-.043-.049v-.112l-.094-.161-.107-.133-.051-.036-.1-.04-.051-.04-.064-.111-.043-.051-.029-.062v-.476l-.044-.051v-.112l-.031-.06V18.8l-.072-.057-.085-.051-.04-.036h-.057l-.04-.077-.042-.053v-.1l-.036-.051-.029-.049-.036-.06-.051-.059-.036-.118-.036-.057-.044-.083-.085-.1v-.06l-.051-.051-.057-.115-.046-.051h-.143v-.031l.028-.105v-.282l-.036.046-.122.036v.1l-.04.1v.1l-.032.051h-.029L23 17.548l-.049-.049-.037-.059h-.031l-.05-.053v-.12l-.064-.062-.083-.137v-.022l-.029.075v.044l.04.051v.09l.072.1.143.075v.029l.04.051.068.064v.108l.078.1.025.057V18l.062.115v.1l.064.077.025.056v.052l.133.137v.057l.029.053.031.057.051.051.051.053h-.015v.3l.04.053h.111l.033.055.1.079.029.045v.168l.046.055.028.053-.038-.029.029.163v.118l.031.146v.055l.037.168.121.175h.051l.051.044.049.053.057.051.051.036v.055l.036.06.029.062.04.16v.174l.031.057v.051l.051.036.122.06v-.057zm10.7-.272v-.011zm.308-1.37v-.057zm-1.316-.247v-.018zm0-.111zm1.316.04zm0-.17v-.04a.077.077 0 0 0 .005.036zm-8.017-.43v.055h.033l.111-.029.046-.048h.3l.04-.049h.055l.064-.09v-.033l.029-.053.043-.037.04-.049.036-.046.071-.075-.029-.046v-.269l-.031-.051H28.4l-.044.033h-.086v.04h-.042l-.044.038-.043.04h-.093L28 18h-.136l-.036-.055h-.1l-.05-.038-.036-.029-.029-.051-.046-.036h-.051l-.051-.042h-.09l-.053-.04-.029-.046v-.044l-.036-.057v-.055l-.029-.049V17.4h-.046v-.075l-.046-.051-.042-.057-.033-.046-.033-.051h-.029l-.046.033h-.033l-.054-.025h-.047v-.051H26.8v.13h-.062v.031l-.121-.051v.066l.028.051h-.039v.049h.05v.078l.071.09v.051l.037.04.049.118a.042.042 0 0 0 0 .026.051.051 0 0 0 0 .029v.031h.222a.051.051 0 0 0 0 .029l.051.051h.036v.046l.05.04.029.036v.025l.043.044v.051H27.2v.1l.086.1.014.036v-.082h.025v-.083h.334v.04a.228.228 0 0 1 0 .068v.287h-.046l.028.031v.048h.043a.067.067 0 0 1 0-.037zm-1.143-4.2a.14.14 0 0 1 0 .075v.476h1.14l-.111-.211v-.466a.037.037 0 0 0 0-.025h-.086a.038.038 0 0 0 0-.025h.036V14.3h-.111a.106.106 0 0 1 0-.051h-.366a.035.035 0 0 1 0 .029l-.036-.033h.033v-.029h-.27v-.04h-.125v-.046h-.144v-.053h.334v-.112h-.962v.026h-.085v.04h-.029v.06h.3v.231h.028v.025h.384v.085h.262v.026h-.192zm-6.978-.072v-.038h-.043v.038zm8.609-1.76v.132h.115v.029h.264v-.04h.025l-.207-.133H28.4a.034.034 0 0 1 0-.026v-.03h-.061v-.029h-.029l.029.029v.033h-.115zm2.585-.312v.025l.029.04v.133l.093.089.036.051v-.161l-.036-.1V12.4h.029v-.09l.05-.025v-.04l.046.04h.334l-.055-.036h-.218l-.051-.044h-.183l-.051.026v.075h-.025zm-2.471-.086v.03h.111v.025h.047v-.06h-.083v-.029h-.075zm3.091.018h.122v-.064l-.025.046-.036-.046v.046l-.042-.036zm-9-.062l.042-.025-.079.025zM33.4 10.673v.127l.046.021h.032l-.032-.071v-.04l-.046-.083-.04-.049v.011l.018.038zm-17.064.036h.031v-.025h-.031zm.727-.416h-.032zm.574-.1l.029.04h.015l-.044-.064zm.585-.172h-.046zM32.825 9.7l.036.036.029.04.057.018-.057-.071a.311.311 0 0 1-.036-.037l-.029-.038zM17.346 8.64h-.015zm.075-.6l.046-.026v-.035zm.133-.093v.071l.057-.071h-.071zm.2-.175h.008V7.7h-.008zm-.1-.029v-.025h-.018v.022zm-.243-.008zm.146-.018zm.534-.033h-.021zm.388-.122h.015l.018-.011zm.04-.014h.036l.039-.029zm.411-.348h-.036zm3.138-.265h-.022zm-.007 0h-.015zm-.126 0h.057-.007V6.9h-.051zm-2.829-.376h.064l.055-.029h-.119zm.585-.179h-.033zm-.2-.021zm.011-.008h.014v-.01zm.7-.154h.029l-.031-.014h-.008zm5.958-1.011zm-6.77 27.687v.027zm12.762-.85l.031-.031v-.033l.04-.036.029-.029.032-.037.036-.036.029-.038.036-.036.036-.036.036-.04.036-.037.028-.036.033-.036.029-.04.01-.018.014-.026.036-.031-.029.031.036-.037.011-.011-.014.011.018-.018v.007l.025-.029.029-.036.042-.04v-.036l.029-.036.036-.038.029-.044.033-.04.036-.036v-.036l.036-.044.036-.036.032-.044.036-.031.033-.044.126-.078.036-.044.036-.038.029-.037.032-.04V30.6l.029-.036.036-.04.04-.046.036-.037-.036.04-.032.046-.033.037v.025l.033-.04.032-.036.036-.04.072.007a16.294 16.294 0 0 1-1.449 1.575zm.44-.515l-.01.011zm-10.326-.09v.036zm10.413-.011l.036-.04.029-.036-.029.036-.036.04.036-.036-.032.036-.014.018zm-7.8-.2l-.053-.062h-.046l-.033-.033h-.029v-.078l-.036-.077.025-.118.033-.029v-.29l.04-.068.029-.044v-.04l.036-.025.032-.04v-.042l.039-.04.061-.086.051-.053v-.524l.062-.09.064-.082v-.079h.108l.042-.046h.037l.1-.064h.06l.022-.014v-.04l.046-.033.076-.046-.008-.011.047-.046v-.044l.046-.031-.044.089.083-.089h.046v-.011h-.055v-.051l.055-.029.025-.093v-.038l.025-.048h.122l.036.033.033-.046h.046l.051-.04v-.18h.043l.049-.049v-.044h.04l-.04.04h.044v.086l.033.036v.665l-.025.051h-.04v-.084l-.025-.029-.033.044v.182l-.075.086-.039.064-.026.13v.126l-.107.16-.086.17-.053.079-.148.268-.1.154-.089.176-.054.089v.036l-.075.111v.044l-.057.075-.044.037H25.1l-.079.031-.068.044zm-17.29-1.858a.245.245 0 0 1-.029-.04l-.021-.036.053.075zm-.049-.075zm0-.007v.007zm-.025-.042l-.023-.025-.021-.036.007.01.046.066-.014-.018v.027a.032.032 0 0 1 .001-.025zm-.119-.148l.051.051v.029zm181.122 0a7.656 7.656 0 0 1-7.993-7.909h.011v-.055c0-4.367 3.112-7.96 7.591-7.96 5.106 0 7.444 3.962 7.444 8.3 0 .34-.025.742-.058 1.144h-10.628a3.541 3.541 0 0 0 3.739 2.993 5.006 5.006 0 0 0 3.658-1.574l2.477 2.2a7.633 7.633 0 0 1-5.959 2.86c-.1.007-.19.003-.286.001zm-3.729-9.19h6.537c-.258-1.943-1.4-3.258-3.224-3.258s-2.98 1.288-3.317 3.257zm-112.78 9.192a7.343 7.343 0 0 1-7.362-7.7c0-4.278 3-7.71 7.086-7.71 4.367 0 6.874 3.485 6.874 7.823v.772H66.863a5.164 5.164 0 0 0 5.2 4.908v-.007a6.1 6.1 0 0 0 4.651-2.084l1.373 1.233a7.632 7.632 0 0 1-5.887 2.769c-.065 0-.126 0-.191-.004zm-5.146-8.59h9.5c-.258-2.681-1.8-4.966-4.705-4.966-2.529 0-4.475 2.111-4.795 4.966zm39.945 8.555c-3.543 0-5.648-2.4-5.648-5.9h.011v-9.167h2.194v8.6c0 2.736 1.484 4.449 4.08 4.449a4.348 4.348 0 0 0 4.421-4.621v-8.43h2.173v14.757h-2.173v-2.57a5.6 5.6 0 0 1-4.895 2.886c-.052 0-.109 0-.163-.004zm53.282-.029c-2.886 0-5.253-1.65-5.253-4.676v-.049c0-3.335 2.531-4.877 6.163-4.877a10.8 10.8 0 0 1 3.74.623v-.253c0-1.8-1.115-2.8-3.285-2.8a11.371 11.371 0 0 0-4.223.826l-1.083-3.309a13.435 13.435 0 0 1 5.935-1.229 7.089 7.089 0 0 1 5.17 1.713 6.787 6.787 0 0 1 1.657 4.88v8.864h-4.2v-1.653a5.858 5.858 0 0 1-4.363 1.947 5.48 5.48 0 0 1-.258-.007zm-1.058-4.908v.062c0 1.168.965 1.857 2.367 1.857 2.026 0 3.4-1.12 3.4-2.689v-.767a6.647 6.647 0 0 0-2.689-.57h-.076c-1.857 0-3.001.741-3.001 2.107zM50.093 26.849l1.119-1.57a8.6 8.6 0 0 0 5.107 1.883c1.771 0 3.037-.911 3.037-2.339v-.06c0-1.481-1.736-2.055-3.679-2.6C53.364 21.51 50.8 20.715 50.8 18v-.057c0-2.528 2.112-4.221 5.017-4.221a10.132 10.132 0 0 1 5.31 1.626L60.115 17a8.351 8.351 0 0 0-4.368-1.431c-1.743 0-2.851.911-2.851 2.141v.057c0 1.4 1.822 1.944 3.79 2.532 2.285.681 4.737 1.565 4.737 4.219v.055c0 2.8-2.305 4.427-5.246 4.427a10.19 10.19 0 0 1-6.084-2.151zm84.575 2l-6.017-15.414h4.59l3.428 10.247 3.453-10.247h4.511l-6.024 15.414zm12.671-.115v-15.3h4.335v15.3zm-28.384 0l.014-14.755h2.2v3.856a6.331 6.331 0 0 1 6.031-4.115v2.365h-.19c-3.219 0-5.848 2.316-5.848 6.766v5.88zM35.36 27.5v-.246h-.05l.051-.1v-.04h-.029v-.137l.029-.046h.029v.1l-.025.1.032-.051.036-.064v.084l-.011-.036v.261l-.061.111v.1zm.029-.573v.031zm0-.008v.008zm.093-.1v-.742l-.036.042.025-.042V25.9l.01-.018v.018a.106.106 0 0 0 0 .046v.921zm1.129-.678v-1.296l-.025.04v-.774l.736-.174a15.089 15.089 0 0 1-.71 2.253zm-.979 0v-.111l.033.018-.025.042a.106.106 0 0 1-.036.1zm-.036-.014v.046zm-.115-.1v.051zm.115-.086v-.051l.025-.053v.029l-.025.093zm-.115-.1V24l.036-.04v1.419l.025-.036v.108l-.031.038v.345l-.029.046zm.14-.007v.018zm0-.029v.029zm0 .011v.018zm-29.168-.01v-.172q-.214-.628-.38-1.273c-.033-.133-.064-.268-.1-.4l.057.111v.13l.04.1v-.012l.237.049v.051l.031.111v-.071l.04.157v.051l.039.1v.16l.033.055v.111a.065.065 0 0 1 0 .04v.567c.022.049.036.1.053.153zm10.19-.232v.046zm18.943-.087v.048zm.046-.038V25.4h.025l-.025.051v.025zm-29.054-.016v.029zm29.079-.524V24.4a.14.14 0 0 1 0-.053v.227a.528.528 0 0 1 0 .1v.3zm-19-.495v.029zm-10.584-.053v.031zm29.585-.036v.025zm-19.79-.042zm.057-.04v.046zm19.732-.2v-.4h-.029v-.416h-.014v-.119h-.04l.04-.018v.018h.014v.119h.029v.8a.126.126 0 0 1 0 .051zm.947-.022v-.051a.308.308 0 0 1 0 .079zm-30.668-.1l-.025-.036v-.036l-.061-.029v.007h-.086v-.15l-.033-.064V22.9l-.025-.06v-.4l.062.438q.085.543.207 1.076zm-.172-.018v.051zm31.568-.011v.04h-.011c.004-.008.007-.023.011-.037zm-31.421-.004v.049zm-.086-.062v.051zm.025 0v.044zm27.33.008h-.086v-.187l.165-.029v-.544l.025-.057v-.1h.057v-.071l.054.071v.362l-.065.044v.4l-.075.082-.039.026zm-18.061-.051h.031zm-9.388-.118v.068zm29.744-.561h.1l-.1.044zm.685-.057h.05v.04l-.05.026zm-30.453-.206v.011zm0 0v.011zm21.69-.175h.042zm8.207-.119v.026zm-10.542-1.294h.046zm7.6-.04v.018zm0 0zm2.757-.19v.057zm-30.506-.61zm31.876 0v-.495l.025.018v.506zm-3.7-.194l.033-.036-.033.046zm1.858-.3v.051zm0 0v.046zm-24.433-.3v.057zm0-.018v-.033l.007.014-.007.037zm23.927-.2v.1zm0 .008v.06zm0 .021v.029zm0-.046v.016zm0 0v.016zm0 0zm0 .018zm-.002-.022zm0 0zm0-.01v.01zm0-.015v.025zm.452-.122v.051zm-11.32-.427h.036zm3.635-.815v.026zM22.743 16.7h.029zm-.477-.144h.025zm.506-.867l-.048-.072h-.1l-.046-.051v-.036l.071-.051h.083l.049-.033h.133l.093-.027.093-.046h.043l-.05.042-.051.022-.06.082v.046l.036.046h-.09l-.042.051-.065.026zm-2.03-.112h-.15v-.025l-.072-.057h-.208v-.1l.1.026h.057v.049l.1-.025h.258v.046h.151v.051l-.037.036zm.656-.294v-.1l.051-.036h.051l-.026.1-.029.036zm.134-.272l.025-.019v.019zm-.105-.019h.015zm-4.793-.544V14.4h-.048l.044-.186-.022-.011v-.051l-.036-.031.031-.086v-.055l-.036-.046v-.089l.04.036h.1l.054-.057.05-.036.043.026.04.046.036.135-.036.051v.212l-.029.1h-.115v.057l-.05.04zm10.873-.148h.04zm-.071 0h.022zm-7.146-.112h.031zm-.015 0v-.04l-.011-.025h.011v.021l.015.04zm5.835-.122v.025zM20.473 14l.046.046zm-3.683-.316v-.051l-.036-.025.036-.046h-.1l.031-.09v-.031l.033-.051.1-.049h.04v-.051l.036-.044v.258l-.04.051v.064l-.057.09zm-10.3-.99l.022-.029v.044l.036-.04v-.018l.061-.079v.015c.078-.141.161-.272.24-.409v.042l-.025.046v.051l-.049.086v.111l.025-.036-.025.042v.094l-.048.057-.031.046v.029l-.026.025v.007l-.005.01-.023.023v.246l-.362.051zm.15.123l.014-.021-.014.023zm21.693-.062v.045zm-21.671.027l.005-.005-.014.019zm16.016-.1h.031zm-16.164-.031l.025-.04v.026l-.025.031zm.458-.064L7 12.54v-.04l.031-.046.026-.033v.079l-.083.112zm16.128-.022v.011zm-16.486 0v-.022.022l.021-.04.025-.046-.046.09v.007zm.384-.079l-.033.038zm0-.033v-.027l.029-.04.033-.046v.06l-.022.029V12.4L7 12.447v.043zm.062-.053l.01-.014.018-.026v-.01l.008-.011v.036l-.025.046.008-.022-.015.018v.007zm.036-.036zm0-.031v-.055l.018-.029v.015h.025l.018-.022-.014.022-.018.022-.025.04v.007zm15.2-.075h.046zm-15.187-.023l.032-.042h.007l-.032.046-.007.011zm15.149-.011h.033zM7.148 12.2l.022-.04v.04zm.441 0v-.048h.033l.028-.052h-.025l-.036.046.011-.036.029-.046.025-.044.032-.042.029-.042v-.079l-.04.051v.007l-.008.011-.036.036-.007.014.018-.021.025-.029-.021.029-.029.038v-.013L7.6 12l-.01.011.014-.022.011-.011v-.025l-.015.017v-.044l.029-.042-.036.04-.029.046h-.075v-.046l.025-.04.033-.046.025-.025.036-.044.032-.04.032-.086.036-.04.018-.018.008-.014.04-.044.031-.046v.033l.029-.029-.036.046-.036.04h.025l.036-.04.036-.04.04-.036-.029.038a.085.085 0 0 0-.025.037l.036-.04v.051l-.036.042-.025.029-.044.044v.044H7.8l-.036.036.036-.04.036-.042-.025.042-.037.044-.014.014v.008h.002l-.015.014v.044l-.029.04v.085l.036-.046.029-.038.037-.046.036-.03-.033.04-.029.04-.036.046-.033.049.033-.038.036-.04v.04l-.025.046-.033.04-.036.049-.025.048-.029.038-.032.048zm0-.055zm167.451-.021a2.266 2.266 0 1 1 2.276-2.27v.018a2.267 2.267 0 0 1-2.262 2.252zm-25.52 0a2.27 2.27 0 1 1 .021 0zm-141.985-.05l.011-.015v.011l-.044.044zm.011-.051l.018-.018v.022l.022-.018-.015.018-.025.031zm-.258-.082l.025-.042c0 .036-.046.074-.072.113zm.276.059l.022-.019-.011.011-.011.015zm.036-.03l-.01.01zm.064-.046v-.007.007zm-.189-.369v.15l-.029.025-.136.072zm6.845.241h.053zm-6.677-.252l.008-.011v.011zm.008-.026v-.049l.025-.04v.071l-.025.037zm.186-.075l-.029.044v-.044l-.042.044.031-.04h-.028l.029-.025.033-.046.028-.029.036-.04h-.037l.032-.042-.042.042-.029.033-.044.046.033-.046.025-.04.029-.046.169-.086-.04.046-.033.04-.031.046-.033.04v.053l-.032.038-.021.046-.008.008zm-.057-.056l-.029.042zm-.1.021v.022zm.746-1.11a.491.491 0 0 1 .046-.051l-.018.021.042-.033h-.021l.015-.018a.182.182 0 0 0-.026.033l.007-.018V10.2l.029-.036-3.05.036a4.152 4.152 0 0 1-.466.026 4.582 4.582 0 1 1 4.195-6.5l.147.319 1.829 3.933.029-.029.04-.029.018-.007a.078.078 0 0 0 .014-.026h.033l.031-.027-.042.027.029-.036h.036l.033-.031.031-.037.043-.031.051-.029.04-.037h-.021l-.037.026.04-.037.04-.036h.011l.036-.029.029-.025.23-1.058h-.033l.046-.036h.036l.039-.029h.094l.031-.031.048-.036-.048.031H12l.05-.026.051-.029h.011l.038-.033-.036.033.04-.033.05-.029h-.05l-.051.036h-.036a.05.05 0 0 1 .044-.036h-.051l-.044.029-.042.033-.043.029h-.025l.036-.029.036-.033.046-.029.037-.033h.014l.037-.025.036-.029.039-.033.043-.029-.04.026.047-.037H12.2l.043-.031h.068l.048-.022h.01l-.046.022h.015l.036-.022.011-.007h-.011l.054-.026-.043.026h.085l.051-.029.036-.033h-.022l.048-.025h.075l.05-.037h.071l.046-.036h-.344l.04-.025.051-.025h.455l.042-.029h.1l.043-.033h.121l-.042.033h.009l.04-.033h.14l.046-.025h.051l.046-.026.04-.025h.046l-.036.025.04-.025h.068l.053-.029h-.025l.049-.025.051-.029h.022l.039-.026h.036l.046-.025h.295l.04-.026h.176l.046-.025h.062l-.044.082-.051.1A16.357 16.357 0 0 1 18.4 4.655l.3-.044-.38.9h-1.555l-.05.026h-.481l-.043.025v1.23h.072l-.047.026H15.19l-.036.025h-.137l-.039.026-.042.025h-.055l.029-.033h-.136v-.04L14.8 6.8h.1l.031-.036h-.337l-.031.025v.021h-.144l-.046.03h-.031v.021h-.455l-.048.033h-.057v-.025l.037-.026h-.029l-.033.026V6.9l-.039.029h-.075l-.044.022h-.1l-.029.031h-.04v.033l-.04.022h-.108l-.039.029H13.2l.032-.029-.04.029-.047.029-.038.031h-.059l-.028.026v.025l-.046.029a.053.053 0 0 0-.036 0h-.008l-.032.026h-.036l-.015.007.007-.007h-.007l-.011.007h-.016l-.025.018-.033.025h-.042l-.047.026-.049.031-.04.029h-.037l-.025.037h-.029l-.036.025.025-.029h-.072l-.04.029v.031l-.031.025-.029.029v.026h-.057v.025l-.051.033v.025l-.039.029-.036.033h-.037l-.031.036v-.044l-.046.036-.04.029-.033.038-.046.037h-.024l-.029.036h-.031l-.026.036v.025l-.025.029-.051.036-.043.036-.033.037-.115.2v.017l-.046.029h-.029v.031H11.4l-.042.037h-.022l.814 1.753-3.586.042-.029.026-.033.036a.09.09 0 0 1 .022-.033h-.016c0-.007.011-.014.018-.025v.022l.025-.025H8.5v.025h.008L8.5 10.2v.025h.015l.029-.04h.025l-.029.029v.205l-.025.06-.033.04-.036.042-.029.04v.029l-.029.033-.029.04v.04l-.025.042-.007.008h.025l-.029.042.036-.036-.028.046-.031.035-.033.046-.026.038-.032.036-.042.044-.036.04-.036.042-.064.037.033-.04.031-.044.054-.107.029-.036-.04.038h-.026v-.025l-.046.036-.036.025-.03.041-.033.029-.05.068-.04.055-.036.042h-.022v-.057l-.172.119c.243-.349.502-.685.77-1.007zm2.8-2.368a.02.02 0 0 0 .014-.007zM3.5 4.476A1.884 1.884 0 1 0 5 3.745a1.882 1.882 0 0 0-1.5.731zm8.614 1.898zm0-.094h.011l.051-.025h-.026zm1.65-.139zm-.753-.223h.029l.04-.031h-.04zm.293-.06H13.3zm-.004-.001zm0 0zm-.129 0h-.039zm.61-.108h-.044zm2.775-.294l.022-.025h-.018zm-2.173 5.708h-.042v-.04h.042l.04-.025.051-.04h.039l.046-.044.055-.078h.036l.072-.057h.219l.043-.04h.029l.078-.075-.075.053h-.046l-.072.046h-.053v-.031l-.025-.025h-.065l.043-.026h-.043v-.029h-.046l-.04.026h-.057v-.026h-.046v-.042l.042-.04h.079l.086-.048.061-.042v-.044h.025v-.078h-.029l-.046.036h-.046l.054-.044.042-.025.051-.049h-.036v-.04l.049-.04v.036l.087-.025h.071l.044.029v-.09l.031-.042v-.029l.055-.04.029-.068h-.035l-.036.046v-.051l-.029-.031V10l.026-.038.039-.04.135-.051.051-.025h-.1l-.09.053h-.029v.036h-.036l-.025-.025h-.036v.04l-.025-.068v-.089l.079-.078.025-.037v-.1l-.029.033v-.173l.072-.049-.046.025-.051.04-.057.111-.036.046-.043.04.039-.075.036-.04v-.045l.036-.053v-.081h.039v-.019h-.049l.04-.042h-.022l.036-.036-.014.01-.033.026-.014.011.011-.011.025-.026H15v-.038h-.025v-.04h.039v-.037h.036v.083h.039v-.017h.04v-.026h.011v-.043h.036v-.044l.111-.025h.057v-.111h.057v-.036h.033l.025-.049h.222l-.025.071-.19.1-.047.025h.029v.037h-.04l-.029.046.044-.029h.032l.09-.033h.23v.075l-.025.04-.043.037-.068.1-.062.045-.043.051-.043.025h-.043l-.068.033h.057v.064h-.036l-.053.04h.053l.046-.026h.033l.028.026h.033l.018.079.033.022v.257h.06l.029.025v.172l.008.044h-.061l.079.079v.082l-.09.071.064.029v-.046h.147l.064.046v.072l-.049.078-.111.191H15.7l-.025.04h-.083v.045h.13v.049l-.051.036h-.042l-.04.036H15.5l-.051.026h-.2v-.033h-.079l-.044.033h-.082l-.057.029h-.036l-.057-.037h-.118l-.029.09-.061.044-.068-.044V11.1h-.079l-.051.026-.036.031-.039.04zm.754-1.589h.029v-.035zm.01-.268h.026l.029-.04zm-.007-.112zm-1.3 1.611h-.072l.087-.046h-.1l.079-.051H13.7l.046-.04h-.014l.029-.044h.09v-.093l.085-.046.1-.025v-.026l-.051.036h-.072l-.053.026.1-.086v-.038l.04-.037h.057V10.3h-.072v-.046l-.046.029-.025-.029v-.04h.049l.036-.04h.029v-.026l.029-.04v-.038h.1v.025l.044-.04.057.026v-.04l.064-.036h.048l.029-.04H14.3l.044-.036h.042v-.045l.044-.04h.1v.04l.036-.04v-.036h.071l-.025.036-.025.025.049-.036h.144v.04l.029.068-.054.027h.045v.066l-.082.046-.039.04-.083.021-.031.04v.13h-.029v.118l-.036.042-.032.051-.061.066v.038h-.077v.019-.045l-.055.048H14.2l-.042.046-.044.031h-.036v-.029h-.029v.04l-.191.072zm19.535-.18h.025zM8.417 10.3H8.41zm.082-.072zm6.3-.19v.01zm0-.029v.029zm3.421.014h.029zm-.42-.435v.037zm-2.907-.078h.04zm.064 0h-.025l.018-.037h-.022l.029-.042v.042h.029a.067.067 0 0 1 0 .037zm.09-.215h.011zm-.029 0h.026zm-.039-.209l.039-.025-.018.026zm.075-.053H15V9l.025-.031V9l.025-.036.047-.029.042-.026h.036v.04l-.047.025-.037.026v.036zm4.309-.221v.036zm2.019-.371h.022zm-10.107-.548zm.7-.15v.026zm5.69-.029h-.015V7.7h.05v.011zm-5.573-.036v.029zm5.626.025h.015zm-.021 0v-.022l.042-.029-.014.019h-.008v.01l-.007.008h.007V7.7zm0 0h.003zM17.7 7.7zm0 0zm.15-.051h.036zm.208-.007zm-.002.004zm0 0zm-3.7-.2h-.1V7.4l-.046.029h-.115l.036-.036h.093V7.36h.043l.111-.159h-.082v-.028h-.05l.036-.033v-.029h-.161v-.025l.044-.025h.315l.032-.029h-.132L14.424 7l.021-.026h.079l.026-.029v.029l-.036.031h.047l-.022.022h.029l.046-.026v.026l-.04.029h-.025v.086l-.026.029V7.2l.026-.025.029-.037.046-.029.051-.025.057.238a.12.12 0 0 0 .029-.03l.025-.031h.04v.075l.033-.025v-.026l.042-.033h.065v.086L15 7.3v-.059l.032-.029h.018v.051l.046-.029.04-.026h.037l.042-.029v-.057h.054l-.029.029h.014l.025-.029h.064l-.051.029h-.014v.029h-.048v.029h.057v.029h.025l-.036.037h-.072l-.029.036h-.068v.029l-.044.025h-.049V7.4h-.094l-.042.029h-.251V7.4l-.029.029h-.155l-.042.025zm4.073-.018h.033zm0 0h.033zm-4.22-.007h.032zm4.449-.2zM14.563 7v.007zm.051 0h-.051l.029-.026h.008v-.027h.072v.031h-.037L14.614 7zm-.169-.057v.031zm-.692-.053h.025zm1.4-.051h.036l-.036.026zm1.061-.025h.033zm0 0h.029zm-.025 0h.025zm-1.439-.053h.033zm4.762-.444h.036zm-.022 0h.022zm4.393-.04h-.043l-.071-.04v-.079h.089l.094.036-.062.007.036.026v.051zm.645-.033h.04zM20.2 6.183v.011zm-.026-.018h.026zm.004 0zm0 0V6.14h.022zm.022-.025h.019zm-.01 0v-.026h.029l-.019.026zm1.634-.022h.05zM12.372 6.1zm12.568-.006h-.04l-.025-.026H25v.026zm-.089-.026h.028zm-.008 0H24.8l-.04-.018-.037-.064.051.049.072.033zm-.115-.011v-.025l.037.018v.007zm-12.219-.025h.028zm-.064-.1h.039zm8.079-.025h.05zm.081-.025h.029zm-.036 0zm-.014 0h.014zm-8.007 0h.026zm8.5-.051v.026zm-7.684-.011h.029zm-.018 0h.036zm0 0h.015zm0 0zm0 0zm0 0zm10.919-.075l-.081-.045-.062-.04h-.036v-.022h-.039l-.037-.026h-.282l-.044-.182.057.036h.072l.031.025.036.025h.068l.029.026h.15l-.027-.027.039.026h.061l.04.025h.029v-.025l.072.025h-.068l.022.208zm.007-.183h-.022zm-.3.046h.046zm-9.558-.022h.025zm-.051 0h.036zm.011 0h.025zm.308-.025h.046zm9.584-.029v-.033l.086.033h-.083zm.086 0h.029zm-.007.005zm.691-.011h.033zm.42-.022h.022zm-1.775-.078v-.01l-.01-.046h.049v.03h-.039V5.429zm-7.121 0h.022zm7.071-.062h.04zm.021 0h.018zm.019.005zm.154-.079h.032zm-.028 0h.042zm-.026 0h.029zm0 0l-.025-.018h.025l.011-.161h-.222V5.06h.025v-.011h.107v-.024h.037L23.66 5h.154v.029h-.033v.086h.057l-.057.179zm-.051 0h.051zm.048 0zm-.026-.018zm0 0zm-.051-.025h.015l.036.025zm.015 0h.011zm-.04 0h.025zm2.585-.062h.036zm-.444-.09h.025zm.001.005zm.032 0h.036zm-.076-.033H25.3l-.046-.149c.176.045.348.1.524.149zm-.419 0h.046zm-.05 0zm-1.736 0zm-.011 0h.011zm-.062 0h.072zm.074-.007zm-.029 0h.029zm.007 0h.022zm.011-.011h.036zm.007 0h.029zm0 0h.025zm.028 0zm-.029 0h.029zM23.846 5h.033zm1.254-.133h.126l.049.029h-.031v.015c-.039-.011-.089-.029-.144-.044zm-.018 0h.018zm0 0h.018zm.018 0zm0 0zm-4.86-.154h-.04v-.159h.173v.108h-.043v.026l-.04.025zm.506-.011v-.148h.029v.123h.025V4.7zm.057-.025h.028zm-.1-.062h.044zm-.025 0h-.054v-.061h.076v.062zm-.086 0h.032zm-1.868-.062h.44c-.154.019-.308.04-.466.057zm-.183.026h.036zm2.234-.026h.075zm0 0h.039zm0 0h.007zm-.029 0h.029zm0 0h-.026zm0 0H20.7zm-.044 0h-.025zm.072.001zm-.072 0h.044zm.018 0h.026zm-.1 0zm-.165 0zm.384-.149zm1.129-.033H22zm.144 0h.032zm-.014 0h.032z" class="cls-1" data-name="Unión 19"/>
            <path id="P" d="M229.213 80.34a2.361 2.361 0 1 1 0 4.716H226.6v3.379h-2.99V80.33zm-1.91.922a1.181 1.181 0 0 1 1.327 1.1 1.317 1.317 0 0 1-1.327 1.347h-.654v-2.447z" class="cls-2" transform="translate(-110.467 -39.692)"/>
            <path id="R" d="M267.109 86.414v2.026h-2.943v-2.026a1.327 1.327 0 0 0-1.327-1.332h-.649v3.353h-3.04V80.33h5.937a2.026 2.026 0 1 1 0 4.053 2.026 2.026 0 0 1 2.026 1.965zm0-.066v.066m-4.271-5.152a1.191 1.191 0 0 1 1.327 1.1 1.327 1.327 0 0 1-1.327 1.348h-.649v-2.433z" class="cls-2" transform="translate(-128.024 -39.692)"/>
        </g>
    </g>
</svg>
