<svg xmlns="http://www.w3.org/2000/svg" width="197.203" height="49.22" viewBox="0 0 197.203 49.22">
    <defs>
        <style>
            .cls-1,.cls-3{fill:#da291c}.cls-2{fill:#747672}.cls-3{fill-rule:evenodd}
        </style>
    </defs>
    <g id="logo_Segurviaje_color" data-name="logo Segurviaje color" transform="translate(-.002 .001)">
        <g id="Capa_1" data-name="Capa 1" transform="translate(.002 -.001)">
            <path id="Trazado_32" d="M161.945 44.709l1.016-1.717a9.469 9.469 0 0 0 5.7 1.89c3.272 0 5.39-1.8 5.39-5.273v-1.748a7.025 7.025 0 0 1-5.817 3.119 6.848 6.848 0 0 1-6.965-6.929v-.061a6.878 6.878 0 0 1 6.975-6.99 6.97 6.97 0 0 1 5.791 2.977v-2.658h2.2v12.228a7.105 7.105 0 0 1-1.89 5.248 7.783 7.783 0 0 1-5.644 1.976 11.593 11.593 0 0 1-6.731-2.063m12.147-10.668v-.056a5.184 5.184 0 0 0-5.446-5.014 4.894 4.894 0 0 0-5.126 4.984v.056a5.014 5.014 0 0 0 5.126 5.045 5.227 5.227 0 0 0 5.446-5.014" class="cls-1" data-name="Trazado 32" transform="translate(-79.052 -13.207)"/>
            <path id="Trazado_33" d="M336.76 46.428v-3.414a4.833 4.833 0 0 0 .914.086c.92 0 1.549-.508 1.549-1.778V26.59h4.354v15.078c0 3.383-1.722 4.933-4.928 4.933a9.219 9.219 0 0 1-1.89-.173" class="cls-2" data-name="Trazado 33" transform="translate(-165.039 -13.007)"/>
            <path id="Trazado_34" d="M304.435 90.849l.508-.772a2.759 2.759 0 0 0 1.626.61c.508 0 .772-.2.772-.508 0-.386-.508-.508-1.113-.7-.732-.208-1.549-.508-1.549-1.458a1.59 1.59 0 0 1 1.768-1.524 3.47 3.47 0 0 1 1.824.508l-.452.813a2.84 2.84 0 0 0-1.4-.472c-.442 0-.7.208-.7.508 0 .356.538.508 1.123.7.721.224 1.524.554 1.524 1.448 0 1.016-.808 1.56-1.844 1.56a3.48 3.48 0 0 1-2.1-.742" class="cls-2" data-name="Trazado 34" transform="translate(-149.255 -42.396)"/>
            <path id="Trazado_35" d="M314 88.985a2.649 2.649 0 0 1 5.3-.02 2.6 2.6 0 0 1-2.667 2.586A2.57 2.57 0 0 1 314 88.985m4.161 0a1.524 1.524 0 0 0-1.524-1.6 1.488 1.488 0 0 0-1.493 1.58 1.526 1.526 0 1 0 3.048.015" class="cls-2" data-name="Trazado 35" transform="translate(-153.841 -42.341)"/>
            <path id="Rect치ngulo_25" d="M0 0h1.138v6.863H0z" class="cls-2" data-name="Rect치ngulo 25" transform="translate(166.662 42.235)"/>
            <path id="Trazado_36" d="M331.85 89.72v-3.16h1.138v2.819c0 .772.386 1.214 1.062 1.214a1.1 1.1 0 0 0 1.118-1.229v-2.8h1.138v4.963h-1.138v-.767a1.783 1.783 0 0 1-1.549.874 1.706 1.706 0 0 1-1.768-1.91" class="cls-2" data-name="Trazado 36" transform="translate(-162.623 -42.425)"/>
            <path id="Trazado_37" d="M343.3 88.833v-2.611h-.635v-.98h.635V83.88h1.133v1.361h1.336v.98h-1.336v2.433a.544.544 0 0 0 .615.62 1.524 1.524 0 0 0 .706-.168v.93a1.981 1.981 0 0 1-1.016.254 1.271 1.271 0 0 1-1.428-1.458" class="cls-2" data-name="Trazado 37" transform="translate(-167.941 -41.107)"/>
            <path id="Trazado_38" d="M351.07 82.93h1.224v1.082h-1.224zm.046 1.844h1.138v4.968h-1.138z" class="cls-2" data-name="Trazado 38" transform="translate(-172.079 -40.639)"/>
            <path id="Trazado_39" d="M355.79 88.937a2.647 2.647 0 1 1 5.293 0 2.639 2.639 0 0 1-5.278 0m4.156 0a1.524 1.524 0 0 0-1.524-1.6 1.488 1.488 0 0 0-1.524 1.565 1.526 1.526 0 1 0 3.048.015" class="cls-2" data-name="Trazado 39" transform="translate(-174.401 -42.292)"/>
            <path id="Trazado_40" d="M368.5 86.461h1.133v.772a1.783 1.783 0 0 1 1.555-.874 1.7 1.7 0 0 1 1.768 1.905v3.166H371.8v-2.825c0-.772-.386-1.214-1.067-1.214a1.107 1.107 0 0 0-1.118 1.234v2.8H368.5z" class="cls-2" data-name="Trazado 40" transform="translate(-180.654 -42.327)"/>
            <path id="Trazado_41" d="M379.165 90.849l.508-.772a2.758 2.758 0 0 0 1.626.61c.508 0 .772-.2.772-.508 0-.386-.508-.508-1.107-.7-.737-.208-1.555-.508-1.555-1.458a1.59 1.59 0 0 1 1.768-1.524 3.47 3.47 0 0 1 1.824.564l-.447.813a2.876 2.876 0 0 0-1.407-.472c-.442 0-.7.208-.7.508 0 .356.538.508 1.123.7.721.224 1.524.554 1.524 1.448 0 1.016-.808 1.56-1.844 1.56a3.48 3.48 0 0 1-2.1-.742" class="cls-2" data-name="Trazado 41" transform="translate(-185.894 -42.396)"/>
            <path id="Trazado_42" d="M183.587 80.33l1.986 4.064 1.981-4.064h3v8.128h-3v-4.064l-1.981 4.064-1.986-4.064v4.064h-3V80.33z" class="cls-1" data-name="Trazado 42" transform="translate(-88.532 -39.36)"/>
            <path id="Trazado_43" d="M202.11 88.458l2.332-8.128h5.3l2.332 8.128h-3l-.381-1.331h-3.2l-.391 1.331zm4.984-6.909l-1.219 4.242h2.433z" class="cls-1" data-name="Trazado 43" transform="translate(-99.082 -39.36)"/>
            <path id="Trazado_44" d="M229.229 80.34a2.367 2.367 0 1 1 0 4.73h-2.621v3.388h-3V80.33zm-1.915.925a1.184 1.184 0 0 1 1.331 1.1 1.321 1.321 0 0 1-1.331 1.351h-.655v-2.451z" class="cls-3" data-name="Trazado 44" transform="translate(-109.626 -39.36)"/>
            <path id="Trazado_45" d="M241.37 80.33h7.976v1.336h-4.973v2.068h4.973v1.331h-4.973v3.394h-3z" class="cls-1" data-name="Trazado 45" transform="translate(-118.333 -39.36)"/>
            <path id="Trazado_46" d="M280.072 87.122h4.978v1.336h-7.98V80.33h7.981v1.336h-4.978v2.068h4.978v1.331h-4.978z" class="cls-1" data-name="Trazado 46" transform="translate(-135.835 -39.36)"/>
            <path id="Trazado_47" d="M267.131 86.431v2.032h-2.952v-2.032a1.331 1.331 0 0 0-1.331-1.336h-.65v3.363h-3.048V80.33h5.95a2.032 2.032 0 1 1 0 4.064 2.032 2.032 0 0 1 2.032 1.971zm0-.066v.066m-4.283-5.166a1.194 1.194 0 0 1 1.331 1.1 1.331 1.331 0 0 1-1.331 1.351h-.65V81.28z" class="cls-3" data-name="Trazado 47" transform="translate(-127.05 -39.36)"/>
            <path id="Trazado_48" d="M99 40.3l1.123-1.575a8.636 8.636 0 0 0 5.126 1.89c1.778 0 3.048-.914 3.048-2.347V38.2c0-1.488-1.742-2.063-3.693-2.606-2.322-.66-4.9-1.458-4.9-4.186v-.056c0-2.54 2.123-4.237 5.039-4.237a10.12 10.12 0 0 1 5.329 1.631l-1.016 1.661a8.372 8.372 0 0 0-4.384-1.433c-1.748 0-2.86.914-2.86 2.149v.056c0 1.407 1.829 1.951 3.805 2.54 2.291.686 4.755 1.575 4.755 4.237v.056c0 2.809-2.317 4.445-5.268 4.445A10.211 10.211 0 0 1 99 40.3" class="cls-1" data-name="Trazado 48" transform="translate(-48.533 -13.276)"/>
            <path id="Trazado_49" d="M135.2 40.559a6.137 6.137 0 0 0 4.669-2.093l1.377 1.24a7.656 7.656 0 0 1-6.1 2.779 7.374 7.374 0 0 1-7.392-7.737c0-4.293 3.012-7.737 7.112-7.737 4.384 0 6.9 3.5 6.9 7.854v.772h-11.781a5.182 5.182 0 0 0 5.217 4.928m4.323-6.706c-.259-2.692-1.8-4.984-4.725-4.984-2.54 0-4.5 2.118-4.816 4.984z" class="cls-1" data-name="Trazado 49" transform="translate(-62.628 -13.222)"/>
            <path id="Trazado_50" d="M199.93 36.82v-9.2h2.2v8.636c0 2.748 1.489 4.47 4.095 4.47a4.368 4.368 0 0 0 4.44-4.643V27.62h2.179v14.814h-2.174v-2.581a5.629 5.629 0 0 1-5.08 2.9c-3.556 0-5.669-2.408-5.669-5.928" class="cls-1" data-name="Trazado 50" transform="translate(-98.003 -13.522)"/>
            <path id="Trazado_51" d="M235.105 27.364h2.21v3.871a6.353 6.353 0 0 1 6.045-4.13v2.377h-.188c-3.236 0-5.873 2.327-5.873 6.792v5.9h-2.21z" class="cls-1" data-name="Trazado 51" transform="translate(-115.254 -13.267)"/>
            <path id="Trazado_52" d="M254.25 26.55h4.608l3.442 10.287 3.47-10.287h4.526l-6.045 15.474h-3.961z" class="cls-2" data-name="Trazado 52" transform="translate(-124.628 -12.997)"/>
            <path id="Rect치ngulo_26" d="M0 0h4.354v15.357H0z" class="cls-2" data-name="Rect치ngulo 26" transform="translate(148.418 13.553)"/>
            <path id="Trazado_53" d="M306 37.337v-.051c0-3.348 2.54-4.9 6.188-4.9a10.821 10.821 0 0 1 3.754.63v-.256c0-1.809-1.118-2.8-3.3-2.8a11.369 11.369 0 0 0-4.242.828l-1.087-3.322a13.513 13.513 0 0 1 5.959-1.234 7.12 7.12 0 0 1 5.192 1.722 6.825 6.825 0 0 1 1.661 4.9v8.9h-4.216v-1.669a5.9 5.9 0 0 1-4.638 1.946c-2.9 0-5.273-1.656-5.273-4.694m10-1.016v-.762a6.7 6.7 0 0 0-2.774-.574c-1.864 0-3.013.747-3.013 2.118v.061c0 1.174.97 1.864 2.378 1.864 2.032 0 3.409-1.123 3.409-2.7" class="cls-2" data-name="Trazado 53" transform="translate(-149.905 -12.836)"/>
            <path id="Trazado_54" d="M356.77 34.037v-.056c0-4.384 3.124-7.991 7.62-7.991 5.126 0 7.473 3.978 7.473 8.336 0 .345-.026.747-.056 1.148h-10.668a3.556 3.556 0 0 0 3.754 3.007 5.024 5.024 0 0 0 3.673-1.58l2.489 2.21a8.111 8.111 0 0 1-14.3-5.075m10.845-1.284c-.259-1.951-1.407-3.272-3.236-3.272s-2.987 1.3-3.327 3.272z" class="cls-2" data-name="Trazado 54" transform="translate(-174.878 -12.722)"/>
            <path id="Trazado_55" d="M295.592 17.291A2.276 2.276 0 1 1 293.331 15a2.276 2.276 0 0 1 2.261 2.291" class="cls-2" data-name="Trazado 55" transform="translate(-142.693 -7.352)"/>
            <path id="Trazado_56" d="M346.012 17.291a2.274 2.274 0 1 1 0-.02" class="cls-2" data-name="Trazado 56" transform="translate(-167.351 -7.352)"/>
            <path id="Trazado_57" d="M5.437 34.514a21.047 21.047 0 0 1-4.095-21.5 1.306 1.306 0 0 1 1.707-.762 1.336 1.336 0 0 1 .508.34 1.3 1.3 0 0 1 .254 1.341 18.456 18.456 0 0 0-1.016 8.707 18.227 18.227 0 0 0 4.628 10.12 19.457 19.457 0 0 0 2.23 2.134A18.379 18.379 0 1 0 25.508 2.575a1.336 1.336 0 0 1-.645-.386A1.306 1.306 0 0 1 26.148.04a21 21 0 1 1-18.07 36.907 12.21 12.21 0 0 1-.955-.8 21.184 21.184 0 0 1-1.671-1.636" class="cls-1" data-name="Trazado 57" transform="translate(-.002 .001)"/>
            <path id="Trazado_58" d="M21.633 40.285zm0 0zm0 0zm-.03 0zm-9.353-6.828v.03l-.051-.081zm.025.04l.025.036.03.041-.046-.066zm.071.107a.219.219 0 0 1 0-.036zm-.935-3.434V29.856l-.03-.046v-.03l-.086-.036v.212a.07.07 0 0 0 .025.066zm10.273 10.115zm.051 0zm-1.585-.508h.036zm11.044-6.863v-.086l-.03-.036v-.086h-.046l.041-.041h-.041v.046l-.051.051h-.041V32.941l-.051.041h-.045l-.036.046-.036-.028h-.122l-.025.046v.041l-.025.091-.051.03v.051h.051a.086.086 0 0 1 0 .036v-.025h-.046l-.081.091.041-.091-.046.03v.046l-.046.046.025.041v-.046l-.1.061-.046.036v.041l.025.036V33.5l-.046.036h-.056l-.1.066h-.036l-.046.046h-.107v.082l-.066.081-.061.091v.528l-.051.056-.061.086-.041.041v.041l-.03.041-.036.025v.041l-.03.041-.041.071v.29l-.03.03-.025.117.036.076v.081h.03l.03.03h.055l.056.061h.076l.066-.041.081-.036h.142l.046-.036.056-.076v-.041l.076-.112v-.036l.056-.091.086-.178.1-.152.147-.269.056-.081.086-.168.107-.163v-.046a.325.325 0 0 1 0-.036v-.056l.025-.127.038-.066.076-.086v-.183l.03-.046.025.03v.081h.041l.025-.051v-.427zm9.236-2.764v-.35l.03-.041v-.107l-.025.036V29.226v.041-.151a.216.216 0 0 0 0-.025V28.263l-.036.041v1.913a.162.162 0 0 0 0 .046v.903-.1.034-.752.051l-.036.046.025-.046v-.178zm.147-.437l-.025.051v.025-.076zM38 27.956v.188h.122l.041-.025.076-.081V27.633l.066-.046v-.361l-.056-.071v-.03V27.227h-.056v.1l-.025.056a.326.326 0 0 0 0 .036v.513zm2.54 2.225v-.025l-.025.051V30.492v-.213zm.041.183l-.025.046a.107.107 0 0 1-.036.1l.03-.046v-.112zm-2.181 4.45l-.036.041-.036.036-.03.041v-.025l.03-.036.036-.046.036-.041-.036.036-.041.046-.036.041-.03.036v.025l-.03.041-.03.036-.036.041-.036.041-.125.078-.03.041-.036.036-.036.041-.036.036-.036.046v.036l-.036.036-.03.041-.03.041-.03.041-.03.036v.036l-.041.041-.03.036-.041.041.036-.036.03-.036-.036.036.036-.041.03-.036-.03.036-.036.041-.025.036-.036.036-.036.041.036-.036.03-.036-.036.036.03-.036-.036.036-.025.041-.03.041-.03.036-.03.036-.036.036-.036.041-.036.036-.036.036-.03.041-.036.036-.03.036-.03.03-.041.036v.03l-.03.036-.036.036a16.366 16.366 0 0 0 1.453-1.58zm3.373-12.6A16.134 16.134 0 0 0 29.98 9.1h.127l.051.025h-.03l.051.168h.61l.076.03h.208l.071.03h-.127l-.066-.025h-.264l.03.025h.127l-.076-.03h-.005l.081.046.066.025h.03l.071.025h-.046l.03.025h-.254l-.036-.025h-.085l-.036-.019-.056.406-.107-.061h-.066l.107.061h.03v.03h.036l.066.025h.168l.091.041h.036l.046.051.056.051.025.03h.041l.046.025h.041v.025h.025l.051.025h.061v-.036h.269l.046.025h.041v.025h.056l.041.025.036.025.061.051.041.03h.051l.29.564h-.157v-.03l-.041-.025-.03-.025-.046-.03H31.9l-.03-.025-.051-.025h-.036l-.086-.122h-.127l-.03.036.025.025h.036v.025l.091.051.081.056.036.03v.096l.056.056v.05l.056.066h-.173L31.661 11h-.091l-.041-.036h.142v-.03l.03-.03h-.03v-.084l-.03-.025-.03-.03h-.041v-.03l-.036-.051-.036-.025-.076-.036-.071-.03h-.046l-.076-.051v-.03l-.036-.1h-.03l-.036-.025H31.1v-.025l-.066-.036h-.025l-.039-.026h-.036l-.036-.025-.056-.051h-.081l-.046-.025h-.065l-.051-.025h-.036v-.024l-.03-.025h-.025l-.183-.32h-.041l-.066-.041h-.274L30 9.8l.1.086.046.046v.076l.041.041h.1l.051.051h.03l.046.051.046.025h.03l.046.051.03.025.046.025-.03-.025h.107l.025.025h.041l.1.051h.03l.041.025.036.051v.025l.03.03h-.071l-.066-.025-.117-.051-.036-.025h-.062l.046.137h-.239l-.1-.036-.173-.117h-.264v.058h.041l.041.025.066.051h.025v.056h-.03l.046.025v.03h-.119v-.02l-.036-.025h-.066l.025.025-.041-.025v.025h-.03v.025h-.239l-.025.025v.025l-.071-.025h-.081v-.025h.046l-.025-.025-.036-.025v-.056h-.061l-.051.041V10.6v-.03h-.066l-.03.025h-.046l-.03.03v.025l-.03.03H29l.046.025h-.122V10.852H28.9l-.1.025v-.025h-.056l-.091.132v-.03l-.025-.03-.1-.036v-.03h.122l-.056-.056-.03-.03h-.03l-.041-.025v-.03h-.351l.066.036h.066v.254h.086l.03.025v.274l-.03-.036v-.03h-.06v-.096h-.22v.061l-.041.041h-.056l-.041.051-.051.036v.056l.086.081h.036v.061l.025.03h-.2l-.071-.025h-.117v-.03h-.041l.025-.066-.1-.036v.03l-.046.036.03.03.107.086h.132v.03l.025.025v.036h-.036l-.03.025h-.218v-.03h-.071l-.036-.03h-.061l-.071-.03h-.03v-.061h-.03l-.036-.025-.03-.061-.01-.1h.025v-.086h.036v-.03h-.03v-.03h-.188l-.061-.041H26.8v-.03h.051v.025l.066.046h.249l.086.046.152.03h.472l.076-.1v-.055l-.036-.03v-.03l-.005-.254-.036-.025h-.025v-.03h-.046l-.03-.03h-.056l-.132-.066-.1-.061H27.4l-.1-.046h-.48v-.025h-.03v-.025h-.061l-.107-.152h.061l-.061-.046H26.6v.025h-.1v.005h-.025v.046h.056v-.025h.051l-.081-.036h-.183a.046.046 0 0 0 0-.025v-.193h-.076v.051h-.046v-.025h-.122v.025h-.081v-.046h-.025l-.051.036h-.081v-.025l.071-.051h-.351v.018h-.03v.025h-.091v.025h.025l-.03-.025a.066.066 0 0 1 0 .03h-.107l-.03.025h.03l.03-.056-.254.188-.025.03v.06h-.036l.036-.051h-.03a.22.22 0 0 0 0 .025h-.005v.024h.025v.03-.025h-.025l.046.025h-.03v-.02l-.036.051h-.081v.025h.025v.025h-.432v.041h.069v.01h-.061v.025h-.03v.025-.076h-.056v.025h-.117a.071.071 0 0 0 0 .03h-.005l.071-.041h-.041v.03h-.091l-.071.036h.117v.03h-.3l.046.03h-.1v.025l-.036.025v.005a.071.071 0 0 1 0 .03h.147l-.051.025h-.062v-.03h-.086l-.036.025h.051v.03h-.041l-.03.061h-.03v.03h.03v.417l-.036.025v.03h.036v.036l.071-.041-.041.03-.066.03h-.051l-.041.03h-.147l.071-.025h-.1v.03h.061l-.036.03-.046.025v.051h-.061v.03h-.066v.03h-.03l-.025.03h.005l-.112.041h.03l-.041.03.071-.025h-.03v.041l.036.076h.076l.046-.03h-.066l.117-.046-.041.03h-.042l-.041.025h.03v.036h-.107v.03h-.03l-.036-.051-.036.025-.076-.02h.03l-.036.025h-.038l.03-.03h-.061l-.03.03v.03h-.051v.036H22.9v-.056.066h.03l-.041-.03v-.036h-.159v.043h.1l-.086.025v.025h-.132v.066H22.6v-.1h-.036v.03H22.5v.036h-.091v-.036h-.066.127l-.076.025v-.025h-.1l-.036.03h-.036v.036l.081-.03h.066l.066-.056-.03.03h.142v-.03l.046-.03-.03.036h.037l-.046.03h-.076V12h-.025v-.036H22.3l-.113.036-.03.041h.036v.036h-.066v.061l.066-.036h.03v.036l-.041.036v.061l.051-.041v.036h.036v.056l.041-.056h.036l.041-.036h.071l-.056.071v-.071h-.041l-.046.025v.041l-.046.025h-.036l-.025.025h.1l-.046.025-.03.036H22.2v.036h-.041l-.061.447h-.048v.091l.036-.036v.036h.041V12.9h.041l.03-.041h-.041l-.036.025h.025l-.041.03v.061l.046-.03-.036.036h-.035v-.025l-.025.036-.036.041v.036h.03l.025.036h.066l-.03.036h.173l.076-.025h.03l.081-.036.036-.03.142-.1.03-.036h.036l.041-.025.041-.036.03-.036.086.03h.061V12.8l.036-.03-.041.036v.127h.061v.218l.036-.036v.077l-.036.051.036.117v.076h.035v.188h.03v.056h-.03v.071h-.036v.224l.03.025h.041l.086-.025h.079l.041-.041v-.041a.326.326 0 0 0 0-.036v-.025l.046-.03h.036v-.041h.183l.03.041.036-.046.041-.066.051-.061.03-.076.03-.036v-.03l.036-.036v-.141h.04v-.03l.025-.107h.025v-.036h.127l.03-.041h.071l.036-.036.061-.046h.036v-.034h.03v-.036h-.071v-.036h.03l.041-.036h.036v-.025h.03v-.076l-.03-.03v-.056h-.041l-.061-.056h-.041L24.2 12.6h-.041v-.1a.183.183 0 0 1 0-.051v-.155h.03v-.036l.051-.1h-.03V12.1h.076v-.081.015l.075-.034v-.03h.039l.025-.03h.1v-.1h.071l.066-.025.03-.036h.071l.041-.066.03-.03.071-.046V11.6h-.036v-.03l.03-.036h.025a.066.066 0 0 0 0-.03l.03-.03h.208v-.03h.061v-.046h.061v-.036h.061v-.025h.295l.051.046v.06l.036.025H25.7v.03h-.081l-.03.03-.061.066-.036.025v.03h-.03l-.03.036h-.036v.03h-.03l-.046.061h-.036l-.03.03v.071h-.142v.071h-.036v.232l.03.036.03.071H25.1v.239h.061v.03h.139l-.03.036h.1v.025h.31v-.036h.041l.051-.03v.03l.03-.03h.036v-.036h.376l.076-.046v.066h-.036v.036l.081.051h.152v.036h.03v.025l-.193-.036v.041h-.056v.163h-.071v.071h-.462v.041h-.165l-.036.03h-.041v.025h-.117v.041h-.005v.082l.03.025v.034h.076l.046-.03.036.03-.056.117v.152l-.036.036-.036.025h-.086l-.075-.03v-.041l-.066-.071-.041-.025H25.1l-.1.037h-.04l-.041.03-.025.041v.071l-.036.041-.046.03V14.081l-.041.036h-.208v.076l-.056.046h-.178l-.041-.1h-.117l-.122.025-.086.036h-.076l-.066.056-.168.036-.229.061-.142.025v.041h.122l-.025.041v.036l-.036-.025h-.023l-.076-.036v-.086H23.2l-.066-.056-.071-.015h-.043l-.03.041-.041.025v.041h-.076l-.046.036v.036h-.107v-.036l.046-.041v-.046h-.086l-.122-.066h-.036l-.025-.036v-.051l-.061-.036h.025l-.036-.061.046-.03v-.064h.041v-.03h.046a.147.147 0 0 1 0-.046h.042v-.076h.051v.005h.041l.025-.041v-.036h-.076l-.041.025.041-.041-.036-.025h.061v-.075h-.152l-.03.046v.01l-.041.03v.036h-.086v-.036l-.025.036-.046.152h.041v-.056H22.3v.117h.046v.03l.03.025a.071.071 0 0 1 0 .036v.066l-.03-.036v.041h.041l.046.086-.041.03-.036.036h.036v.081l.03.03h.051l.051.076h-.015l-.025-.041v-.036h-.137v.071H22.3v.041h-.25v-.056h-.15l-.041.046v.036h.01l-.051-.025-.03-.036h-.229l-.051.041-.046.03-.061.025h-.041v.036l-.036.081-.041.056-.091.086v.036l.056.036h.081v.025h-.127v.025h-.036v-.03h-.137v.046h-.015l-.1.025-.142.071-.142.025-.051.041v.168l-.041.046-.051.03h-.081l-.091.041-.051.036v.046h.015l-.1.041h-.254v-.1h-.117v.295l-.122.025-.051-.036-.056.03h-.029l-.041.066h-.076l-.046.051H19.2l-.046.036v.041h.076v.03h-.03v.046l.03.025h-.03v.042h.046l.117.036.025.03v.041l.036-.041.03.03h.081v.046h.091l.03.03h-.076v.046h.03l-.046.061.036.041v.046h.03l.03.025h.041v.137h-.036l.03.03.036.036v.264l-.036-.046v-.046l-.025-.046h-.036l-.071.2v.041l-.03.086-.03.122-.071.117-.041.025h-.137l-.061-.041h-.046v.03h-.025l-.051-.036h-.447l-.036-.025h-.254l-.03-.03h-.076l-.046.03-.036.051v.036h-.2l-.1.076v.046h.03v.052h.041l-.025.036v.046h.041l-.056.056h.046v.025l-.056.046v.046l-.036.03v.193l-.046.137.025-.051v.046l-.036.051-.046.117-.076.147-.076.091a.066.066 0 0 0 0 .03l-.025.046v.1h.066l.036-.051v.056l-.051.036v.051h.076v.071l-.03.076v.147l-.036.081v.041l.086-.036h.147l.086-.051v.025l.086-.03v.03l.071.056.056.025-.051.061.036.025v.036l.03.066.081.051.066-.046.041-.066.046-.025h.076l.051-.051h.28l.061.025h.039l.051-.041h.076l.036-.046.03-.051v-.046l.107-.071h.091l.046-.036.036-.076.025-.051.066-.086.1-.066h.056l-.066-.081v-.132l-.041-.173.046-.051v-.03l.1-.1.03-.051h.036l.051-.036-.025-.03.051-.046.076-.041.201-.054.046-.03.137-.066.046-.036v-.1h.041l-.036-.117v-.102l.066-.046h.046l.1-.066h.051l.025.025h.199l.036.046h.091l.036.025.1-.036.046-.03v-.046l.107-.066.061-.03h.112l.051-.025.091-.1.061-.036h.046l.081.025.071.056h.066v.112l.2.066v.1h.041v.046l.066.056.025.046.076.03v.071h.036l.046.036v.046l.051.036.03.036.086.051h.178l.036.061.056.066h.046v.046h.046l.046.036v.091h.036l.046.046h.071l.03.041v.1l.03.046v.1l.03.046-.036.051h-.046v.071l-.076.1v.046h.107v-.051l.1-.086v-.1l.152-.076v-.127l-.071-.041h-.046v-.005l.03-.046v-.041l.025-.025.036-.051.036-.03h.2l.036.041h.089l.046.03v.056l.046.041h.046l.03-.071v-.051l-.036-.051-.051-.03-.03-.036-.137-.071-.041-.015-.137-.051-.152-.081v-.025l.051-.03v-.071H23.1l-.036-.03h-.051l-.157-.168-.041-.208-.036-.081h-.039l-.091-.066-.041-.025-.051-.091v-.122l.051-.051V16.9l.025-.046h.107l.041-.025h.127l.046-.025v.182l.041.066V17l.046-.1.066.036.056.066v.122h.025l.046.056.046.025-.051-.03-.03.051.107.1.061.041v.046h.086l.071.03h.051l.036.046.091.061.041.041H23.7l-.041-.025h-.081l.091.041h.1l.137.1h.025l.051.046h.046l.041.066.056.036h.041v.081l-.049.064v.137l-.036.061.03.036v.056h-.03l.03.051.091.046.041.056v.046l.03.025.041.091h.041l.066.091v-.041h.046v.045h-.051v.051l.061.041.036.1.051-.041.03.046.132-.03h.1l.056.036.051.03h.1v.025l-.056.03h-.041l-.051-.036h-.046l-.061-.025-.056-.036h-.046l-.036.061h-.05l-.046.048v.051l.041.056.036.046-.03.091.041.081h.051l.046-.051v.03l.046.046.046.076v-.041l.046-.046h.033l.025.051.051.036V19.4l-.03-.046v-.1l-.051-.091v-.056l.046.025.036.046h.1l-.03-.051H25v-.036l-.036-.041.112-.03.051.025.051.036.051.051V18.9h-.056v-.036H25.1v-.036h-.046L25 18.8h-.046l-.036-.03h.056l.051-.03-.046-.086h.086v.046h.041v-.051l-.091-.091-.061-.107v-.142l.051-.046v.051l.056.046.071.041v.061h.015l-.051-.137h.104l.03.051h.036l-.036-.051v-.051h.1l.046.046-.046-.046-.051-.036h-.049v-.086h.122l.051-.046.1.025.051-.03h.066l.152.025.046.03.03.041H26v.025l-.142.071v.076l.041-.046.051-.036.046-.046h.1l.1-.1h.239v.025h.051l.051-.036-.037-.05-.147-.056-.03-.091-.041-.066v-.081l-.051-.046v-.051h-.051l.051-.025v-.03l.041-.051V17.44h.1v-.28l.066-.081h-.051l.041-.046v-.046.046h.188l.036-.025v-.191l-.036-.03v-.046h.041l.051-.036v.03l.046-.03.061-.066-.081-.086.051.051v.025l.066-.086v-.046l.086-.025h.041v-.046l.03.041h.117l.051-.056v-.056l-.046-.055.051.076v.076l.041.041h.041l.076-.025-.041.025h-.142l.046.036.081.046h.279l.036.056h-.046l-.137.051-.086.056v.041h.081l.051.03h.076l.046.061v.086h.005v.025h.1l.041-.025.041-.046.041-.03h.089l.041-.046h.091l.046.03h.132v-.054l.046-.036-.046-.03h-.046l-.046.025h.03l-.086.025h-.046l-.086-.1v-.127l.066-.03-.061.056h.041l.061-.076h.041l.041-.041h.091l.041-.025h.086l.046-.046h.081v-.025h.193l.041-.025h.076l.041-.036h.041v.036h.03v.03h-.041l-.086.046h-.049v.041h-.046l-.081.041.046.041h.046l.1.091h-.086l-.041.091H28.6v.091h-.1l-.07-.027-.041.025.056.025H28.4v.03l.1.03.086.091h.091l.091.091h.091l.1.071.1.076.041.046.061.137.061.03.051.041h.091l.051.036.051.041h.046l.03.051v.046l.03.056.041.1v.025l-.041.076-.041.046-.061.041h-.046l-.041.025-.117.051h-.183l-.132.025h-.122l-.127-.025v-.03l-.041.03h-.127l-.051-.046h-.043l-.03.025h-.051l-.051-.046v-.086H28.1l-.046-.046-.025-.051-.046.03h-.046l-.31-.025-.091.041-.163.046-.066.051-.137.076-.03.051h-.117l-.117-.03h-.284l-.041.041v.036l.061.041h-.127v.036h-.254v-.051h-.051v.046h-.046l-.051.036h-.107l-.1.071-.03.051v.091l-.025.056.157-.036h.051l-.036.051-.051.036.061.046v.046h.067l-.041.051h-.046l.046.081h.056l-.1.03v-.046l-.041-.051h-.025v.03l.03.046h-.051l.091.051.041-.03.051.041.086.03v.076h-.036l.049.017v.061h.051l.036.036-.041.046h-.051v.057h.195l.051.025-.051.046h-.1l.025-.036h.091v.051h-.025l.071-.051.03-.036h.051v.03h.091v.056l-.015.173.066.03h.107l.1-.036.046.03.046-.1v-.051l.036-.051h.107l.1.051.086.025.051.041.051.071.066.025h.1l.163-.025.056-.025h.046v-.041l.046-.051.086-.056h.213v-.03h.041l.046-.03h.046v.051l-.03.046-.046.046v.051l.041.061-.036.066v.051l.041.046v.147l.03.086v.081l-.051.033v.132h-.03v.081l-.046.091v.325l-.046.137-.041.066-.071.081-.081.03H27.8l-.163.036-.076.025-.056-.025h-.041v.041h-.041V21l-.066-.03.025-.036h.051l-.046-.051h-.076l-.1-.041h-.061l-.051.036h-.081l.056-.046h-.1l-.061.061h-.005l-.127.1-.1.046h-.061L26.566 21l-.127-.02h-.107l-.051-.041h-.107l-.051-.041-.325-.066h-.051l-.107.03h-.06l-.046-.086h-.284l-.056-.041h-.147l-.041-.046v-.056l-.046-.033-.112-.127h-.258l-.046.03h-.1l-.051.025h-.056l-.107.086-.046.056-.025.056v.122l.036.071v.112l-.107.117-.1.046h-.061l-.117-.061-.117-.1-.218-.056-.175-.037h-.142l-.1-.046-.041-.051v-.2l-.051-.041h-.163l-.051-.046h-.072l-.122-.086-.071-.03-.132.041h-.107l-.117-.066h-.046L22 20.376h-.046v-.107l-.051.046v-.051h-.046l-.061-.03-.041-.056v-.051l.046-.051.1-.051.091-.107.056-.107v-.086L22 19.68h-.03l-.036-.051v-.117h.056l.081-.1v-.052h-.051l-.117.081h-.036V19.36l-.046-.03h-.081l-.147.051-.041.036-.071.025h-.1l-.051.025h-.046l-.1-.066-.056.046h-.086L21 19.406h-.046v.03h-.134l-.061.041h-.34l-.1.041h-.091l-.1.061h-.041l-.295.036-.193.086-.051.046-.041.056-.046-.025-.1.046h-.041l-.046.03-.046.051-.03.036h-.046l-.051.041H18.9l-.036-.046-.1.036-.274-.213h-.046l-.091.025H18.3l-.041-.03-.066-.086v-.091l-.076.03h-.041l-.03.051-.107.234-.142.229-.046.046-.081.051-.264.132-.086.1-.1.1v.15l-.066.071-.061.107v.208l.03.056v.1l-.046.1-.051.066-.066.1-.041.051-.046.046-.086.051-.071.076-.036.051-.127.071-.173.041-.036.051-.036.036v.051l-.041.081v.107l-.036.056-.279.132v.061l-.076.163-.03.183-.025.056-.041.041-.076.107-.076.076-.025.051.041-.046v.051l-.081.163v.051l-.03.056v.056l-.086.051H15.4l-.03.056v.051l-.046.284v-.051l.046.122.056.157v.107l-.051.117v.046l.036.041.046.193v.279l-.071.279v.213l-.056.152-.041.081v.025h-.046v.019l.036.03.03.056.041.086v.051l.056-.056.036.142v.081l.046.041h.112l.046-.025h-.091a.086.086 0 0 0 0 .036h-.112V26.1l-.025.03v.17h.025l.03.051h-.03l-.025.056.066.036h.051l-.036.036v.061l.041.03.036-.025h.015a.229.229 0 0 0 0 .056h.168a.112.112 0 0 0 0 .041h-.081v.058h.061l-.036.041-.025.051h.046v.046l.025.056h.041a.157.157 0 0 0 0 .051h.061V27l.041.03.046.1.041.041h.051v-.091l.051.041v-.025V27.2h.025l.051.107.036.036h.041l.025.025h-.041v.051h.036l-.041-.03v.056h.046v.091l.086.061.046.036h.036v.036l.046.03.132.071h.03l.03.051h.051l.061.051.041.025h.056l.071.066v.025l.1.1.041.046.091.076.3.168h.107l.274-.132h.229l.173-.025h.188v-.051.051h.046l.183.046.056.046.086-.056.142-.051h.046l.091-.071.076-.03.041-.03h.091l-.036-.051.025.025.025.051h.046l.03-.051.036-.036.076.086h.447l.076-.041-.046.041h.193l.086.051.086.086h.071l-.041.03v.051l.051-.03v.025h.005v.046l.051-.041v.046h-.03v.117l.066.1.071.036v.036l.03-.056v.051h.046V28.6h.036v.036-.122l.025.1h.03l-.025-.056H21.223l-.051-.1.051.051h.046v.051l.046.036v-.056l.041.025.041.1.041.061h.108v.102h.046v.051l.046.046v.345l-.036.091-.041.046v.051l.051.03h-.015v.112h-.051v.02l.051.051h-.046v.122l-.036.1-.025.051v-.051.046h.025l.036.076.066.061-.071.015-.041-.046.066.1.025.051h.051l.051.1h.046l.046.03-.051-.025.046.046.178.152.132.142.147.132v.046l.066.086h.036v.188l.051.041h.046l.041-.036h.056l-.051.03h-.046l-.091.03.03.046.066.1.046.046v.036a.056.056 0 0 1 0 .025l.046.1.107.183v.1l-.061.071v.03l.03.036v.091l.1.173.046.046.036.1v.33h-.041l-.046.03-.041.091-.036.036-.025.046a.345.345 0 0 1 0 .071v.218l-.025.112v.071l-.046.086.041.173v.3l.036.041.025.041.086.086.051.066.142.2.036.041.061.122.051.081.051.051.071.1.056.051.056.086V35l.025.051v.269l.041.076v.041l.036.036v.117l.025.036v.036l.041.081v.036h.03v.076l.03.036v.076l.091.107.025.041.142.107v.036l.056.071.061.107v.036l.051.1.071.107.066.081.061.071.025.036v.147h-.036v.036h.03v.03l.036.03.041.061v.086-.03h.345v.03h.041v.036h.1l.091-.066h.276l.071-.056h.213l.208.036v-.03h.127v-.03h.137l.112-.041.142-.1h.076l.076-.066.137-.132.1-.071.071-.076.056-.076.036-.061.051-.061v-.025l.051-.066.091-.091h.076l.1-.056v-.137l.066-.147.036-.178v.036-.081l.03-.056.046-.03h.03l.3-.107.086-.036.076-.076.036-.081H27.7l.046-.152v-.559l-.061-.086.03-.081v-.041h.046l.091-.076.081-.081h.041l.051-.036h.03v-.036h.041l.091-.081v-.046h.041l.04-.057.076-.046.173-.076h.168l.081-.056.091-.051v-.046h.056l.107-.127.051-.046v-.076l.066-.091v-.046H29.1v-.208l.03-.046V32.914l-.03-.041.046-.036V32.5l.036-.051.025-.137v-.051l-.066-.036V32l-.051-.1v-.147l.036-.046v-.066h-.036v-.127l.046-.051-.046-.036v-.047l-.071-.066a.142.142 0 0 1 0-.046v-.046l.03-.081.051-.107v-.046l.036-.051v-.051l.051-.03.041-.046.025-.046v-.036l.036-.056v-.091l.025-.036V30.5a.173.173 0 0 1 0-.051l.046-.046h.081l.036-.051.046-.076h.091l.046-.046.036-.051.041-.051.03-.046h.033l.046-.041.091-.1.066-.066.157-.163.137-.112.107-.1.051-.036.051-.036.046-.036h.086l.163-.1.056-.046.025-.03.051-.051.051-.051.066-.066.036-.036.051-.051.03-.03.03-.036.1-.1v-.051l.03-.056.03-.041.041-.051.036-.051.041-.051.036-.051.193-.361.025-.1v-.042l.025-.056.076-.1.041-.066v-.076l.056-.041v-.056l.036-.061v-.1l.037-.038v-.036l.041-.051v-.081l.173-.1a.249.249 0 0 0 0-.061l.025-.046h-.029l.041-.051v-.208l.041-.107-.025-.036h-.1l-.041.056-.1.061h-.091l-.193.066h-.091l-.1.046h-.2l-.076.051-.051.036h-.244l-.051.03h-.051l-.051.036h-.193l-.025-.025-.1-.1-.056-.112-.081-.066h-.193l.051-.081h.137v-.142l-.036-.056-.071-.036v-.056l-.1-.107v-.061l-.03-.025-.046-.03-.051-.041-.061-.1-.046-.03h-.051l-.046-.056-.163-.157h-.051v-.112h-.056v.056l-.122-.061-.051-.036v-.051l-.03-.056v-.172l-.041-.163-.03-.061-.036-.061V24.9l-.051-.036-.056-.051-.051-.056-.051-.041h-.051l-.122-.178-.036-.168v-.056l-.03-.147v-.117l-.03-.163.041.03-.03-.056-.046-.056v-.168l-.03-.046-.1-.081-.03-.051h-.112l-.041-.056v-.3h.015l-.051-.056-.051-.051-.03-.056-.03-.056v-.056l-.132-.137v-.051l-.025-.056-.066-.076v-.1l-.061-.117v-.111l-.025-.056-.076-.1v-.107l-.071-.066-.04-.051v-.03l-.142-.076-.071-.1V21.5l-.041-.051v-.041l.03-.076V21.3v.051l.081.137.066.061v.125l.051.056h.03l.036.056.051.051.051.041h.03l.03-.051v-.1l.041-.1v-.107l.122-.036.036-.046v.284l-.03.1v.036h.149l.046.051.056.112.051.051v.061l.086.107.046.081.036.056.036.122.051.056.036.061.03.051.036.051v.1l.041.056.041.076h.056l.041.036.086.051.071.056v.051l.036.061v.112l.041.051v.478l.03.061.041.051.066.112.051.041.1.041.051.036.107.132.1.163v.112l.041.051v.142l.056.046.046.041.046.051v.168l.041.061v.72l.03.056v.156l.056.117v.036h.193l.051-.036h.1l.03-.056h.041l.051-.056.051-.036h.239l.056-.03h.137l.046-.056h.046l.051-.025h.523l.046-.046.041-.051.046-.051.1-.051h.142l.132-.086h.173l.046-.025h.142v-.315l.041-.046.1-.051h.218l.046-.041h.254l.046-.025v-.117l.041-.061.041-.03.173-.025.041-.041v-.117l.025-.056.142-.173h.112v-.356l.066-.107.03.051h.046v-.066l.036-.051.041-.112.041-.046.041-.036.03-.051v-.056l.025-.061v-.127h-.086l-.036-.056-.046-.056v-.056l-.041-.056-.041-.051h-.178l-.066-.03h-.091l.01-.2-.036-.056-.041-.051v-.057l-.025-.051v-.178l.025-.112V22.4v.03l-.03.051v.02l-.1.107-.036.046-.041.051-.041.036-.03.056v.03l-.066.091h-.051l-.041.051h-.3l-.046.046-.112.03h-.03v-.056l-.051-.051a.076.076 0 0 0 0 .036h-.046v-.046L32.5 22.9h.046V22.61a.316.316 0 0 0 0-.066V22.5h-.336v.081h-.025a.9.9 0 0 1 0 .117l.03.091v-.056l-.041-.107-.086-.1v-.107h.046v-.051l-.041-.041v-.025l-.03-.036-.051-.041v-.046h-.036l-.051-.051a.066.066 0 0 1 0-.03H31.7v-.03a.066.066 0 0 1 0-.03.056.056 0 0 1 0-.025l-.051-.117-.036-.041v-.051l-.071-.091v-.076h-.051v-.047h.041l-.03-.051v-.069l.122.051v-.03h.061v-.132h.015v.051h.046l.056.025h.041l.046-.03h.03l.03.051.03.046.046.056.046.051v.076h.046v.056l.03.051v.056l.036.056v.046l.03.046.051.041h.091l.051.041h.051l.046.036.03.051.036.03.051.041h.1l.036.051h.137l.051.036h.091l.046-.041.041-.041h.046V22.2h.086l.041-.03h.137l.036.051v.269l.036.056h.046l.046.03.046.036h.173l.046.046h.3v-.036l.041.051h.127l.041-.03h.046v.036h.041l.041-.025h.29v-.046h.086l.041-.03.041.046h.538l.076-.03h.081l-.041-.025h.036l.066.107v.1h.076v.107l.025.1h.041v.036l.036-.03h.036l.036.046v.056l.038-.053.035-.038h.025l-.03.03-.036.036v.061l.03.051.041.036.046.036.036.03h.076l.041-.03h.117v-.015l-.03.051v.061h-.036l-.036.036-.041.025h-.071l.071.112v.091l.041.051.041.051.036.056.041.046.03.056.036.051.036.041h.036l.041.03h.112l.036-.03h.036l.041-.03.03-.051v-.107h-.036v-.051h.036v-.056l.036-.025.025.03h.005v.056l.03-.025-.03.056v.04h.081l-.036.041v.056l.025.051.025.107v.3l.03.051v.056h-.03v.132l.025.056v.737l.03.056.025.056V26.446l.03.056v.32a.157.157 0 0 0 0 .051v.64l.03.036h.068l.036-.03.041-.051v-.091l.025-.046.066-.03h.071l.025.03v-.046h-.036l-.03-.03V27.2l.03-.061.03-.051v-.051h.036l.036-.025v-.061a1.35 1.35 0 0 0 0-.142l-.025-.046V25.506h.066v.02-.168h.091l.036-.03v-.2l.036-.036v-.025l.036-.036.03-.031.03-.056.03-.046.025-.03v-.03l.03-.061v-.107l.025-.056.03-.051.03-.047.03-.036-.03.046v-.061l.03-.046v.046h.03l.086-.051v-.071l.03.036v-.051h.03v-.066l1.118-.234v-.254h.03v.015V23.672a.112.112 0 0 0 0-.041V23.6v.142-.096.1V23.664v.03a.173.173 0 0 1 0-.051v.057-.183.147V23.542l.478-.025V23.378l-.025-.03V23.3v.279-.056h.03V24.153l.025.056v-.142.145l.066.244v-.046.62l.411.01v.335-.056l.025-.051v-.03.213-.1.11V25.171v.01a.066.066 0 0 0 0-.03v1.321a.209.209 0 0 0 0 .056v.122a.209.209 0 0 0 0 .056v.056l-.025.056v.259-.1V27.3h.152V27.129a.183.183 0 0 1 0-.056v-.093a.193.193 0 0 0 0-.051v-.39a.361.361 0 0 0 0-.071V26.163v.249h.03v.382-.051.136-.025l.03.041v.384h.049v-.029l.041-.041v-.132.112-.112.051V26.908v.051-.143l.03-.051V23.96v.025-.31.125-.056.391V23.681a.229.229 0 0 0 0-.056V23.416a.112.112 0 0 1 0-.041v.107l1.189.036v-.1.015-.071c-.03-.4-.076-.8-.142-1.194m-13.8-5.441l.056.061v.046l-.036-.046-.03-.046-.081-.071-.046.03v-.046h-.041l-.051-.041h-.025l-.051-.036h.117l.046.036v.036l.051-.03zm-.879 15.154l-.046-.036h-.086v-.046l.03-.046v-.033l-.051-.036v-.142l-.036-.036h-.05l-.081-.1-.1-.127-.03-.051v-.041l.03-.051V31.1l-.03-.051v-.178l.041-.1-.061.03v-.244.1l.081.173v.1l.041.041v.129l.025.051v.049l-.046.046v.051l.046.041h.056l.071.1v.142l.071.127v.041l.046.051v.046zm.188-2.779l-.03.03v.122l-.041.051H27.1l-.071.1-.036-.046v-.02l.036-.046.157-.132h.025l.03-.041zm.508 3.556l.066-.091v-.29l-.041-.046v-.112h.04l.046.036v.314l.041.051v.127l-.036.046v.315l.025.051v.132l-.046-.056h-.03l-.03.046v-.137h-.041v-.27l-.03-.051zm4.882-13.34h-1.144a.056.056 0 0 1 0-.025v-.066a.22.22 0 0 1 0-.025v-.361a.2.2 0 0 0 0-.076v-.035h.193v-.03H31.4v-.086h-.386v-.025h-.025v-.254.025h-.3V18.3h.03v-.041h.081v-.025h.965v.087a.218.218 0 0 0 0 .025h-.335v.056h.142a.147.147 0 0 1 0 .046h.128v.041h.269a.046.046 0 0 1 0 .025h-.03l.036.036a.041.041 0 0 0 0-.03h.366a.224.224 0 0 0 0 .051h.112a.219.219 0 0 0 0 .025h-.036a.041.041 0 0 1 0 .025h.083v-.03a.046.046 0 0 0 0 .025.036.036 0 0 1 0 .025V19.104zm.61-2.83h.073a.071.071 0 0 0 0 .03h.081v.061h-.046v-.025h-.112v-.03zm.295.559H33.5v.041h-.269v-.03h-.117V16.9h.117v-.03l-.03-.03h.03v.03h.061v.03a.036.036 0 0 0 0 .025h.025zm2.931-.569v.066h-.5l-.046-.041v.041l-.051.025v.091h-.03v.03l.036.1v.03a.182.182 0 0 1 0 .046v.086l-.036-.051-.091-.091v-.132l-.03-.041V16.566h.025v-.076l.051-.025h.183l.051.046h.218l.086.056.025-.076.046.036v-.046l.036.046zm1.93-1.407h-.03l-.046-.02V14.93l-.041-.086V14.7l-.03-.041v-.089l-.051-.076v-.056l-.056-.076v-.041l-.03-.041v-.025l-.03-.046-.056-.076-.03-.051-.183-.051-.03-.041-.036-.036V13.9l.03.041a.234.234 0 0 0 .036.036l.061.076.03.041.061.081.03.041.061.076.036.041v.076l.036.041-.03-.041.046.076.03.036v.079l.03.041.03.066v.066l.086.117.046.081v.041zm3.15 10.12zm-4.75 11.339zm-15.49 3.643zm20.214-11.75v.04a.076.076 0 0 1 0 .03V29.162v-.157.195l.025-.041V30.24v-.03.09-.041.051-.041.244a15.59 15.59 0 0 0 .726-2.306v.041zm-.422.95zm.045-1.973v-.041h-.05v.066zm-.6 0v.137h.046v.798a.183.183 0 0 1 0 .051V29.276 28.991a.594.594 0 0 0 0-.1v-.173a.183.183 0 0 1 0-.056v-.712h-.03v-.187.1V27.416h-.152v.046zm1.184-3.185V24.713l.025.03v-.509zm-1.209 5.639V29.8zm-7.28-12.782V16.955a.31.31 0 0 1 0-.056H33.2a.127.127 0 0 0 0-.036v.037h.03zm8.3 11.263v.03a.457.457 0 0 0 0-.081v.025zM40.1 31.649zm.244-.229v-.087l-.036.066-.03.051.025-.1V31.238v.041-.03h-.03l-.03.046a.183.183 0 0 1 0 .046v.092h.03v.041l-.051.1h.051v.071-.025.152-.03.111-.1l.061-.112v-.259zm-20.23 8.357h.025a.046.046 0 0 0-.03 0zM19.1 11.6h-.041v.03h-.1l-.036.036h.117l.046-.03v.055h.147l.046-.025h.152l.03-.03v.03h.249l.046-.03h.091v-.03h.053l.046-.025v-.03h.066l.03-.036h.071l.036-.036h-.025v-.03h-.056v-.025h.046v-.03h-.025l.025-.03h.066l-.051.03h-.056l.03-.03h-.056v.061l-.041.025h-.036l-.041.025-.046.03v-.051h-.02l-.03.03v.061l-.036.036V11.5h-.061l-.046.03v.03l-.03.025v-.076h-.041l-.025.03a.061.061 0 0 1-.03.03l-.056-.239-.051.025-.046.03-.03.036-.025.025v-.026l.025-.03v-.09h.025l.041-.025v-.03l.025-.025h.036v-.03h-.071v.03h-.01l-.041.036h-.041l.036-.03V11.2l-.025.03h-.076v-.036.03l-.025.025-.041.03h.157l.025-.03h.056l-.051.03h-.061l-.03.025H19l-.046.025v.025h.163v.03l-.036.03h.051v.03h.081zm2.408-2.032zm-2.342 5.314h.071v-.041l.061-.066.036-.051.036-.041v-.122h.025V14.5a.056.056 0 0 0 0-.025v-.041l.036-.041.081-.02.041-.041.081-.046v-.03.044-.076h-.041l.056-.03-.03-.066v-.041h-.142l-.051.036.025-.025.025-.036H19.4v.038l-.036.041V14.1h-.1l-.046.041v.046h-.041l-.046.036h.1l-.03.041h-.046l-.066.036v.041l-.056-.025-.046.041v-.025h-.1v.041l-.025.041v.025h-.03l-.036.041h-.051v.041l.025.025.046-.025v.046h.071v.03h-.056l-.036.036v.041l-.1.086.056-.025h.071l.051-.036a.041.041 0 0 0 0 .025l-.1.025-.086.046v.1H18.6l-.03.041h.015l-.046.041h.127l-.081.051h.107l-.086.046h.1l.188-.071v-.041h.03v.03h.036l.04-.046.041-.046h.071l.051-.046v.046zm1.524 0l.051-.081v-.071l-.066-.046h-.147v.046l-.066-.03.091-.071v-.081l-.081-.081h.061l-.005-.041v-.173l-.03-.025h-.061v-.258l-.03-.025-.02-.076h-.03l-.03-.025h-.03l-.046.025h-.061l.056-.041h.036v-.066h-.061l.071-.03h.041l.046-.025.041-.051.061-.046.071-.1.041-.036.025-.041v-.076h-.229l-.091.03h-.03l-.046.03.03-.046h.041a.106.106 0 0 1 0-.036h-.03l.046-.025.193-.107.025-.071H20.3l-.025.051h-.03v.036h-.061v.112h-.056l-.112.025v.044h-.036v.046h-.01v.025h-.041v.041l-.036.036h.02l-.041.041h.071l.1-.071-.03.041h-.056l-.025.025v.025h-.041v.081l-.036.056v.041l-.036.041-.041.076.046-.041.036-.046.056-.112.051-.041.046-.025-.071.051v.178l.066-.076v.036h-.036v.107l-.025.036-.081.076v.089l.025.071v-.041h.036l.025.025h.036v-.036h.03l.091-.056h.1l-.051.025-.137.051-.041.041-.025.041v.036l.03.03v.051l.036-.046h.036l-.03.066-.051.041v.03l-.036.041v.041a.213.213 0 0 1 0 .051l-.041-.03h-.071l-.086.025v-.036l-.051.041v.041h.036l-.051.051-.046.025-.051.041h.046l.046-.036h.03v.08h-.025v.041l-.061.046-.086.046h-.081l-.041.041v.041h.046v.025h.047l.041-.025h.046v.03h.046l-.046.025h.066l.025.025v.03h.056l.071-.046h.046l.076-.056-.081.076h-.025l-.046.041h-.215l-.071.056h-.036l-.056.081-.046.041h-.041l-.051.041-.041.025h-.041v.041h.041l.025.036.041-.041.036-.03.051-.025h.081v.03l.066.041.061-.041.03-.091h.117l.061.036h.036l.056-.03h.081l.046-.03h.076v.03h.208l.051-.025h.081l.041-.036h.041l.051-.036v-.051h-.127v-.046h.081l.025-.041h.041zm-.772-1.361l.036-.036h-.061v-.081h-.036v.036h-.041v.041h.025v.041h.066l-.036.036zm-.188.239h.1a.218.218 0 0 0 0-.036h-.03v-.041l-.03.041h.025l-.025.041zm.29-.564v-.041h-.036l-.046.025-.046.03-.025.036v-.03l-.025.036v.03h.087v-.036l.046-.025zm-.163.117l-.041.025h.025zm5.751-4.379h.056V8.91h-.03v-.122h-.025zm-.036-.259zm-.508.269h.081l.041-.025V8.9h.041v-.112h.335v.061h-.076v-.061h-.432v.152zm-6.6 1.458h.091l.041-.025h.066l.03-.025h-.046l-.046.025h-.173zm7.087-1.615h.036zm-4.14.9v-.02h.02zm-.081 0v-.02h-.015zm2.068-.879h.036m-.869.427h-.081l-.076.036h.157zm2.977-.6h.025zm-4.072 9.846l-.041.188h.046v.051h.066l.051-.041v-.056h.108l.03-.1V18.31l.036-.051-.036-.137-.041-.046-.041-.025-.051.036-.056.056h-.1l-.041-.036v.093l.036.046v.054l-.03.086.036.03v.051zm.163-.645l-.036.046.036.025v.051l.041.025.056-.091v-.066l.041-.051v-.259l-.036.046v.051h-.041l-.1.051-.03.051v.03l-.036.091zM22 40.356h.046zm-1.346-.406h.025zm2.464-21v-.05l-.1.041h-.1l-.1.036h-.152l-.091-.056h-.02l-.051.041h-.1l-.045.038v.051l.041.051h.061l.157.081.046.041h.1l.046.03v.025l.046.041h.122v-.046l.051-.041-.03-.051v-.076l.051-.1zm2.327.879v.025h.355l.036-.036v-.051h-.152v-.046h-.259l-.1.025V19.7h-.055l-.1-.025v.1h.208zm-10.988-6.6h.025l.036-.041-.081.081zm11.877 6.3l.025-.1h-.051l-.051.036v.1h.051zm1.575.193l.051-.025.051-.041h-.046l-.091.046-.1.03h-.132l-.051.03h-.081l-.071.051v.036l.046.051h.1l.046.071h.051l.066-.025.041-.051h.091l-.036-.046V19.8zM12.118 16.16c0 .036-.046.076-.071.117l.046-.071zm8.535 23.805zm.61.224zm-8.636-24.74v.055h.025l.036-.041.041-.056.051-.066.03-.03.03-.041.036-.025.046-.036v.025h.025l.061-.066.056-.046.076-.076.025-.041v-.041l.025-.041.03-.03v-.03l.03-.041.036-.041.03-.041.025-.061v-.2l.03-.03h-.025l-.03.041h-.03l.025-.041h.025l.03-.041.056-.081v.051l-.051.041-.03.025-.036.041-.046.036-.041.041.036-.036.025-.041v-.025l.03-.036v.06a.051.051 0 0 1 .025-.041v-.025h.041l.066-.051.041-.041-.066.046h.036v-.025l.03-.03.03-.03.036-.036v-.036l.051-.076.036-.041-.036.036-.056.056-.041.036.036-.036.036-.036.036-.041.03-.041h-.025v.028l-.036.036v-.025l.036-.036-.066.061.139-.136-.041.036.03-.036.036-.041.036-.036-.036.036.03-.036.178-.051.036-.041.036-.056h.025l.03-.036.041-.036.036-.036v-.037l.03-.041.041-.036.025-.03.036-.041h-.025l.041-.041.03-.041h-.03a16.815 16.815 0 0 0-1.819 2.164zm-.178.544l-.036.041-.036.041-.025.025-.03.046-.025.041v.046h.071l.03-.046.036-.041-.03.046v.041l-.03.03v.03l.03-.03.03-.041.041-.046-.03.041-.036.036-.03.041-.036.046-.03.041.041-.046v-.046l.03-.03.036-.041v.041l.03-.041.03-.046.041-.051v.079l-.03.046-.03.041-.025.046-.03.046-.005.036.036-.046h.025l-.03.051-.03-.005v.046h.025l.03-.046.03-.041.025-.046.036-.051.03-.041.025-.046v-.041l-.036.041-.03.041.03-.051.036-.046.03-.041.03-.041-.036.03-.036.046-.03.041-.036.046v-.086l.03-.041v-.041l.036-.036.036-.046.025-.041-.036.041-.036.035-.03.025h.025V16l.036-.036h-.025v-.046l.041-.046.025-.025.036-.046v-.051l-.036.041a.091.091 0 0 1 .025-.036l.03-.041-.041.036-.036.041-.036.041h-.024l.036-.041.036-.046V15.7l-.03.046V15.7l-.041.046.03-.041h-.025l.03-.025.03-.046.03-.03.036-.041h-.036l.03-.041-.041.041-.03.036-.041.046-.03.041.03-.041.03-.046.025-.041.03-.046.234-.122.036-.046.036-.041.041-.041.03-.041.025-.041.03-.046.03-.03.03-.046-.036.036.025-.041h-.05l-.036.046-.036.041-.036.041-.036.046-.051.112-.036.041-.03.041-.041.051-.03.041-.036.046-.03.041v.051l-.03.041-.025.046-.036.036v-.03l-.03.046-.041.046-.025.046.025-.041-.025.025-.036.041zm-.2 0l.025-.025v-.152l-.163.249zm-2.54 8.7v.163-.146zm2.266-8.23v-.046l-.056.086-.025.041v.091l-.025.046.02-.071.025-.046.03-.036h-.03V16.5l.03-.046zm.472-.66l.03-.046v-.166.1l-.025.041v.068zm8.037 24.131zm0 0zM26.581 8.6zm-6.1 31.324zm0 0zM20.232 39.818h.168l-.173-.061zm.2.076zm.6.2h-.005zm.061 0zm.152.051zm-1.227-.368zm1.219.412zm-.351-.112h-.051l-.1-.03-.086-.03h.066l.152.051zm-.315-.1h.061l-.107-.051zm.361.122h.015zm.864.244h-.63l.107.03h.488zm-1.367-.419zm6.36-31.309zm2.032 1.819l-.091-.034h-.091v.076l.071.041h.09v-.051l-.036-.025zM27.008 8.6zm.071 0zM12.316 33.554a.076.076 0 0 0 0 .03zM26.942 8.6h.02zm-.32-.03zm.157.036zm.03 0h.02zm-14.95 8.163v-.162l-.03.046-.03.041v.066l-.03.041.036-.051v-.036l.036-.051v.025l.03-.041.03-.051.025-.041.03-.046-.03.036-.03.046v.041l-.03.046-.03.041-.03.046v.035l-.025.046v.03zm8.159 23.008h.041l-.147-.056h-.218l-.076-.036h-.152l-.091-.046H19.2l-.081-.041h-.178l-.091-.046-.091-.046h-.351l-.091-.051h-.183l-.152-.7h-.193l-.051-.03-.137-.081-.091-.051h-.041l-.046-.03h.025l.056.03h.03l-.051-.041-.01-.112h-.133l-.1-.066-.107-.127-.046-.03h-.036l-.051-.03-.036-.046H17v-.03l-.036-.051-.036-.036h-.066l-.041-.036-.071-.061-.076-.056-.036-.03-.081-.1-.057-.041h-.03l-.051-.03-.041-.03h-.03l-.071-.061-.046-.03-.046-.03-.056-.036h-.089l-.086-.157-.041-.036h-.03l-.061-.056-.041-.03-.036-.036-.036-.03-.03-.03-.086-.071.127.107.066.056.071.066h.025l.046.03.086.061h.03l.076.046h.1l-.03-.046-.03-.03-.041-.036-.03-.036-.02-.02-.112-.1v-.03l-.046-.041-.041-.036-.091-.1-.046-.03-.061-.066-.025-.03-.071-.076-.03-.03-.061-.071-.036-.041-.041-.03-.036-.036.036.036.046.036.046.041v.03l.041.041.036.03.041.041.03.03.036.041.03.03-.025-.056-.046-.061-.03-.03-.081-.1-.03-.041-.1-.1-.061-.081-.066-.091-.041-.1V36.2l-.03-.041-.03-.03-.036-.041-.2-.163-.071-.076-.041-.046-.056-.051v-.036l-.03-.041-.025-.041v-.041h.03l-.036-.041v-.107l-.03-.071v-.127h.03l-.112-.041v-.051l-.041-.041v-.036h.107v-.061l.03.046h.107v-.041l-.036-.036v-.122l-.025-.041-.071-.1-.076-.03v-.122l-.036-.041-.036-.061-.025-.056v-.086l-.086-.122-.046-.081V34l-.081-.127-.082-.173-.051-.122-.03-.041-.193-.274-.051-.1v-.046l-.041-.046v-.046l-.036-.041v-.132l-.051-.066.036.051v-.178l-.025-.1V32.458l-.036-.041-.03-.056h.03v-.503a.041.041 0 0 0 0-.025V31.449l-.036-.061a.173.173 0 0 1 0-.041l-.269-.112-.066-.127-.03-.051-.03-.046h-.163l-.036-.03h-.041l-.061-.066-.03-.046-.051-.081-.041-.041-.041-.051-.02-.066h-.025l-.112-.107-.122-.1H12.4v.041l-.051-.036-.036-.03-.061-.056-.056-.03v.03h-.036v-.02l.03.1v.1-.1l-.025-.1V30.185l-.239-.056v.051l-.066-.051v-.051l-.076-.036-.025-.046h-.036l-.061-.066-.025-.041v.051l-.03-.046v.178h.036v.056l-.03-.056v.238-.056l-.036-.152v.03l-.03-.041-.163.036-.036-.1v.136l-.091-.03v-.706a.112.112 0 0 0 0-.041v-.112l-.03-.051v-.163l-.041-.1v-.06l-.041-.157v.071l-.03-.112v-.051l-.239-.051v.061-.051l-.041-.1v-.136l-.056-.112-.041-.03-.025-.036v-.036l-.061-.036v.01h-.086v-.152l-.03-.066v.122-.833l-.025-.061v-.066.076V26.878v.107V26.843v.041-.137l.061.442a16.4 16.4 0 0 0 .686 2.764.325.325 0 0 0 0 .036c.03.081.056.163.086.239a17.168 17.168 0 0 0 .823 1.875c.234.447.508.879.757 1.306v.061l.03.041.03.051-.584.122a.122.122 0 0 1-.03-.041l-.025-.041c.137.2.274.4.422.6l.056.071.1.132.061.081a.554.554 0 0 1 .066.086l.036.036.081.112.03.036.036.041.1.117.066.086c.31.366.64.721.975 1.062a16.063 16.063 0 0 0 4.018 2.926 16.452 16.452 0 0 0 1.636.792zm-8.57-22.454v-.239l.03-.046-.03.051v-.015l.051-.056v-.03l.036-.046.046-.056v-.096l.025-.041-.025.036V16.675l.051-.086v-.051l.025-.046v-.046c-.091.152-.183.3-.269.462l.025-.025v-.046l.025-.046.025-.046-.046.091v-.026a.066.066 0 0 0 0 .025l-.066.086v.015l-.036.041v.046-.107l.025-.041v.025l-.046.061-.213.411zm17.094-7.717h.051v.03h-.041v.025l.061.041h.071l.036.025.036.025v-.024.025h.066l.03.025H29l-.036-.025.041.025h.061l.041.025h.1l-.076-.03h.086l-.086-.03.03.269-.03-.025-.076-.046-.061-.041h-.036v-.024h-.041l-.036-.025H28.6zm-.234-.31h.122v.05h.279l-.056.178h-.01l-.066-.041h-.015l.056.025h.025l.01-.213v-.034h.03V9.23h-.152l.066.03h-.036v.025h-.107V9.3h-.147zm1.3.93l.051.051.071.03h.03l.025.025h.091v-.025h-.196l-.076-.036v.029h.041zm-13.787 2.3h.1l-.041.036.046-.036h.056l.036-.03.041-.03-.041.036-.025.036-.03-.041h.025l.046-.03.036-.036-.03.036h.036l-.051.036-.036.025h-.025l-.041.03-.041.03h.056l.046-.036h-.1l-.046.03h.03l-.025.03.041-.03-.041.03h.025l-.036.036.132-.051.056-.041-.051.041-.081.066-.041.036.041-.03.046-.03-.046.036-.046.036-.036.025-.025.03.036-.025h.025l.041-.03-.03.036h.112l.041-.036.025-.036h-.025l.036-.036.041-.03-.03.041h.046l.036-.036h.056l.041-.036h.051v-.03h.03l.046-.03v-.025l.117-.2.03-.036.046-.036h-.005l.051-.036.025-.03v-.025l.025-.036h.03l.03-.036h.025l.046-.036.03-.041v.03-.025l.041-.03.046-.036v.036l.036-.036v.03-.03h.036l.036-.03.041-.03v-.025l.051-.03v-.025h.056v-.025l.03-.03.03-.025v-.03l.041-.03h.071l-.025.03.036-.025h.03l.025-.036h.036l.041-.03.051-.03.046-.025h.041l.036-.025.036-.025h.066l.036-.03h.03v-.025h-.03l-.051.03h-.046l-.036.03h.036l.046-.03-.036.03.051-.03h.041a.091.091 0 0 1 .036 0l.046-.03v-.025l.03-.025h.056l.041-.03.046-.03.041-.025-.03.025h.041l.041-.025h.107l.041-.025v-.03h.02l.03-.03h.1l.041-.025h.076l.041-.025v-.03l.03-.025h.03l-.036.025v.025h.056l.046-.03h.457v-.034h.029l.046-.025h.142v-.025l.04-.03h.02l.041-.025h-.168l-.045.025h.457v-.025h-.046V11h.076l-.03.036h-.1l-.025.025v.039h.137l-.03.03h.056l.041-.025.041-.025h.173l-.036.025v-.025l.036-.025h1.031l.046-.025h-.071V9.8l.041-.025h.483l.051-.025h1.56l.406-.965h.442c-.254.03-.508.061-.767.1a16.312 16.312 0 0 0-4.12 1.219h.147l.046-.025h.041l.148-.279h-.061l-.049.03h-.178l-.041.025h-.291l-.046.025h-.036l-.041.025h-.02l-.051.025-.051.025h.025l-.056.03h-.066l-.041.025.036-.025H18.5l-.041.025-.046.025h-.051l-.046.025h-.269l-.041.03h.122l.041-.03h.005l-.041.03H17.9l-.041.03h.051l-.041.03h-.03l.03-.03H17.4l-.051.025-.041.025h.345l-.046.036h-.071l-.051.036h-.076l-.046.025h.02l-.036.03-.051.03h-.1l.051-.025-.041.025-.046.03h-.015l.046-.025h-.01l-.046.025h-.071l-.041.03h.03l-.046.036.041-.025-.046.03-.041.03-.036.03-.046.03h.041l.046-.03H17l-.051.025h-.066l-.036.03-.046.03-.036.03-.036.03h.025l.041-.03.046-.03.041-.03h.051s-.025 0-.041.036h.036l.051-.036.036-.025.03-.03.041-.03-.041.025-.036.03-.036.03h.056l-.051.03-.041.03.036-.03-.041.03h-.01l-.051.03-.051.03h.086l.046-.03-.046.036-.036.03h-.091l-.041.03h-.036l-.046.036h.03l-.229 1.062-.03.025-.036.03h-.01l-.041.036-.041.036.036-.025h.02l-.041.036-.051.03-.041.03-.036.036-.03.036h-.036l-.03.036.046-.03-.036.03h-.03a.117.117 0 0 1-.036.036l.046-.03-.041.025L16 12.2l-.041.036-.01.107-.03.03-.036.03.041-.025h.036l-.051.03h.03l-.046.03h-.056l-.041.025zm3.8-2.723zm-.147.081z" class="cls-2" data-name="Trazado 58" transform="translate(-4.778 -4.216)"/>
            <path id="Trazado_59" d="M9.777 5.091l-.147-.32a4.6 4.6 0 1 0-3.744 6.5l6.721-.081zM6.922 7.834a1.89 1.89 0 1 1-.34-2.657 1.89 1.89 0 0 1 .34 2.657" class="cls-1" data-name="Trazado 59" transform="translate(-.415 -1.026)"/>
        </g>
    </g>
</svg>
